<svg width="689" height="686" viewBox="0 0 689 686" fill="none" xmlns="http://www.w3.org/2000/svg">
<path d="M30.6614 392.461C27.8449 374.678 33.8221 356.319 47.1356 338.324C60.4506 320.326 81.0809 302.727 107.489 286.497C160.303 254.039 236.138 227.114 322.474 213.44C408.809 199.766 489.252 201.939 549.511 216.488C579.642 223.762 604.701 234.125 622.926 247.127C641.149 260.128 652.507 275.741 655.323 293.524C658.14 311.307 652.163 329.667 638.849 347.662C625.534 365.66 604.904 383.258 578.496 399.488C525.682 431.945 449.847 458.87 363.512 472.544C277.176 486.219 196.732 484.046 136.473 469.497C106.343 462.223 81.2835 451.86 63.0587 438.858C44.8358 425.858 33.478 410.244 30.6614 392.461Z" stroke="url(#paint0_linear_6_48384)"/>
<path d="M29.8457 387.003C27.34 369.173 33.6367 350.921 47.2622 333.161C60.8893 315.399 81.8236 298.162 108.511 282.396C161.883 250.865 238.177 225.267 324.738 213.102C411.299 200.937 491.692 204.513 551.688 220.111C581.687 227.911 606.561 238.71 624.557 252.028C642.55 265.344 653.633 281.153 656.139 298.983C658.645 316.812 652.348 335.065 638.723 352.825C625.096 370.587 604.161 387.823 577.474 403.589C524.101 435.12 447.809 460.718 361.248 472.883C274.687 485.048 194.293 481.472 134.297 465.874C104.298 458.075 79.4235 447.277 61.4284 433.959C43.4351 420.642 32.3515 404.832 29.8457 387.003Z" stroke="url(#paint1_linear_6_48384)"/>
<path d="M29.1253 381.53C26.9312 363.66 33.5454 345.521 47.4788 328.001C61.4138 310.479 82.6458 293.61 109.604 278.312C163.519 247.718 240.248 223.456 327.008 212.803C413.767 202.15 494.086 207.129 553.801 223.772C583.659 232.094 608.341 243.325 626.101 256.955C643.859 270.584 654.665 286.584 656.859 304.454C659.054 322.325 652.44 340.465 638.506 357.985C624.571 375.506 603.339 392.374 576.381 407.672C522.466 438.267 445.738 462.529 358.978 473.182C272.218 483.834 191.899 478.855 132.184 462.213C102.326 453.891 77.6436 442.66 59.8836 429.03C42.1255 415.402 31.3196 399.401 29.1253 381.53Z" stroke="url(#paint2_linear_6_48384)"/>
<path d="M28.5007 376.047C26.6187 358.141 33.5485 340.12 47.7856 322.846C62.0243 305.57 83.5474 289.074 110.769 274.249C165.209 244.6 242.35 221.681 329.282 212.544C416.215 203.407 496.434 209.787 555.849 227.469C585.558 236.311 610.04 247.971 627.56 261.909C645.077 275.846 655.602 292.032 657.484 309.938C659.366 327.844 652.437 345.866 638.2 363.14C623.961 380.416 602.437 396.911 575.216 411.736C520.776 441.385 443.636 464.304 356.704 473.441C269.771 482.578 189.551 476.198 130.136 458.516C100.427 449.674 75.9447 438.014 58.4253 424.077C40.9078 410.14 30.3827 393.953 28.5007 376.047Z" stroke="url(#paint3_linear_6_48384)"/>
<path d="M27.9715 370.553C26.4024 352.617 33.6456 334.72 48.182 317.697C62.72 300.673 84.5278 284.555 112.004 270.207C166.953 241.513 244.482 219.943 331.561 212.325C418.64 204.706 498.735 212.485 557.833 231.202C587.383 240.561 611.658 252.647 628.931 266.888C646.203 281.128 656.444 297.496 658.013 315.432C659.582 333.368 652.339 351.266 637.803 368.289C623.265 385.314 601.457 401.431 573.981 415.778C519.032 444.473 441.504 466.042 354.425 473.66C267.346 481.279 187.249 473.5 128.152 454.783C98.6022 445.425 74.3268 433.339 57.0534 419.098C39.7817 404.858 29.5408 388.49 27.9715 370.553Z" stroke="url(#paint4_linear_6_48384)"/>
<path d="M27.5386 365.051C26.2827 347.09 33.8372 329.322 48.6684 312.556C63.5013 295.787 85.5871 280.053 113.309 266.187C168.751 238.456 246.645 218.243 333.843 212.145C421.042 206.048 500.989 215.223 559.751 234.968C589.133 244.841 613.194 257.349 630.216 271.89C647.236 286.429 657.19 302.973 658.446 320.934C659.702 338.895 652.148 356.664 637.316 373.43C622.484 390.199 600.398 405.932 572.676 419.798C517.234 447.529 439.341 467.742 352.143 473.84C264.944 479.938 184.996 470.762 126.234 451.017C96.8518 441.144 72.791 428.637 55.7688 414.096C38.7483 399.557 28.7945 383.012 27.5386 365.051Z" stroke="url(#paint5_linear_6_48384)"/>
<path d="M27.2017 359.542C26.2594 341.562 34.1228 323.929 49.2444 307.424C64.3678 290.917 86.7247 275.57 114.685 262.19C170.602 235.43 248.836 216.58 336.128 212.005C423.42 207.43 503.195 218 561.603 238.768C590.809 249.152 614.647 262.078 631.413 276.913C648.177 291.747 657.841 308.462 658.783 326.442C659.725 344.423 651.862 362.057 636.74 378.562C621.617 395.069 599.26 410.415 571.3 423.795C515.383 450.554 437.149 469.405 349.858 473.98C262.566 478.554 182.79 467.985 124.381 447.217C95.1763 436.833 71.3375 423.908 54.5716 409.072C37.8074 394.238 28.144 377.522 27.2017 359.542Z" stroke="url(#paint6_linear_6_48384)"/>
<path d="M26.9608 354.028C26.3325 336.034 34.5025 318.541 49.9098 302.302C65.3189 286.062 87.9403 271.107 116.129 258.217C172.505 232.438 251.057 214.956 338.415 211.905C425.773 208.854 505.352 220.815 563.389 242.599C592.409 253.491 616.018 266.831 632.522 281.957C649.025 297.081 658.395 313.962 659.024 331.956C659.652 349.95 651.482 367.444 636.075 383.683C620.666 399.923 598.044 414.877 569.855 427.767C513.479 453.546 434.929 471.028 347.57 474.079C260.212 477.13 180.633 465.169 122.596 443.386C93.5762 432.493 69.9666 419.154 53.4622 404.028C36.9594 388.904 27.5892 372.022 26.9608 354.028Z" stroke="url(#paint7_linear_6_48384)"/>
<path d="M26.8164 348.511C26.5022 330.509 34.9762 313.161 50.6646 297.193C66.3549 281.224 89.2338 266.667 117.644 254.271C174.461 229.479 253.305 213.37 340.704 211.845C428.102 210.319 507.46 223.667 565.108 246.46C593.933 257.857 617.306 271.607 633.544 287.019C649.78 302.429 658.854 319.471 659.168 337.473C659.483 355.475 651.009 372.824 635.32 388.792C619.63 404.761 596.751 419.317 568.341 431.713C511.524 456.505 432.68 472.613 345.282 474.139C257.884 475.665 178.525 462.317 120.877 439.524C92.0523 428.127 68.679 414.378 52.4411 398.966C36.2048 383.556 27.1306 366.513 26.8164 348.511Z" stroke="url(#paint8_linear_6_48384)"/>
<path d="M26.7682 342.992C26.7683 324.988 35.5438 307.79 51.5085 292.099C67.475 276.406 90.6045 262.25 119.226 250.352C176.468 226.555 255.581 211.825 342.993 211.825C430.404 211.825 509.517 226.556 566.758 250.352C595.38 262.25 618.51 276.406 634.476 292.099C650.441 307.79 659.216 324.988 659.216 342.992C659.216 360.997 650.441 378.196 634.476 393.887C618.51 409.579 595.38 423.734 566.758 435.633C509.517 459.429 430.404 474.159 342.993 474.159C255.581 474.159 176.468 459.429 119.226 435.633C90.6047 423.734 67.475 409.579 51.5085 393.887C35.5437 378.196 26.7682 360.997 26.7682 342.992Z" stroke="url(#paint9_linear_6_48384)"/>
<path d="M26.8164 337.474C27.1307 319.472 36.205 302.43 52.4411 287.02C68.679 271.608 92.0521 257.858 120.877 246.461C178.525 223.667 257.884 210.32 345.282 211.845C432.68 213.371 511.524 229.48 568.341 254.271C596.751 266.667 619.63 281.225 635.32 297.194C651.008 313.161 659.482 330.509 659.168 348.511C658.854 366.513 649.78 383.556 633.544 398.966C617.306 414.378 593.932 428.127 565.108 439.524C507.46 462.318 428.102 475.665 340.704 474.139C253.305 472.614 174.461 456.505 117.644 431.714C89.234 419.318 66.3548 404.761 50.6646 388.792C34.9761 372.825 26.5022 355.476 26.8164 337.474Z" stroke="url(#paint10_linear_6_48384)"/>
<path d="M26.9608 331.956C27.5893 313.962 36.9596 297.081 53.4622 281.957C69.9666 266.831 93.5761 253.491 122.596 242.599C180.633 220.815 260.212 208.854 347.57 211.905C434.929 214.956 513.479 232.438 569.855 258.217C598.044 271.107 620.666 286.062 636.075 302.302C651.482 318.541 659.652 336.034 659.024 354.028C658.395 372.022 649.025 388.904 632.522 404.028C616.018 419.154 592.408 432.493 563.389 443.386C505.352 465.169 425.773 477.13 338.415 474.079C251.057 471.029 172.505 453.546 116.129 427.767C87.9405 414.877 65.3189 399.923 49.9098 383.683C34.5023 367.444 26.3325 349.95 26.9608 331.956Z" stroke="url(#paint11_linear_6_48384)"/>
<path d="M27.2016 326.442C28.144 308.462 37.8075 291.747 54.5715 276.913C71.3375 262.078 95.1762 249.152 124.381 238.767C182.79 218 262.566 207.43 349.858 212.005C437.149 216.58 515.383 235.43 571.3 262.189C599.26 275.57 621.617 290.916 636.74 307.423C651.862 323.928 659.725 341.562 658.783 359.542C657.841 377.522 648.177 394.238 631.413 409.072C614.647 423.908 590.808 436.833 561.603 447.217C503.195 467.984 423.42 478.554 336.128 473.979C248.836 469.405 170.602 450.554 114.684 423.795C86.7249 410.415 64.3677 395.069 49.2443 378.562C34.1226 362.057 26.2593 344.422 27.2016 326.442Z" stroke="url(#paint12_linear_6_48384)"/>
<path d="M27.5386 320.933C28.7946 302.972 38.7484 286.429 55.7687 271.889C72.791 257.349 96.8517 244.841 126.234 234.968C184.996 215.223 264.944 206.047 352.143 212.144C439.341 218.242 517.234 238.455 572.676 266.186C600.398 280.052 622.483 295.787 637.316 312.555C652.148 329.322 659.702 347.09 658.446 365.051C657.19 383.012 647.237 399.556 630.216 414.095C613.194 428.636 589.133 441.143 559.751 451.016C500.989 470.761 421.042 479.937 333.843 473.839C246.644 467.742 168.751 447.529 113.309 419.798C85.5872 405.932 63.5012 390.198 48.6683 373.43C33.8369 356.663 26.2826 338.894 27.5386 320.933Z" stroke="url(#paint13_linear_6_48384)"/>
<path d="M27.9716 315.431C29.5408 297.495 39.7818 281.128 57.0533 266.888C74.3268 252.646 98.6021 240.56 128.152 231.201C187.249 212.485 267.346 204.706 354.425 212.324C441.504 219.943 519.032 241.512 573.981 270.206C601.457 284.554 623.265 300.672 637.803 317.697C652.339 334.719 659.582 352.617 658.013 370.553C656.444 388.489 646.203 404.857 628.931 419.097C611.658 433.339 587.382 445.424 557.833 454.783C498.735 473.499 418.64 481.278 331.561 473.66C244.482 466.042 166.953 444.472 112.004 415.778C84.5279 401.43 62.7199 385.313 48.1819 368.288C33.6454 351.266 26.4023 333.368 27.9716 315.431Z" stroke="url(#paint14_linear_6_48384)"/>
<path d="M28.5006 309.938C30.3827 292.032 40.9078 275.846 58.4252 261.909C75.9446 247.971 100.427 236.311 130.136 227.469C189.551 209.787 269.771 203.407 356.704 212.544C443.636 221.681 520.776 244.6 575.216 274.249C602.438 289.074 623.961 305.57 638.199 322.846C652.436 340.12 659.366 358.141 657.484 376.047C655.602 393.953 645.077 410.14 627.56 424.076C610.04 438.014 585.558 449.674 555.849 458.515C496.434 476.198 416.215 482.578 329.282 473.441C242.35 464.304 165.209 441.385 110.769 411.735C83.5475 396.91 62.0241 380.415 47.7854 363.14C33.5482 345.866 26.6186 327.844 28.5006 309.938Z" stroke="url(#paint15_linear_6_48384)"/>
<path d="M29.1253 304.454C31.3196 286.584 42.1256 270.583 59.8835 256.955C77.6435 243.325 102.326 232.093 132.184 223.772C191.899 207.129 272.218 202.15 358.978 212.803C445.738 223.456 522.466 247.718 576.381 278.312C603.339 293.61 624.571 310.479 638.506 328.001C652.439 345.52 659.054 363.66 656.859 381.53C654.665 399.401 643.859 415.402 626.101 429.03C608.341 442.66 583.659 453.891 553.8 462.212C494.086 478.855 413.767 483.834 327.008 473.181C240.248 462.529 163.519 438.267 109.604 407.672C82.6459 392.374 61.4137 375.506 47.4787 357.984C33.5451 340.464 26.9311 322.325 29.1253 304.454Z" stroke="url(#paint16_linear_6_48384)"/>
<path d="M29.8458 298.982C32.3516 281.153 43.4352 265.344 61.4282 252.027C79.4234 238.709 104.298 227.91 134.297 220.111C194.293 204.513 274.687 200.936 361.248 213.102C447.809 225.267 524.101 250.864 577.474 282.395C604.161 298.161 625.096 315.398 638.723 333.161C652.348 350.921 658.645 369.173 656.139 387.002C653.633 404.832 642.55 420.642 624.556 433.958C606.561 447.276 581.687 458.074 551.688 465.873C491.692 481.471 411.299 485.048 324.738 472.883C238.177 460.717 161.883 435.12 108.511 403.589C81.8238 387.823 60.8892 370.587 47.2621 352.825C33.6364 335.064 27.34 316.812 29.8458 298.982Z" stroke="url(#paint17_linear_6_48384)"/>
<path d="M30.6615 293.524C33.4782 275.741 44.8359 260.127 63.0587 247.127C81.2835 234.125 106.343 223.762 136.473 216.487C196.733 201.939 277.177 199.766 363.512 213.44C449.847 227.114 525.682 254.039 578.496 286.497C604.904 302.726 625.534 320.326 638.849 338.323C652.163 356.319 658.14 374.677 655.323 392.46C652.507 410.244 641.149 425.858 622.926 438.858C604.701 451.86 579.642 462.222 549.511 469.497C489.252 484.045 408.809 486.218 322.474 472.544C236.138 458.87 160.303 431.945 107.489 399.487C81.0812 383.258 60.4505 365.659 47.1355 347.662C33.8219 329.666 27.845 311.307 30.6615 293.524Z" stroke="url(#paint18_linear_6_48384)"/>
<path d="M31.5725 288.08C34.6991 270.349 46.3276 254.936 64.7745 242.256C83.2234 229.574 108.46 219.65 138.713 212.902C199.217 199.408 279.686 198.639 365.77 213.818C451.853 228.997 527.206 257.241 579.446 290.615C605.567 307.303 625.887 325.26 638.886 343.487C651.883 361.712 657.539 380.173 654.412 397.904C651.286 415.635 639.657 431.048 621.21 443.729C602.761 456.411 577.525 466.334 547.272 473.082C486.768 486.577 406.299 487.345 320.216 472.166C234.132 456.988 158.779 428.743 106.539 395.369C80.4184 378.681 60.098 360.725 47.0991 342.498C34.1016 324.273 28.446 305.812 31.5725 288.08Z" stroke="url(#paint19_linear_6_48384)"/>
<path d="M32.5782 282.654C36.0137 264.98 47.9094 249.773 66.5748 237.416C85.2423 225.058 110.648 215.576 141.014 209.357C201.744 196.92 282.215 197.556 368.021 214.235C453.826 230.914 528.675 260.469 580.324 294.75C606.149 311.891 626.153 330.2 638.832 348.652C651.509 367.101 656.842 385.657 653.407 403.331C649.971 421.005 638.075 436.213 619.41 448.57C600.742 460.927 575.337 470.409 544.971 476.627C484.241 489.064 403.77 488.428 317.965 471.749C232.159 455.071 157.31 425.515 105.661 391.234C79.8354 374.093 59.8315 355.785 47.1527 337.334C34.4752 318.885 29.1427 300.328 32.5782 282.654Z" stroke="url(#paint20_linear_6_48384)"/>
<path d="M33.6786 277.245C37.422 259.634 49.5814 244.637 68.4595 232.608C87.3399 220.577 112.907 211.54 143.377 205.852C204.315 194.477 284.763 196.518 370.264 214.691C455.765 232.865 530.087 263.722 581.13 298.899C606.652 316.489 626.333 335.144 638.688 353.814C651.042 372.481 656.05 391.127 652.306 408.739C648.563 426.35 636.403 441.348 617.525 453.377C598.645 465.408 573.078 474.444 542.608 480.132C481.67 491.507 401.223 489.467 315.722 471.293C230.22 453.119 155.898 422.262 104.855 387.085C79.3328 369.495 59.6515 350.841 47.2966 332.172C34.943 313.504 29.9352 294.857 33.6786 277.245Z" stroke="url(#paint21_linear_6_48384)"/>
<path d="M34.8731 271.857C38.9234 254.314 51.3426 239.531 70.4279 227.833C89.5153 216.134 115.236 207.545 145.801 202.389C206.928 192.08 287.328 195.524 372.499 215.187C457.67 234.85 531.442 267 581.863 303.062C607.075 321.094 626.427 340.09 638.454 358.973C650.48 377.853 655.162 396.584 651.112 414.127C647.062 431.67 634.642 446.454 615.557 458.152C596.469 469.851 570.748 478.44 540.184 483.595C479.057 493.904 398.658 490.461 313.487 470.797C228.316 451.134 154.543 418.985 104.122 382.922C78.9104 364.89 59.5577 345.895 47.5305 327.013C35.5046 308.132 30.823 289.401 34.8731 271.857Z" stroke="url(#paint22_linear_6_48384)"/>
<path d="M36.1616 266.491C40.5174 249.021 53.1927 234.457 72.4792 223.094C91.7679 211.73 117.635 203.59 148.285 198.969C209.583 189.728 289.91 194.575 374.725 215.721C459.54 236.868 532.739 270.3 582.524 307.237C607.417 325.706 626.435 345.037 638.13 364.127C649.825 383.214 654.179 402.024 649.823 419.494C645.468 436.964 632.792 451.528 613.506 462.891C594.217 474.255 568.35 482.394 537.7 487.015C476.402 496.256 396.076 491.41 311.261 470.263C226.446 449.116 153.246 415.684 103.461 378.747C78.5685 360.278 59.5502 340.948 47.8544 321.858C36.1599 302.771 31.8058 283.96 36.1616 266.491Z" stroke="url(#paint23_linear_6_48384)"/>
<path d="M37.5434 261.147C42.2035 243.756 55.131 229.416 74.6129 218.391C94.097 207.366 120.102 199.678 150.828 195.593C212.278 187.423 292.508 193.671 376.941 216.295C461.374 238.918 533.979 273.623 583.111 311.423C607.678 330.324 626.356 349.984 637.717 369.274C649.076 388.563 653.101 407.446 648.442 424.837C643.782 442.228 630.854 456.57 611.372 467.594C591.888 478.62 565.883 486.306 535.157 490.391C473.707 498.561 393.477 492.314 309.044 469.69C224.611 447.066 152.006 412.362 102.874 374.561C78.3071 355.66 59.629 336.001 48.2682 316.711C36.9085 297.422 32.8835 278.539 37.5434 261.147Z" stroke="url(#paint24_linear_6_48384)"/>
<path d="M39.0183 255.829C43.9811 238.522 57.157 224.409 76.8283 213.726C96.5018 203.042 122.637 195.81 153.43 192.262C215.013 185.166 295.122 192.813 379.147 216.906C463.173 241 535.161 276.966 583.625 315.619C607.859 334.945 626.19 354.928 637.213 374.414C648.234 393.898 651.929 412.848 646.967 430.155C642.004 447.463 628.828 461.576 609.156 472.259C589.483 482.943 563.347 490.174 532.555 493.722C470.972 500.819 390.864 493.172 306.838 469.078C222.813 444.984 150.824 409.018 102.359 370.366C78.1262 351.039 59.7941 331.057 48.7717 311.571C37.7504 292.087 34.0555 273.136 39.0183 255.829Z" stroke="url(#paint25_linear_6_48384)"/>
<path d="M40.5857 250.537C45.8499 233.319 59.2701 219.439 79.1248 209.101C98.9818 198.762 125.239 191.987 156.089 188.977C217.787 182.956 297.75 192 381.342 217.557C464.934 243.114 536.284 280.331 584.066 319.823C607.959 339.569 625.939 359.869 636.62 379.544C647.299 399.217 650.663 418.229 645.399 435.447C640.135 452.665 626.715 466.547 606.86 476.885C587.003 487.224 560.745 493.998 529.895 497.008C468.198 503.028 388.235 493.985 304.643 468.428C221.051 442.871 149.701 405.654 101.918 366.162C78.0261 346.415 60.0455 326.117 49.3648 306.441C38.6852 286.768 35.3216 267.755 40.5857 250.537Z" stroke="url(#paint26_linear_6_48384)"/>
<path d="M42.2454 245.273C47.8093 228.15 61.4697 214.506 81.5018 204.516C101.536 194.525 127.908 188.209 158.806 185.738C220.599 180.795 300.392 191.233 383.526 218.245C466.659 245.257 537.348 283.713 584.434 324.033C607.978 344.194 625.601 364.804 635.937 384.663C646.272 404.519 649.303 423.587 643.739 440.711C638.176 457.834 624.515 471.479 604.483 481.469C584.448 491.46 558.077 497.774 527.179 500.246C465.386 505.189 385.593 494.751 302.46 467.739C219.327 440.728 148.637 402.271 101.551 361.951C78.0068 341.79 60.3832 321.181 50.0475 301.322C39.7129 281.465 36.6817 262.397 42.2454 245.273Z" stroke="url(#paint27_linear_6_48384)"/>
<path d="M43.9967 240.04C49.8585 223.016 63.7549 209.612 83.9584 199.973C104.164 190.334 130.642 184.479 161.578 182.548C223.448 178.684 303.047 190.513 385.697 218.971C468.346 247.43 538.353 287.114 584.728 328.25C607.917 348.818 625.178 369.733 635.165 389.769C645.152 409.803 647.85 428.921 641.988 445.945C636.126 462.968 622.23 476.373 602.026 486.012C581.821 495.651 555.343 501.505 524.407 503.437C462.537 507.3 382.938 495.471 300.289 467.013C217.64 438.555 147.632 398.87 101.257 357.734C78.0681 337.166 60.8069 316.252 50.8194 296.216C40.8329 276.182 38.1349 257.063 43.9967 240.04Z" stroke="url(#paint28_linear_6_48384)"/>
<path d="M45.839 234.837C51.997 217.919 66.1253 204.759 86.4938 195.475C106.865 186.189 133.441 180.798 164.406 179.406C226.334 176.623 305.715 189.839 387.855 219.736C469.994 249.632 539.298 290.533 584.949 332.471C607.775 353.441 624.668 374.654 634.304 394.861C643.94 415.066 646.304 434.228 640.146 451.147C633.988 468.066 619.859 481.226 599.491 490.511C579.12 499.796 552.544 505.187 521.579 506.579C459.651 509.362 380.271 496.146 298.131 466.249C215.991 436.353 146.687 395.452 101.036 353.514C78.2102 332.544 61.3166 311.331 51.6802 291.124C42.0449 270.919 39.681 251.756 45.839 234.837Z" stroke="url(#paint29_linear_6_48384)"/>
<path d="M47.7718 229.668C54.2241 212.859 68.5799 199.948 89.1074 191.02C109.637 182.092 136.303 177.165 167.288 176.314C229.255 174.612 308.393 189.212 389.999 220.537C471.604 251.863 540.184 293.966 585.096 336.695C607.552 358.061 624.072 379.565 633.355 399.937C642.636 420.308 644.665 439.508 638.213 456.317C631.761 473.126 617.405 486.037 596.877 494.965C576.347 503.893 549.681 508.819 518.697 509.67C456.73 511.372 377.592 496.773 295.987 465.447C214.381 434.122 145.801 392.018 100.889 349.289C78.4328 327.924 61.912 306.42 52.6298 286.048C43.3486 265.678 41.3194 246.477 47.7718 229.668Z" stroke="url(#paint30_linear_6_48384)"/>
<path d="M49.7945 224.533C56.5393 207.839 71.1182 195.181 91.7983 186.613C112.481 178.044 139.229 173.583 170.224 173.273C232.211 172.653 311.082 188.632 392.129 221.376C473.175 254.121 541.01 297.415 585.169 340.922C607.249 362.676 623.391 384.465 632.317 404.996C641.241 425.525 642.935 444.758 636.19 461.452C629.446 478.146 614.867 490.805 594.186 499.373C573.504 507.942 546.756 512.401 515.761 512.711C453.774 513.332 374.903 497.353 293.857 464.608C212.81 431.863 144.975 388.569 100.816 345.063C78.7361 323.309 62.5931 301.52 53.6679 280.989C44.7435 260.46 43.0498 241.226 49.7945 224.533Z" stroke="url(#paint31_linear_6_48384)"/>
<path d="M51.9066 219.434C58.9417 202.86 73.7393 190.459 94.5658 182.253C115.395 174.046 142.217 170.053 173.212 170.284C235.201 170.745 313.781 188.098 394.244 222.253C474.707 256.407 541.775 300.878 585.168 345.149C606.865 367.285 622.625 389.352 631.191 410.036C639.755 430.718 641.113 449.978 634.078 466.551C627.043 483.124 612.245 495.527 591.419 503.733C570.59 511.939 543.768 515.932 512.773 515.701C450.784 515.239 372.205 497.887 291.742 463.732C211.279 429.578 144.21 385.106 100.817 340.836C79.1199 318.7 63.3597 296.633 54.7941 275.949C46.2294 255.267 44.8716 236.007 51.9066 219.434Z" stroke="url(#paint32_linear_6_48384)"/>
<path d="M54.1073 214.372C61.4305 197.924 76.4423 185.783 97.4089 177.941C118.378 170.099 145.265 166.575 176.252 167.347C238.224 168.89 316.489 187.612 396.343 223.165C476.198 258.719 542.479 304.354 585.093 349.375C606.401 371.886 621.773 394.225 629.976 415.056C638.179 435.884 639.201 455.164 631.878 471.612C624.554 488.06 609.542 500.203 588.576 508.044C567.607 515.886 540.719 519.409 509.733 518.637C447.761 517.094 369.497 498.373 289.642 462.819C209.788 427.266 143.505 381.631 100.892 336.61C79.584 314.099 64.2113 291.76 56.008 270.929C47.8055 250.101 46.7841 230.82 54.1073 214.372Z" stroke="url(#paint33_linear_6_48384)"/>
<path d="M56.3961 209.35C64.0052 193.032 79.2266 181.154 100.327 173.68C121.43 166.205 148.375 163.151 179.343 164.463C241.278 167.088 319.205 187.173 398.426 224.114C477.648 261.056 543.123 307.841 584.945 353.599C605.857 376.478 620.837 399.083 628.675 420.053C636.513 441.021 637.198 460.316 629.589 476.634C621.98 492.952 606.758 504.83 585.658 512.304C564.555 519.779 537.61 522.833 506.642 521.52C444.707 518.896 366.781 498.811 287.559 461.87C208.338 424.928 142.862 378.143 101.04 332.385C80.1284 309.505 65.1479 286.902 57.3094 265.932C49.4717 244.963 48.7869 225.668 56.3961 209.35Z" stroke="url(#paint34_linear_6_48384)"/>
<path d="M58.7721 204.369C66.6649 188.186 82.0913 176.576 103.319 169.471C124.549 162.366 151.543 159.782 182.484 161.635C244.364 165.34 321.928 186.782 400.493 225.1C479.058 263.419 543.706 311.339 584.723 357.82C605.232 381.061 619.815 403.924 627.287 425.027C634.757 446.129 635.105 465.433 627.213 481.616C619.32 497.798 603.893 509.409 582.666 516.514C561.436 523.619 534.442 526.202 503.501 524.35C441.622 520.644 364.058 499.203 285.493 460.885C206.928 422.566 142.279 374.645 101.262 328.164C80.7529 304.923 66.1691 282.062 58.6978 260.958C51.2273 239.856 50.8793 220.551 58.7721 204.369Z" stroke="url(#paint35_linear_6_48384)"/>
<path d="M61.2347 199.43C69.4087 183.387 85.0353 172.048 106.384 165.315C127.734 158.581 154.769 156.469 185.673 158.861C247.479 163.646 324.657 186.438 402.541 226.122C480.426 265.806 544.228 314.847 584.427 362.037C604.528 385.632 618.71 408.746 625.812 429.977C632.913 451.205 632.924 470.513 624.75 486.555C616.576 502.598 600.949 513.938 579.601 520.671C558.25 527.404 531.215 529.516 500.312 527.123C438.506 522.339 361.328 499.547 283.444 459.863C205.56 420.179 141.757 371.138 101.557 323.948C81.4572 300.353 67.2746 277.24 60.1728 256.009C53.0716 234.78 53.0607 215.472 61.2347 199.43Z" stroke="url(#paint36_linear_6_48384)"/>
<path d="M67.7572 210.474C76.21 194.577 92.0321 183.512 113.495 177.153C134.96 170.793 162.027 169.153 192.885 172.084C254.598 177.946 331.366 202.082 408.546 243.119C485.726 284.156 548.663 334.304 588.032 382.188C607.718 406.13 621.494 429.488 628.225 450.84C634.954 472.189 634.629 491.494 626.176 507.391C617.723 523.288 601.901 534.354 580.438 540.713C558.973 547.073 531.905 548.713 501.048 545.781C439.336 539.919 362.568 515.783 285.388 474.746C208.208 433.709 145.27 383.561 105.901 335.678C86.2153 311.735 72.4383 288.378 65.708 267.026C58.9785 245.677 59.3045 226.372 67.7572 210.474Z" stroke="url(#paint37_linear_6_48384)"/>
<path d="M66.4166 189.683C75.1455 173.936 91.1584 163.149 112.729 157.165C134.301 151.181 161.394 150.013 192.195 153.483C253.796 160.421 330.132 185.893 406.584 228.271C483.036 270.649 545.088 321.887 583.616 370.451C602.88 394.733 616.247 418.328 622.604 439.794C628.96 461.257 628.297 480.553 619.568 496.3C610.839 512.048 594.826 522.836 573.256 528.82C551.683 534.804 524.591 535.971 493.79 532.501C432.189 525.563 355.854 500.091 279.402 457.713C202.95 415.335 140.897 364.097 102.369 315.533C83.1046 291.251 69.7373 267.657 63.3807 246.191C57.0248 224.727 57.6877 205.431 66.4166 189.683Z" stroke="url(#paint38_linear_6_48384)"/>
<path d="M69.1344 184.88C78.1368 169.288 94.3355 158.782 116.007 153.175C137.681 147.568 164.789 146.874 195.526 150.88C256.996 158.893 332.876 185.693 408.576 229.399C484.277 273.104 545.426 325.418 583.1 374.646C601.938 399.262 614.891 423.085 620.872 444.659C626.852 466.23 625.853 485.512 616.851 501.104C607.848 516.697 591.649 527.204 569.978 532.81C548.304 538.417 521.196 539.111 490.459 535.105C428.989 527.092 353.11 500.292 277.409 456.587C201.709 412.881 140.56 360.567 102.885 311.338C84.0473 286.723 71.0938 262.9 65.1128 241.326C59.1324 219.755 60.132 200.473 69.1344 184.88Z" stroke="url(#paint39_linear_6_48384)"/>
<path d="M71.9356 180.125C81.2087 164.692 97.5883 154.47 119.354 149.243C141.123 144.015 168.239 143.793 198.901 148.336C260.222 157.42 335.623 185.54 410.549 230.56C485.475 275.581 545.701 328.953 582.511 378.832C600.916 403.772 613.452 427.818 619.055 449.493C624.658 471.165 623.323 490.427 614.05 505.86C604.776 521.293 588.396 531.515 566.63 536.743C544.862 541.971 517.746 542.191 487.084 537.649C425.763 528.564 350.363 500.445 275.437 455.424C200.511 410.404 140.284 357.031 103.474 307.153C85.0688 282.212 72.5331 258.167 66.9295 236.492C61.3265 214.819 62.6624 195.558 71.9356 180.125Z" stroke="url(#paint40_linear_6_48384)"/>
<path d="M74.8193 175.418C84.3604 160.15 100.916 150.215 122.77 145.369C144.626 140.521 171.742 140.773 202.32 145.85C263.474 156.003 338.372 185.435 412.501 231.756C486.63 278.077 545.916 332.493 581.849 383.006C599.816 408.264 611.93 432.525 617.154 454.294C622.378 476.061 620.707 495.296 611.166 510.565C601.625 525.834 585.069 535.769 563.215 540.616C541.359 545.463 514.243 545.21 483.665 540.133C422.512 529.98 347.614 500.549 273.485 454.228C199.356 407.907 140.07 353.491 104.136 302.977C86.1688 277.72 74.0546 253.459 68.8302 231.69C63.6063 209.923 65.2782 190.687 74.8193 175.418Z" stroke="url(#paint41_linear_6_48384)"/>
<path d="M77.7847 170.764C87.5908 155.664 104.317 146.02 126.252 141.556C148.19 137.091 175.298 137.816 205.782 143.425C266.749 154.644 341.122 185.379 414.432 232.986C487.741 280.594 546.068 336.036 581.114 387.169C598.638 412.736 610.326 437.206 615.17 459.063C620.013 480.917 618.006 500.12 608.2 515.22C598.394 530.32 581.668 539.965 559.732 544.429C537.795 548.894 510.687 548.168 480.203 542.559C419.236 531.34 344.864 500.606 271.554 452.998C198.245 405.39 139.917 349.948 104.871 298.815C87.3471 273.248 75.6582 248.779 70.8144 226.922C65.9712 205.068 67.9786 185.864 77.7847 170.764Z" stroke="url(#paint42_linear_6_48384)"/>
<path d="M80.8308 166.162C90.899 151.235 107.791 141.885 129.801 137.803C151.813 133.722 178.904 134.92 209.286 141.061C270.048 153.342 343.873 185.37 416.341 234.25C488.808 283.13 546.158 339.581 580.307 391.318C597.382 417.187 608.641 441.857 613.103 463.795C617.564 485.731 615.222 504.896 605.154 519.822C595.086 534.749 578.194 544.1 556.184 548.181C534.172 552.263 507.081 551.064 476.699 544.923C415.937 532.642 342.113 500.614 269.645 451.734C197.178 402.855 139.827 346.403 105.678 294.666C88.6032 268.797 77.3431 244.128 72.8816 222.19C68.4205 200.254 70.7627 181.088 80.8308 166.162Z" stroke="url(#paint43_linear_6_48384)"/>
<path d="M83.9569 161.613C94.284 146.865 111.337 137.81 133.414 134.114C155.494 130.417 182.56 132.088 212.831 138.758C273.369 152.098 346.624 185.409 418.227 235.546C489.83 285.684 546.187 343.127 579.427 395.452C596.048 421.615 606.876 446.478 610.954 468.491C615.031 490.501 612.355 509.622 602.028 524.371C591.701 539.119 574.648 548.174 552.57 551.871C530.49 555.567 503.425 553.896 473.155 547.226C412.616 533.886 339.362 500.575 267.759 450.438C196.155 400.301 139.798 342.857 106.558 290.532C89.9368 264.368 79.109 239.507 75.031 217.494C70.9535 195.483 73.6298 176.362 83.9569 161.613Z" stroke="url(#paint44_linear_6_48384)"/>
<path d="M87.1618 157.12C97.7448 142.554 114.953 133.799 137.092 130.489C159.233 127.178 186.266 129.321 216.415 136.518C276.711 150.912 349.374 185.497 420.091 236.876C490.808 288.255 546.154 346.674 578.476 399.571C594.638 426.02 605.029 451.068 608.722 473.149C612.415 495.227 609.406 514.298 598.823 528.864C588.24 543.43 571.032 552.186 548.893 555.497C526.752 558.808 499.719 556.664 469.57 549.467C409.274 535.072 336.612 500.488 265.895 449.109C195.177 397.73 139.831 339.311 107.509 286.414C91.3475 259.964 80.9552 234.918 77.2621 212.837C73.5693 190.759 76.5789 171.687 87.1618 157.12Z" stroke="url(#paint45_linear_6_48384)"/>
<path d="M90.4447 152.684C101.28 138.305 118.639 129.851 140.832 126.927C163.027 124.004 190.018 126.618 220.037 134.34C280.073 149.785 352.121 185.632 421.931 238.238C491.741 290.843 546.058 350.219 577.453 403.672C593.15 430.4 603.103 455.625 606.41 477.766C609.717 499.906 606.376 518.921 595.54 533.301C584.705 547.68 567.346 556.134 545.153 559.058C522.957 561.982 495.966 559.367 465.948 551.644C405.912 536.2 333.864 500.353 264.055 447.747C194.245 395.142 139.927 335.766 108.532 282.313C92.8349 255.585 82.8813 230.361 79.574 208.219C76.2671 186.08 79.6092 167.063 90.4447 152.684Z" stroke="url(#paint46_linear_6_48384)"/>
<path d="M93.8045 148.305C104.889 134.117 122.393 125.968 144.633 123.432C166.877 120.896 193.818 123.981 223.698 132.226C283.455 148.716 354.866 185.816 423.747 239.632C492.628 293.447 545.901 353.762 576.358 407.755C591.587 434.752 601.098 460.147 604.018 482.343C606.938 504.537 603.265 523.491 592.181 537.679C581.096 551.867 563.592 560.017 541.351 562.553C519.108 565.089 492.167 562.003 462.287 553.758C402.53 537.269 331.12 500.169 262.238 446.354C193.357 392.538 140.084 332.223 109.627 278.23C94.3985 251.233 84.8866 225.838 81.9663 203.642C79.0463 181.449 82.7197 162.493 93.8045 148.305Z" stroke="url(#paint47_linear_6_48384)"/>
<path d="M97.2403 143.986C108.571 129.994 126.214 122.151 148.495 120.004C170.78 117.856 197.663 121.411 227.394 130.176C286.855 147.706 357.608 186.047 425.539 241.056C493.47 296.066 545.683 357.301 575.192 411.817C589.948 439.076 599.014 464.633 601.547 486.877C604.079 509.118 600.076 528.006 588.745 541.998C577.414 555.991 559.771 563.834 537.489 565.981C515.205 568.129 488.322 564.573 458.591 555.808C399.131 538.278 328.378 499.938 260.447 444.928C192.515 389.918 140.303 328.683 110.793 274.167C96.0379 246.908 86.9706 221.351 84.4381 199.108C81.9059 176.866 85.9095 157.978 97.2403 143.986Z" stroke="url(#paint48_linear_6_48384)"/>
<path d="M100.751 139.728C112.324 125.935 130.101 118.402 152.417 116.644C174.735 114.885 201.552 118.909 231.126 128.192C290.271 146.757 360.344 186.326 427.305 242.513C494.266 298.7 545.402 360.837 573.956 415.86C588.233 443.372 596.852 469.084 598.996 491.368C601.14 513.65 596.807 532.465 585.234 546.258C573.661 560.05 555.884 567.584 533.568 569.342C511.25 571.101 484.433 567.076 454.859 557.794C395.714 539.228 325.641 499.66 258.68 443.473C191.719 387.286 140.583 325.148 112.03 270.125C97.7523 242.613 89.1325 216.902 86.9886 194.618C84.8449 172.336 89.1776 153.52 100.751 139.728Z" stroke="url(#paint49_linear_6_48384)"/>
<path d="M104.335 135.531C116.147 121.942 134.053 114.72 156.396 113.352C178.742 111.983 205.485 116.474 234.892 126.272C293.704 145.866 363.076 186.653 429.046 244C495.016 301.347 545.06 364.367 572.649 419.879C586.444 447.637 594.613 473.495 596.367 495.813C598.122 518.129 593.462 536.866 581.65 550.454C569.838 564.042 551.932 571.265 529.588 572.634C507.243 574.002 480.5 569.511 451.093 559.713C392.281 540.118 322.91 499.333 256.94 441.986C190.969 384.639 140.925 321.618 113.336 266.105C99.5415 238.348 91.3717 212.491 89.617 190.172C87.8626 167.856 92.5229 149.119 104.335 135.531Z" stroke="url(#paint50_linear_6_48384)"/>
<path d="M107.992 131.397C120.04 118.017 138.069 111.109 160.432 110.13C182.798 109.152 209.459 114.109 238.691 124.418C297.152 145.036 365.801 187.027 430.761 245.517C495.72 304.006 544.656 367.89 571.272 423.876C584.58 451.87 592.297 477.866 593.662 500.212C595.026 522.555 590.04 541.207 577.993 554.588C565.945 567.968 547.916 574.877 525.552 575.855C503.186 576.833 476.526 571.876 447.294 561.566C388.833 540.948 320.184 498.958 255.225 440.469C190.266 381.979 141.329 318.095 114.713 262.109C101.405 234.115 93.6876 208.119 92.3227 185.774C90.9579 163.43 95.9446 144.777 107.992 131.397Z" stroke="url(#paint51_linear_6_48384)"/>
<path d="M111.721 127.328C124 114.16 142.147 107.568 164.524 106.98C186.904 106.392 213.474 111.813 242.521 122.631C300.614 144.266 368.52 187.449 432.449 247.063C496.377 306.678 544.191 371.406 569.825 427.847C582.643 456.069 589.905 482.197 590.88 504.563C591.854 526.926 586.543 545.489 574.264 558.657C561.985 571.825 543.838 578.418 521.46 579.006C499.081 579.594 472.511 574.172 443.464 563.354C385.371 541.718 317.466 498.537 253.537 438.922C189.608 379.308 141.794 314.579 116.16 258.137C103.342 229.916 96.0794 203.789 95.1047 181.423C94.1301 159.059 99.4416 140.496 111.721 127.328Z" stroke="url(#paint52_linear_6_48384)"/>
<path d="M115.52 123.324C128.027 110.373 146.286 104.098 168.67 103.901C191.057 103.703 217.528 109.588 246.382 120.911C304.088 143.557 371.23 187.918 434.109 248.639C496.988 309.36 543.664 374.913 568.31 431.793C580.633 460.234 587.438 486.484 588.022 508.864C588.606 531.241 582.972 549.708 570.465 562.66C557.958 575.611 539.698 581.887 517.314 582.084C494.928 582.282 468.457 576.396 439.603 565.073C381.897 542.428 314.755 498.067 251.877 437.346C188.998 376.625 142.321 311.072 117.675 254.191C105.352 225.75 98.5464 199.501 97.9622 177.121C97.3781 154.744 103.013 136.276 115.52 123.324Z" stroke="url(#paint53_linear_6_48384)"/>
<path d="M119.388 119.388C132.12 106.657 150.485 100.701 172.869 100.895C195.256 101.088 221.621 107.434 250.273 119.259C307.575 142.908 373.933 188.434 435.742 250.244C497.551 312.053 543.077 378.41 566.726 435.712C578.551 464.364 584.896 490.729 585.09 513.115C585.283 535.499 579.328 553.865 566.597 566.597C553.865 579.328 535.499 585.284 513.115 585.09C490.728 584.897 464.364 578.551 435.712 566.726C378.41 543.076 312.053 497.551 250.244 435.742C188.434 373.932 142.909 307.575 119.259 250.273C107.434 221.621 101.088 195.256 100.894 172.87C100.701 150.486 106.657 132.119 119.388 119.388Z" stroke="url(#paint54_linear_6_48384)"/>
<path d="M123.325 115.52C136.276 103.013 154.743 97.3788 177.121 97.9629C199.5 98.5471 225.75 105.352 254.192 117.675C311.072 142.321 376.625 188.998 437.347 251.877C498.068 314.755 542.428 381.897 565.074 439.603C576.397 468.457 582.281 494.928 582.084 517.315C581.887 539.699 575.612 557.958 562.66 570.465C549.709 582.972 531.241 588.607 508.864 588.023C486.484 587.439 460.235 580.633 431.793 568.31C374.913 543.664 309.36 496.988 248.639 434.109C187.918 371.23 143.557 304.088 120.911 246.382C109.588 217.528 103.703 191.057 103.9 168.671C104.098 146.287 110.373 128.027 123.325 115.52Z" stroke="url(#paint55_linear_6_48384)"/>
<path d="M127.328 111.721C140.496 99.4418 159.059 94.1309 181.422 95.1054C203.788 96.0801 229.916 103.342 258.138 116.16C314.579 141.794 379.308 189.608 438.922 253.537C498.537 317.466 541.719 385.371 563.354 443.464C574.172 472.511 579.593 499.081 579.005 521.461C578.418 543.838 571.825 561.985 558.657 574.264C545.489 586.543 526.926 591.855 504.562 590.88C482.196 589.906 456.069 582.643 427.848 569.825C371.406 544.191 306.678 496.377 247.063 432.449C187.449 368.52 144.267 300.614 122.631 242.521C111.814 213.474 106.391 186.904 106.979 164.525C107.567 142.147 114.16 124 127.328 111.721Z" stroke="url(#paint56_linear_6_48384)"/>
<path d="M131.397 107.992C144.777 95.9444 163.43 90.9583 185.773 92.323C208.119 93.6878 234.115 101.404 262.109 114.713C318.095 141.329 381.979 190.265 440.469 255.225C498.959 320.184 540.949 388.833 561.567 447.294C571.876 476.526 576.833 503.186 575.855 525.552C574.876 547.916 567.968 565.945 554.588 577.992C541.208 590.04 522.555 595.027 500.211 593.662C477.866 592.297 451.87 584.58 423.876 571.271C367.89 544.656 304.007 495.72 245.517 430.76C187.027 365.801 145.036 297.152 124.418 238.69C114.109 209.459 109.151 182.798 110.13 160.432C111.108 138.069 118.017 120.039 131.397 107.992Z" stroke="url(#paint57_linear_6_48384)"/>
<path d="M135.531 104.335C149.119 92.5231 167.856 87.8632 190.172 89.6177C212.49 91.3723 238.348 99.5414 266.106 113.336C321.618 140.925 384.639 190.969 441.986 256.94C499.333 322.91 540.119 392.281 559.713 451.093C569.511 480.5 574.002 507.244 572.633 529.589C571.265 551.932 564.043 569.838 550.454 581.65C536.866 593.462 518.129 598.123 495.813 596.368C473.494 594.613 447.637 586.444 419.88 572.649C364.367 545.06 301.347 495.016 244 429.046C186.653 363.076 145.867 293.704 126.272 234.892C116.474 205.485 111.983 178.742 113.351 156.397C114.72 134.054 121.943 116.147 135.531 104.335Z" stroke="url(#paint58_linear_6_48384)"/>
<path d="M139.728 100.751C153.52 89.1775 172.335 84.8453 194.617 86.9889C216.902 89.1328 242.613 97.752 270.125 112.029C325.148 140.583 387.286 191.719 443.473 258.68C499.66 325.641 539.228 395.714 557.793 454.859C567.076 484.433 571.1 511.25 569.342 533.568C567.583 555.884 560.05 573.661 546.258 585.234C532.465 596.807 513.649 601.14 491.367 598.996C469.083 596.852 443.372 588.233 415.86 573.955C360.837 545.402 298.7 494.266 242.513 427.305C186.326 360.344 146.757 290.271 128.192 231.126C118.909 201.552 114.885 174.735 116.643 152.417C118.401 130.101 125.935 112.324 139.728 100.751Z" stroke="url(#paint59_linear_6_48384)"/>
<path d="M143.986 97.2403C157.979 85.9096 176.866 81.9065 199.107 84.4387C221.351 86.9712 246.908 96.0377 274.167 110.793C328.683 140.303 389.919 192.515 444.929 260.447C499.938 328.378 538.278 399.131 555.808 458.591C564.574 488.322 568.129 515.206 565.981 537.49C563.834 559.771 555.991 577.414 541.999 588.745C528.006 600.076 509.118 604.079 486.877 601.547C464.633 599.015 439.077 589.947 411.818 575.192C357.302 545.683 296.067 493.47 241.057 425.539C186.047 357.607 147.707 286.855 130.177 227.394C121.411 197.663 117.856 170.78 120.003 148.496C122.151 126.214 129.994 108.571 143.986 97.2403Z" stroke="url(#paint60_linear_6_48384)"/>
<path d="M148.306 93.8046C162.493 82.7199 181.448 79.047 203.642 81.967C225.838 84.8873 251.233 94.3985 278.23 109.627C332.223 140.084 392.538 193.357 446.354 262.239C500.17 331.12 537.269 402.53 553.759 462.287C562.004 492.167 565.089 519.109 562.553 541.352C560.017 563.593 551.867 581.096 537.68 592.181C523.492 603.265 504.536 606.939 482.343 604.019C460.147 601.099 434.752 591.587 407.755 576.358C353.762 545.902 293.448 492.629 239.632 423.747C185.816 354.866 148.716 283.455 132.227 223.698C123.982 193.818 120.896 166.877 123.432 144.634C125.968 122.393 134.118 104.889 148.306 93.8046Z" stroke="url(#paint61_linear_6_48384)"/>
<path d="M152.684 90.4446C167.063 79.6092 186.079 76.2677 208.219 79.5745C230.36 82.8817 255.585 92.8347 282.313 108.532C335.766 139.926 395.142 194.245 447.748 264.054C500.353 333.864 536.2 405.912 551.645 465.947C559.367 495.966 561.981 522.958 559.057 545.153C556.134 567.346 547.68 584.705 533.301 595.54C518.922 606.376 499.905 609.718 477.766 606.411C455.624 603.104 430.4 593.15 403.672 577.452C350.219 546.058 290.844 491.741 238.238 421.931C185.633 352.121 149.785 280.073 134.341 220.037C126.618 190.018 124.003 163.028 126.927 140.832C129.851 118.639 138.305 101.28 152.684 90.4446Z" stroke="url(#paint62_linear_6_48384)"/>
<path d="M157.121 87.1618C171.687 76.579 190.758 73.5698 212.836 77.2626C234.917 80.9557 259.965 91.3474 286.414 107.509C339.311 139.831 397.73 195.177 449.109 265.895C500.488 336.612 535.073 409.274 549.467 469.57C556.664 499.719 558.807 526.752 555.496 548.893C552.186 571.032 543.431 588.24 528.865 598.823C514.298 609.406 495.226 612.416 473.148 608.723C451.067 605.03 426.021 594.637 399.571 578.476C346.674 546.154 288.256 490.808 236.877 420.091C185.497 349.373 150.913 276.711 136.518 216.415C129.321 186.266 127.177 159.233 130.488 137.092C133.799 114.953 142.555 97.7447 157.121 87.1618Z" stroke="url(#paint63_linear_6_48384)"/>
<path d="M161.614 83.9568C176.363 73.6299 195.484 70.9541 217.494 75.0315C239.507 79.1095 264.369 89.9367 290.532 106.558C342.857 139.798 400.301 196.155 450.439 267.759C500.576 339.362 533.887 412.616 547.226 473.154C553.896 503.425 555.567 530.491 551.871 552.571C548.174 574.648 539.12 591.701 524.371 602.028C509.623 612.355 490.501 615.032 468.491 610.954C446.478 606.876 421.616 596.048 395.453 579.427C343.128 546.187 285.684 489.83 235.547 418.227C185.41 346.624 152.099 273.369 138.759 212.83C132.089 182.56 130.417 155.495 134.114 133.415C137.81 111.337 146.865 94.284 161.614 83.9568Z" stroke="url(#paint64_linear_6_48384)"/>
<path d="M166.162 80.8307C181.089 70.7627 200.254 68.421 222.189 72.882C244.128 77.3435 268.797 88.603 294.667 105.678C346.404 139.827 402.855 197.178 451.735 269.645C500.615 342.113 532.642 415.937 544.924 476.699C551.064 507.081 552.263 534.172 548.181 556.184C544.1 578.194 534.749 595.086 519.823 605.154C504.896 615.222 485.731 617.564 463.795 613.103C441.857 608.642 417.188 597.382 391.318 580.307C339.582 546.158 283.13 488.808 234.25 416.34C185.371 343.873 153.343 270.048 141.062 209.286C134.921 178.904 133.722 151.813 137.803 129.801C141.884 107.791 151.236 90.8989 166.162 80.8307Z" stroke="url(#paint65_linear_6_48384)"/>
<path d="M170.765 77.7845C185.865 67.9785 205.067 65.9717 226.922 70.8148C248.779 75.6585 273.248 87.3468 298.816 104.871C349.949 139.917 405.391 198.245 452.999 271.554C500.606 344.864 531.34 419.236 542.559 480.203C548.169 510.687 548.894 537.795 544.429 559.733C539.964 581.668 530.321 598.394 515.221 608.2C500.12 618.006 480.917 620.014 459.062 615.17C437.205 610.327 412.737 598.638 387.169 581.114C336.036 546.068 280.595 487.741 232.987 414.431C185.379 341.122 154.645 266.749 143.426 205.782C137.816 175.298 137.09 148.19 141.555 126.253C146.02 104.317 155.664 87.5906 170.765 77.7845Z" stroke="url(#paint66_linear_6_48384)"/>
<path d="M175.419 74.8191C190.688 65.2782 209.923 63.6067 231.69 68.8306C253.459 74.055 277.721 86.1685 302.978 104.136C353.492 140.069 407.908 199.356 454.229 273.485C500.55 347.614 529.981 422.511 540.134 483.665C545.211 514.243 545.463 541.359 540.616 563.215C535.769 585.069 525.835 601.625 510.566 611.166C495.297 620.707 476.061 622.379 454.294 617.155C432.525 611.93 408.264 599.816 383.007 581.849C332.493 545.915 278.078 486.63 231.757 412.501C185.436 338.371 156.004 263.473 145.851 202.32C140.774 171.742 140.521 144.626 145.369 122.77C150.215 100.916 160.15 84.3602 175.419 74.8191Z" stroke="url(#paint67_linear_6_48384)"/>
<path d="M180.125 71.9354C195.558 62.6624 214.819 61.3269 236.492 66.9298C258.166 72.5334 282.213 85.0685 307.153 103.474C357.032 140.283 410.405 200.51 455.425 275.437C500.445 350.363 528.565 425.763 537.649 487.084C542.191 517.746 541.97 544.862 536.742 566.631C531.515 588.397 521.293 604.776 505.86 614.049C490.427 623.322 471.165 624.658 449.493 619.055C427.818 613.452 403.772 600.916 378.832 582.511C328.954 545.701 275.581 485.475 230.561 410.549C185.54 335.622 157.42 260.222 148.336 198.901C143.794 168.239 144.014 141.123 149.242 119.355C154.47 97.5884 164.692 81.2085 180.125 71.9354Z" stroke="url(#paint68_linear_6_48384)"/>
<path d="M184.881 69.1344C200.473 60.1322 219.755 59.133 241.326 65.1133C262.899 71.0943 286.723 84.0472 311.339 102.885C360.567 140.56 412.881 201.709 456.587 277.409C500.292 353.11 527.092 428.989 535.105 490.459C539.111 521.196 538.417 548.304 532.81 569.978C527.203 591.65 516.697 607.848 501.105 616.851C485.512 625.853 466.23 626.853 444.659 620.872C423.085 614.891 399.262 601.938 374.647 583.1C325.418 545.426 273.105 484.277 229.399 408.576C185.693 332.876 158.893 256.996 150.88 195.526C146.874 164.79 147.568 137.681 153.175 116.007C158.781 94.3358 169.288 78.1368 184.881 69.1344Z" stroke="url(#paint69_linear_6_48384)"/>
<path d="M189.684 66.4164C205.431 57.6876 224.727 57.0252 246.191 63.381C267.657 69.7376 291.251 83.1043 315.534 102.369C364.098 140.897 415.336 202.95 457.714 279.402C500.092 355.853 525.563 432.189 532.502 493.789C535.971 524.591 534.804 551.683 528.819 573.256C522.835 594.826 512.048 610.839 496.301 619.568C480.554 628.297 461.257 628.96 439.793 622.604C418.328 616.247 394.734 602.88 370.451 583.616C321.888 545.088 270.65 483.035 228.272 406.584C185.894 330.132 160.422 253.796 153.483 192.195C150.014 161.394 151.181 134.301 157.165 112.729C163.149 91.1585 173.937 75.1453 189.684 66.4164Z" stroke="url(#paint70_linear_6_48384)"/>
<path d="M194.534 63.7828C210.432 55.3302 229.736 55.0046 251.086 61.7341C272.437 68.4643 295.795 82.2408 319.738 101.926C367.621 141.296 417.769 204.234 458.806 281.413C499.844 358.593 523.979 435.361 529.841 497.074C532.773 527.931 531.132 554.999 524.772 576.464C518.413 597.927 507.348 613.749 491.451 622.202C475.554 630.654 456.248 630.98 434.899 624.251C413.547 617.52 390.19 603.743 366.248 584.058C318.364 544.689 268.216 481.751 227.179 404.572C186.142 327.392 162.006 250.623 156.144 188.911C153.213 158.053 154.852 130.986 161.212 109.521C167.571 88.058 178.637 72.2356 194.534 63.7828Z" stroke="url(#paint71_linear_6_48384)"/>
<path d="M199.43 61.2346C215.472 53.0608 234.78 53.0721 256.008 60.1732C277.239 67.275 300.353 81.457 323.948 101.557C371.138 141.757 420.18 205.56 459.864 283.444C499.547 361.328 522.339 438.506 527.124 500.312C529.516 531.215 527.404 558.251 520.67 579.601C513.937 600.95 502.598 616.576 486.555 624.75C470.513 632.924 451.205 632.913 429.976 625.812C408.745 618.71 385.632 604.528 362.037 584.427C314.848 544.228 265.806 480.425 226.122 402.541C186.438 324.657 163.646 247.479 158.862 185.673C156.469 154.77 158.581 127.735 165.314 106.384C172.047 85.0356 183.388 69.4086 199.43 61.2346Z" stroke="url(#paint72_linear_6_48384)"/>
<path d="M204.369 58.7719C220.552 50.8792 239.856 51.2276 260.957 58.698C282.061 66.1693 304.924 80.7525 328.165 101.262C374.646 142.278 422.566 206.928 460.885 285.493C499.203 364.058 520.645 441.621 524.35 503.501C526.203 534.442 523.619 561.436 516.514 582.666C509.409 603.893 497.799 619.32 481.616 627.213C465.434 635.105 446.129 634.757 425.027 627.287C403.923 619.816 381.061 605.232 357.82 584.723C311.34 543.706 263.419 479.057 225.101 400.493C186.782 321.928 165.34 244.363 161.635 182.484C159.782 151.543 162.365 124.549 169.471 103.319C176.575 82.0913 188.186 66.6647 204.369 58.7719Z" stroke="url(#paint73_linear_6_48384)"/>
<path d="M209.351 56.3957C225.668 48.7867 244.964 49.4718 265.931 57.3094C286.902 65.1479 309.506 80.1279 332.386 101.039C378.144 142.861 424.929 208.337 461.871 287.559C498.812 366.781 518.897 444.707 521.521 506.641C522.834 537.61 519.779 564.555 512.304 585.658C504.83 606.758 492.952 621.979 476.635 629.588C460.317 637.198 441.021 636.513 420.053 628.675C399.083 620.837 376.479 605.856 353.599 584.945C307.842 543.123 261.057 477.648 224.115 398.426C187.173 319.204 167.089 241.278 164.464 179.343C163.152 148.374 166.205 121.43 173.68 100.327C181.154 79.2265 193.033 64.0048 209.351 56.3957Z" stroke="url(#paint74_linear_6_48384)"/>
<path d="M214.373 54.1073C230.821 46.7842 250.101 47.8061 270.929 56.0084C291.759 64.2117 314.099 79.5839 336.61 100.892C381.631 143.505 427.266 209.788 462.82 289.642C498.373 369.497 517.095 447.761 518.638 509.733C519.41 540.719 515.885 567.607 508.043 588.576C500.202 609.543 488.061 624.554 471.613 631.878C455.164 639.201 435.883 638.179 415.055 629.977C394.225 621.774 371.886 606.401 349.375 585.093C304.354 542.479 258.719 476.198 223.166 396.343C187.612 316.489 168.891 238.224 167.347 176.252C166.576 145.266 170.099 118.378 177.941 97.4093C185.782 76.4426 197.925 61.4305 214.373 54.1073Z" stroke="url(#paint75_linear_6_48384)"/>
<path d="M219.434 51.9064C236.007 44.8715 255.267 46.2297 275.949 54.7942C296.632 63.3598 318.7 79.1196 340.836 100.817C385.107 144.21 429.578 211.279 463.733 291.742C497.887 372.204 515.24 450.784 515.701 512.773C515.932 543.768 511.939 570.59 503.732 591.419C495.526 612.245 483.125 627.043 466.551 634.078C449.978 641.113 430.718 639.755 410.036 631.191C389.352 622.625 367.285 606.865 345.149 585.168C300.879 541.775 256.407 474.706 222.253 394.244C188.099 313.781 170.746 235.201 170.284 173.212C170.053 142.217 174.045 115.395 182.252 94.566C190.458 73.7393 202.86 58.9415 219.434 51.9064Z" stroke="url(#paint76_linear_6_48384)"/>
<path d="M224.533 49.7951C241.227 43.0505 260.46 44.7445 280.989 53.6687C301.52 62.594 323.309 78.7365 345.063 100.817C388.57 144.976 431.864 212.811 464.609 293.857C497.354 374.904 513.332 453.774 512.712 515.762C512.402 546.756 507.941 573.505 499.372 594.187C490.804 614.867 478.146 629.446 461.452 636.191C444.759 642.936 425.525 641.242 404.996 632.318C384.465 623.392 362.676 607.249 340.922 585.169C297.416 541.01 254.122 473.176 221.377 392.129C188.632 311.083 172.653 232.212 173.274 170.224C173.584 139.23 178.043 112.482 186.612 91.7992C195.18 71.1189 207.839 56.5398 224.533 49.7951Z" stroke="url(#paint77_linear_6_48384)"/>
<path d="M229.668 47.7718C246.477 41.3196 265.677 43.349 286.047 52.6302C306.42 61.9124 327.924 78.4327 349.29 100.889C392.019 145.801 434.122 214.381 465.448 295.987C496.773 377.592 511.373 456.73 509.671 518.697C508.82 549.681 503.893 576.348 494.964 596.877C486.037 617.405 473.126 631.761 456.317 638.213C439.508 644.665 420.307 642.636 399.937 633.355C379.565 624.073 358.061 607.552 336.696 585.096C293.967 540.184 251.863 471.604 220.538 389.999C189.212 308.393 174.613 229.255 176.315 167.288C177.166 136.304 182.091 109.638 191.02 89.1078C199.948 68.5801 212.859 54.2241 229.668 47.7718Z" stroke="url(#paint78_linear_6_48384)"/>
<path d="M234.838 45.8392C251.757 39.6813 270.919 42.0455 291.124 51.6808C311.331 61.3171 332.544 78.2102 353.514 101.036C395.453 146.687 436.353 215.991 466.249 298.131C496.146 380.271 509.362 459.651 506.579 521.579C505.187 552.544 499.796 579.12 490.51 599.491C481.226 619.86 468.067 633.988 451.148 640.146C434.229 646.304 415.066 643.94 394.861 634.305C374.654 624.669 353.441 607.775 332.471 584.949C290.533 539.298 249.633 469.995 219.736 387.855C189.84 305.715 176.623 226.334 179.406 164.406C180.798 133.441 186.189 106.865 195.474 86.4944C204.759 66.1256 217.919 51.9972 234.838 45.8392Z" stroke="url(#paint79_linear_6_48384)"/>
<path d="M240.04 43.9968C257.064 38.1351 276.182 40.8334 296.216 50.8198C316.252 60.8074 337.166 78.0681 357.735 101.257C398.871 147.632 438.555 217.64 467.014 300.289C495.472 382.938 507.301 462.537 503.437 524.407C501.505 555.343 495.651 581.821 486.011 602.027C476.373 622.23 462.969 636.127 445.945 641.988C428.921 647.85 409.803 645.152 389.769 635.166C369.733 625.178 348.819 607.917 328.25 584.728C287.115 538.353 247.43 468.346 218.972 385.697C190.514 303.048 178.684 223.448 182.548 161.578C184.48 130.642 190.333 104.164 199.973 83.9588C209.612 63.7552 223.016 49.8586 240.04 43.9968Z" stroke="url(#paint80_linear_6_48384)"/>
<path d="M245.274 42.2457C262.397 36.682 281.465 39.7136 301.322 50.0481C321.181 60.3838 341.791 78.0069 361.952 101.551C402.272 148.637 440.728 219.327 467.74 302.46C494.752 385.594 505.189 465.386 500.247 527.179C497.775 558.077 491.46 584.449 481.469 604.483C471.479 624.516 457.835 638.176 440.711 643.74C423.588 649.304 404.519 646.272 384.663 635.938C364.804 625.602 344.194 607.978 324.034 584.434C283.714 537.348 245.257 466.659 218.246 383.526C191.234 300.393 180.796 220.599 185.739 158.806C188.21 127.908 194.525 101.537 204.516 81.5023C214.505 61.47 228.15 47.8095 245.274 42.2457Z" stroke="url(#paint81_linear_6_48384)"/>
<path d="M250.538 40.5862C267.756 35.3222 286.768 38.6861 306.441 49.3656C326.116 60.0463 346.416 78.0264 366.162 101.919C405.655 149.702 442.872 221.052 468.428 304.644C493.985 388.236 503.029 468.199 497.008 529.896C493.998 560.746 487.223 587.003 476.884 606.86C466.546 626.715 452.666 640.135 435.448 645.399C418.23 650.664 399.217 647.3 379.544 636.62C359.868 625.94 339.57 607.959 319.823 584.067C280.331 536.284 243.114 464.935 217.557 381.343C192.001 297.751 182.957 217.787 188.977 156.09C191.988 125.24 198.761 98.9825 209.1 79.1255C219.438 59.2706 233.32 45.8503 250.538 40.5862Z" stroke="url(#paint82_linear_6_48384)"/>
<path d="M255.829 39.0184C273.137 34.0557 292.087 37.7509 311.571 48.772C331.057 59.7945 351.039 78.1262 370.366 102.359C409.018 150.824 444.985 222.813 469.079 306.838C493.172 390.864 500.819 470.972 493.723 532.555C490.174 563.348 482.942 589.483 472.258 609.157C461.576 628.828 447.463 642.004 430.156 646.967C412.848 651.929 393.897 648.235 374.414 637.213C354.928 626.191 334.946 607.859 315.619 583.626C276.967 535.161 241.001 463.173 216.907 379.147C192.813 295.122 185.166 215.013 192.262 153.43C195.811 122.637 203.042 96.5021 213.726 76.8286C224.409 57.1572 238.522 43.9812 255.829 39.0184Z" stroke="url(#paint83_linear_6_48384)"/>
<path d="M261.148 37.5435C278.539 32.8836 297.422 36.9089 316.71 48.2685C336.001 59.6293 355.661 78.307 374.562 102.874C412.362 152.006 447.067 224.611 469.69 309.044C492.314 393.477 498.562 473.707 490.392 535.157C486.306 565.883 478.619 591.888 467.594 611.372C456.569 630.854 442.229 643.782 424.837 648.442C407.446 653.102 388.562 649.076 369.274 637.717C349.983 626.356 330.324 607.678 311.424 583.111C273.623 533.979 238.919 461.374 216.295 376.942C193.671 292.508 187.424 212.278 195.594 150.828C199.679 120.102 207.365 94.0972 218.391 74.6132C229.415 55.1311 243.757 42.2034 261.148 37.5435Z" stroke="url(#paint84_linear_6_48384)"/>
<path d="M266.491 36.1618C283.961 31.8062 302.771 36.1604 321.858 47.8549C340.947 59.5507 360.278 78.5686 378.747 103.462C415.685 153.246 449.117 226.446 470.264 311.261C491.41 396.076 496.257 476.402 487.015 537.7C482.395 568.35 474.255 594.217 462.891 613.506C451.528 632.793 436.964 645.468 419.494 649.824C402.024 654.179 383.214 649.825 364.126 638.131C345.037 626.435 325.707 607.417 307.238 582.524C270.301 532.74 236.869 459.54 215.722 374.725C194.575 289.91 189.729 209.583 198.97 148.285C203.591 117.635 211.73 91.7683 223.094 72.4796C234.456 53.193 249.021 40.5176 266.491 36.1618Z" stroke="url(#paint85_linear_6_48384)"/>
<path d="M271.858 34.8732C289.401 30.8231 308.132 35.505 327.012 47.5308C345.894 59.558 364.89 78.9103 382.922 104.122C418.985 154.543 451.135 228.316 470.798 313.487C490.461 398.658 493.905 479.057 483.595 540.184C478.44 570.749 469.85 596.47 458.151 615.557C446.454 634.642 431.671 647.062 414.128 651.112C396.584 655.162 377.852 650.48 358.972 638.454C340.09 626.427 321.095 607.075 303.063 581.863C267 531.442 234.851 457.67 215.188 372.499C195.524 287.328 192.08 206.928 202.39 145.801C207.545 115.237 216.134 89.5155 227.833 70.4281C239.531 51.3427 254.314 38.9234 271.858 34.8732Z" stroke="url(#paint86_linear_6_48384)"/>
<path d="M277.246 33.6782C294.857 29.9349 313.504 34.943 332.171 47.2964C350.841 59.6513 369.496 79.3323 387.085 104.855C422.263 155.898 453.12 230.22 471.293 315.721C489.467 401.223 491.507 481.669 480.132 542.607C474.445 573.077 465.407 598.645 453.377 617.525C441.348 636.403 426.351 648.562 408.739 652.306C391.128 656.049 372.481 651.041 353.813 638.688C335.144 626.333 316.489 606.652 298.9 581.129C263.723 530.086 232.866 455.765 214.692 370.264C196.518 284.762 194.478 204.315 205.853 143.377C211.541 112.907 220.577 87.3396 232.607 68.4593C244.636 49.581 259.635 37.4216 277.246 33.6782Z" stroke="url(#paint87_linear_6_48384)"/>
<path d="M282.654 32.5783C300.328 29.1429 318.884 34.4756 337.333 47.153C355.784 59.8318 374.093 79.8354 391.235 105.661C425.516 157.31 455.071 232.16 471.75 317.965C488.429 403.771 489.064 484.241 476.628 544.971C470.409 575.337 460.927 600.743 448.569 619.41C436.212 638.075 421.005 649.971 403.331 653.407C385.657 656.842 367.1 651.51 348.651 638.832C330.2 626.153 311.892 606.149 294.751 580.324C260.47 528.675 230.915 453.826 214.236 368.021C197.557 282.215 196.921 201.744 209.357 141.014C215.576 110.648 225.058 85.2425 237.415 66.5751C249.772 47.9095 264.98 36.0137 282.654 32.5783Z" stroke="url(#paint88_linear_6_48384)"/>
<path d="M288.081 31.5725C305.812 28.4461 324.272 34.1019 342.497 47.0993C360.724 60.0982 378.681 80.4183 395.369 106.539C428.744 158.779 456.988 234.132 472.167 320.216C487.346 406.299 486.577 486.768 473.082 547.272C466.335 577.525 456.411 602.762 443.729 621.211C431.048 639.657 415.636 651.286 397.904 654.412C380.173 657.539 361.712 651.883 343.487 638.886C325.26 625.887 307.304 605.567 290.616 579.446C257.242 527.206 228.997 451.853 213.818 365.77C198.64 279.686 199.408 199.217 212.903 138.713C219.65 108.46 229.574 83.2236 242.256 64.7746C254.936 46.3276 270.35 34.699 288.081 31.5725Z" stroke="url(#paint89_linear_6_48384)"/>
<path d="M293.524 30.6615C311.307 27.845 329.666 33.8221 347.661 47.1356C365.659 60.4507 383.259 81.081 399.488 107.489C431.946 160.303 458.871 236.138 472.545 322.474C486.219 408.809 484.046 489.252 469.497 549.511C462.223 579.642 451.86 604.701 438.858 622.926C425.857 641.149 410.244 652.507 392.461 655.323C374.678 658.14 356.318 652.163 338.323 638.849C320.326 625.534 302.727 604.904 286.497 578.496C254.04 525.682 227.115 449.847 213.441 363.512C199.766 277.176 201.939 196.733 216.488 136.473C223.762 106.343 234.125 81.2836 247.127 63.0588C260.127 44.8359 275.741 33.4781 293.524 30.6615Z" stroke="url(#paint90_linear_6_48384)"/>
<path d="M298.983 29.8459C316.812 27.3402 335.064 33.6368 352.824 47.2624C370.586 60.8895 387.823 81.8238 403.589 108.511C435.12 161.884 460.718 238.177 472.883 324.738C485.048 411.299 481.472 491.692 465.874 551.688C458.075 581.687 447.276 606.562 433.958 624.557C420.641 642.55 404.832 653.633 387.003 656.139C369.173 658.645 350.92 652.349 333.16 638.723C315.398 625.096 298.162 604.161 282.396 577.474C250.865 524.102 225.268 447.809 213.102 361.248C200.937 274.687 204.513 194.293 220.111 134.297C227.911 104.298 238.709 79.4236 252.027 61.4285C265.343 43.4353 281.153 32.3517 298.983 29.8459Z" stroke="url(#paint91_linear_6_48384)"/>
<path d="M304.455 29.1252C322.325 26.931 340.464 33.5452 357.984 47.4786C375.506 61.4136 392.375 82.6456 407.672 109.604C438.267 163.519 462.529 240.247 473.182 327.007C483.835 413.767 478.856 494.086 462.213 553.8C453.891 583.659 442.66 608.341 429.03 626.101C415.401 643.859 399.401 654.665 381.531 656.859C363.66 659.053 345.52 652.439 328 638.506C310.479 624.571 293.611 603.339 278.313 576.38C247.718 522.466 223.456 445.738 212.803 358.978C202.151 272.218 207.13 191.899 223.772 132.184C232.094 102.326 243.325 77.6434 256.955 59.8835C270.583 42.1254 286.584 31.3194 304.455 29.1252Z" stroke="url(#paint92_linear_6_48384)"/>
<path d="M309.938 28.5007C327.844 26.6187 345.865 33.5485 363.139 47.7856C380.415 62.0243 396.911 83.5474 411.736 110.769C441.385 165.209 464.304 242.35 473.441 329.282C482.578 416.215 476.198 496.434 458.516 555.849C449.674 585.558 438.014 610.04 424.076 627.56C410.139 645.077 393.953 655.602 376.047 657.484C358.141 659.366 340.119 652.437 322.845 638.2C305.57 623.961 289.074 602.437 274.249 575.216C244.6 520.776 221.681 443.636 212.544 356.704C203.407 269.771 209.787 189.551 227.47 130.136C236.311 100.427 247.971 75.9447 261.909 58.4253C275.845 40.9078 292.032 30.3827 309.938 28.5007Z" stroke="url(#paint93_linear_6_48384)"/>
<path d="M315.432 27.972C333.368 26.4029 351.265 33.6461 368.288 48.1825C385.313 62.7205 401.431 84.5283 415.778 112.004C444.473 166.954 466.042 244.482 473.661 331.561C481.279 418.64 473.5 498.736 454.783 557.833C445.425 587.383 433.339 611.658 419.097 628.932C404.857 646.203 388.49 656.444 370.553 658.014C352.617 659.583 334.719 652.34 317.696 637.803C300.672 623.265 284.555 601.457 270.207 573.982C241.513 519.032 219.943 441.504 212.325 354.425C204.706 267.346 212.485 187.25 231.202 128.152C240.561 98.6027 252.646 74.3273 266.887 57.0539C281.127 39.7822 297.496 29.5412 315.432 27.972Z" stroke="url(#paint94_linear_6_48384)"/>
<path d="M320.934 27.5393C338.895 26.2834 356.663 33.8378 373.429 48.6691C390.198 63.502 405.932 85.5878 419.799 113.31C447.53 168.752 467.743 246.645 473.84 333.844C479.938 421.042 470.762 500.99 451.017 559.752C441.144 589.134 428.636 613.194 414.095 630.217C399.556 647.237 383.012 657.191 365.051 658.447C347.09 659.703 329.322 652.149 312.555 637.317C295.787 622.484 280.053 600.398 266.187 572.676C238.456 517.234 218.243 439.342 212.145 352.143C206.048 264.945 215.223 184.996 234.969 126.234C244.841 96.8525 257.348 72.7917 271.889 55.7694C286.429 38.7489 302.973 28.7952 320.934 27.5393Z" stroke="url(#paint95_linear_6_48384)"/>
<path d="M326.443 27.2017C344.423 26.2594 362.056 34.1228 378.561 49.2444C395.068 64.3678 410.415 86.7247 423.795 114.685C450.555 170.602 469.405 248.836 473.98 336.128C478.555 423.42 467.985 503.195 447.217 561.603C436.833 590.809 423.907 614.647 409.072 631.413C394.237 648.177 377.523 657.841 359.543 658.783C341.562 659.725 323.928 651.862 307.423 636.74C290.916 621.617 275.57 599.26 262.19 571.3C235.431 515.383 216.58 437.149 212.005 349.858C207.431 262.566 218 182.79 238.768 124.381C249.152 95.1763 262.077 71.3375 276.913 54.5716C291.747 37.8074 308.463 28.144 326.443 27.2017Z" stroke="url(#paint96_linear_6_48384)"/>
<path d="M331.957 26.9607C349.95 26.3325 367.444 34.5024 383.683 49.9097C399.923 65.3189 414.877 87.9403 427.768 116.129C453.547 172.505 471.029 251.057 474.08 338.415C477.13 425.773 465.17 505.352 443.386 563.389C432.494 592.408 419.154 616.018 404.028 632.522C388.903 649.025 372.022 658.395 354.029 659.024C336.035 659.652 318.541 651.482 302.302 636.075C286.061 620.666 271.108 598.044 258.218 569.855C232.439 513.479 214.956 434.929 211.906 347.57C208.855 260.212 220.815 180.633 242.599 122.596C253.491 93.5762 266.831 69.9665 281.956 53.4621C297.081 36.9594 313.963 27.5891 331.957 26.9607Z" stroke="url(#paint97_linear_6_48384)"/>
<path d="M337.474 26.8163C355.476 26.5021 372.824 34.9761 388.791 50.6645C404.76 66.3547 419.318 89.2337 431.714 117.643C456.505 174.461 472.614 253.305 474.14 340.704C475.665 428.102 462.318 507.46 439.524 565.107C428.127 593.933 414.377 617.306 398.966 633.544C383.555 649.78 366.513 658.854 348.512 659.168C330.509 659.482 313.16 651.009 297.193 635.32C281.224 619.63 266.668 596.751 254.271 568.341C229.48 511.524 213.371 432.68 211.846 345.282C210.32 257.884 223.667 178.525 246.461 120.877C257.858 92.0521 271.607 68.6789 287.019 52.441C302.429 36.2047 319.472 27.1305 337.474 26.8163Z" stroke="url(#paint98_linear_6_48384)"/>
<path d="M342.993 26.7681C360.997 26.7681 378.195 35.5436 393.886 51.5083C409.579 67.4748 423.735 90.6044 435.633 119.226C459.429 176.467 474.16 255.581 474.16 342.993C474.16 430.404 459.429 509.517 435.633 566.758C423.735 595.38 409.579 618.51 393.886 634.476C378.195 650.441 360.997 659.216 342.993 659.216C324.988 659.216 307.789 650.441 292.098 634.476C276.405 618.51 262.25 595.38 250.352 566.758C226.556 509.517 211.826 430.404 211.826 342.993C211.826 255.581 226.556 176.467 250.352 119.226C262.25 90.6045 276.405 67.4748 292.098 51.5083C307.789 35.5435 324.988 26.7681 342.993 26.7681Z" stroke="url(#paint99_linear_6_48384)"/>
<defs>
<linearGradient id="paint0_linear_6_48384" x1="355.658" y1="418.77" x2="331.158" y2="264.082" gradientUnits="userSpaceOnUse">
<stop stop-color="#FF1CF7"/>
<stop offset="1" stop-color="#00F0FF"/>
</linearGradient>
<linearGradient id="paint1_linear_6_48384" x1="354.334" y1="418.98" x2="332.537" y2="263.888" gradientUnits="userSpaceOnUse">
<stop stop-color="#FF1CF7"/>
<stop offset="1" stop-color="#00F0FF"/>
</linearGradient>
<linearGradient id="paint2_linear_6_48384" x1="353.006" y1="419.166" x2="333.919" y2="263.717" gradientUnits="userSpaceOnUse">
<stop stop-color="#FF1CF7"/>
<stop offset="1" stop-color="#00F0FF"/>
</linearGradient>
<linearGradient id="paint3_linear_6_48384" x1="351.675" y1="419.33" x2="335.304" y2="263.571" gradientUnits="userSpaceOnUse">
<stop stop-color="#FF1CF7"/>
<stop offset="1" stop-color="#00F0FF"/>
</linearGradient>
<linearGradient id="paint4_linear_6_48384" x1="350.341" y1="419.47" x2="336.691" y2="263.449" gradientUnits="userSpaceOnUse">
<stop stop-color="#FF1CF7"/>
<stop offset="1" stop-color="#00F0FF"/>
</linearGradient>
<linearGradient id="paint5_linear_6_48384" x1="349.006" y1="419.586" x2="338.081" y2="263.351" gradientUnits="userSpaceOnUse">
<stop stop-color="#FF1CF7"/>
<stop offset="1" stop-color="#00F0FF"/>
</linearGradient>
<linearGradient id="paint6_linear_6_48384" x1="347.668" y1="419.679" x2="339.471" y2="263.277" gradientUnits="userSpaceOnUse">
<stop stop-color="#FF1CF7"/>
<stop offset="1" stop-color="#00F0FF"/>
</linearGradient>
<linearGradient id="paint7_linear_6_48384" x1="346.329" y1="419.749" x2="340.863" y2="263.227" gradientUnits="userSpaceOnUse">
<stop stop-color="#FF1CF7"/>
<stop offset="1" stop-color="#00F0FF"/>
</linearGradient>
<linearGradient id="paint8_linear_6_48384" x1="344.989" y1="419.795" x2="342.255" y2="263.202" gradientUnits="userSpaceOnUse">
<stop stop-color="#FF1CF7"/>
<stop offset="1" stop-color="#00F0FF"/>
</linearGradient>
<linearGradient id="paint9_linear_6_48384" x1="343.648" y1="419.819" x2="343.648" y2="263.202" gradientUnits="userSpaceOnUse">
<stop stop-color="#FF1CF7"/>
<stop offset="1" stop-color="#00F0FF"/>
</linearGradient>
<linearGradient id="paint10_linear_6_48384" x1="342.307" y1="419.819" x2="345.041" y2="263.226" gradientUnits="userSpaceOnUse">
<stop stop-color="#FF1CF7"/>
<stop offset="1" stop-color="#00F0FF"/>
</linearGradient>
<linearGradient id="paint11_linear_6_48384" x1="340.966" y1="419.795" x2="346.432" y2="263.273" gradientUnits="userSpaceOnUse">
<stop stop-color="#FF1CF7"/>
<stop offset="1" stop-color="#00F0FF"/>
</linearGradient>
<linearGradient id="paint12_linear_6_48384" x1="339.626" y1="419.748" x2="347.823" y2="263.345" gradientUnits="userSpaceOnUse">
<stop stop-color="#FF1CF7"/>
<stop offset="1" stop-color="#00F0FF"/>
</linearGradient>
<linearGradient id="paint13_linear_6_48384" x1="338.287" y1="419.677" x2="349.212" y2="263.442" gradientUnits="userSpaceOnUse">
<stop stop-color="#FF1CF7"/>
<stop offset="1" stop-color="#00F0FF"/>
</linearGradient>
<linearGradient id="paint14_linear_6_48384" x1="336.95" y1="419.583" x2="350.6" y2="263.563" gradientUnits="userSpaceOnUse">
<stop stop-color="#FF1CF7"/>
<stop offset="1" stop-color="#00F0FF"/>
</linearGradient>
<linearGradient id="paint15_linear_6_48384" x1="335.614" y1="419.466" x2="351.985" y2="263.708" gradientUnits="userSpaceOnUse">
<stop stop-color="#FF1CF7"/>
<stop offset="1" stop-color="#00F0FF"/>
</linearGradient>
<linearGradient id="paint16_linear_6_48384" x1="334.28" y1="419.326" x2="353.367" y2="263.876" gradientUnits="userSpaceOnUse">
<stop stop-color="#FF1CF7"/>
<stop offset="1" stop-color="#00F0FF"/>
</linearGradient>
<linearGradient id="paint17_linear_6_48384" x1="332.95" y1="419.162" x2="354.746" y2="264.07" gradientUnits="userSpaceOnUse">
<stop stop-color="#FF1CF7"/>
<stop offset="1" stop-color="#00F0FF"/>
</linearGradient>
<linearGradient id="paint18_linear_6_48384" x1="331.622" y1="418.975" x2="356.122" y2="264.287" gradientUnits="userSpaceOnUse">
<stop stop-color="#FF1CF7"/>
<stop offset="1" stop-color="#00F0FF"/>
</linearGradient>
<linearGradient id="paint19_linear_6_48384" x1="330.298" y1="418.765" x2="357.494" y2="264.528" gradientUnits="userSpaceOnUse">
<stop stop-color="#FF1CF7"/>
<stop offset="1" stop-color="#00F0FF"/>
</linearGradient>
<linearGradient id="paint20_linear_6_48384" x1="328.977" y1="418.532" x2="358.861" y2="264.793" gradientUnits="userSpaceOnUse">
<stop stop-color="#FF1CF7"/>
<stop offset="1" stop-color="#00F0FF"/>
</linearGradient>
<linearGradient id="paint21_linear_6_48384" x1="327.661" y1="418.276" x2="360.223" y2="265.082" gradientUnits="userSpaceOnUse">
<stop stop-color="#FF1CF7"/>
<stop offset="1" stop-color="#00F0FF"/>
</linearGradient>
<linearGradient id="paint22_linear_6_48384" x1="326.349" y1="417.997" x2="361.58" y2="265.394" gradientUnits="userSpaceOnUse">
<stop stop-color="#FF1CF7"/>
<stop offset="1" stop-color="#00F0FF"/>
</linearGradient>
<linearGradient id="paint23_linear_6_48384" x1="325.043" y1="417.695" x2="362.932" y2="265.731" gradientUnits="userSpaceOnUse">
<stop stop-color="#FF1CF7"/>
<stop offset="1" stop-color="#00F0FF"/>
</linearGradient>
<linearGradient id="paint24_linear_6_48384" x1="323.742" y1="417.371" x2="364.277" y2="266.09" gradientUnits="userSpaceOnUse">
<stop stop-color="#FF1CF7"/>
<stop offset="1" stop-color="#00F0FF"/>
</linearGradient>
<linearGradient id="paint25_linear_6_48384" x1="322.447" y1="417.023" x2="365.616" y2="266.474" gradientUnits="userSpaceOnUse">
<stop stop-color="#FF1CF7"/>
<stop offset="1" stop-color="#00F0FF"/>
</linearGradient>
<linearGradient id="paint26_linear_6_48384" x1="321.158" y1="416.654" x2="366.948" y2="266.88" gradientUnits="userSpaceOnUse">
<stop stop-color="#FF1CF7"/>
<stop offset="1" stop-color="#00F0FF"/>
</linearGradient>
<linearGradient id="paint27_linear_6_48384" x1="319.875" y1="416.261" x2="368.273" y2="267.309" gradientUnits="userSpaceOnUse">
<stop stop-color="#FF1CF7"/>
<stop offset="1" stop-color="#00F0FF"/>
</linearGradient>
<linearGradient id="paint28_linear_6_48384" x1="318.6" y1="415.846" x2="369.59" y2="267.762" gradientUnits="userSpaceOnUse">
<stop stop-color="#FF1CF7"/>
<stop offset="1" stop-color="#00F0FF"/>
</linearGradient>
<linearGradient id="paint29_linear_6_48384" x1="317.332" y1="415.41" x2="370.899" y2="268.238" gradientUnits="userSpaceOnUse">
<stop stop-color="#FF1CF7"/>
<stop offset="1" stop-color="#00F0FF"/>
</linearGradient>
<linearGradient id="paint30_linear_6_48384" x1="316.073" y1="414.951" x2="372.199" y2="268.737" gradientUnits="userSpaceOnUse">
<stop stop-color="#FF1CF7"/>
<stop offset="1" stop-color="#00F0FF"/>
</linearGradient>
<linearGradient id="paint31_linear_6_48384" x1="314.821" y1="414.47" x2="373.49" y2="269.258" gradientUnits="userSpaceOnUse">
<stop stop-color="#FF1CF7"/>
<stop offset="1" stop-color="#00F0FF"/>
</linearGradient>
<linearGradient id="paint32_linear_6_48384" x1="313.578" y1="413.968" x2="374.773" y2="269.801" gradientUnits="userSpaceOnUse">
<stop stop-color="#FF1CF7"/>
<stop offset="1" stop-color="#00F0FF"/>
</linearGradient>
<linearGradient id="paint33_linear_6_48384" x1="312.343" y1="413.443" x2="376.045" y2="270.367" gradientUnits="userSpaceOnUse">
<stop stop-color="#FF1CF7"/>
<stop offset="1" stop-color="#00F0FF"/>
</linearGradient>
<linearGradient id="paint34_linear_6_48384" x1="311.119" y1="412.897" x2="377.308" y2="270.954" gradientUnits="userSpaceOnUse">
<stop stop-color="#FF1CF7"/>
<stop offset="1" stop-color="#00F0FF"/>
</linearGradient>
<linearGradient id="paint35_linear_6_48384" x1="309.903" y1="412.331" x2="378.56" y2="271.565" gradientUnits="userSpaceOnUse">
<stop stop-color="#FF1CF7"/>
<stop offset="1" stop-color="#00F0FF"/>
</linearGradient>
<linearGradient id="paint36_linear_6_48384" x1="308.698" y1="411.743" x2="379.801" y2="272.196" gradientUnits="userSpaceOnUse">
<stop stop-color="#FF1CF7"/>
<stop offset="1" stop-color="#00F0FF"/>
</linearGradient>
<linearGradient id="paint37_linear_6_48384" x1="311.478" y1="427.074" x2="385.005" y2="288.79" gradientUnits="userSpaceOnUse">
<stop stop-color="#FF1CF7"/>
<stop offset="1" stop-color="#00F0FF"/>
</linearGradient>
<linearGradient id="paint38_linear_6_48384" x1="306.32" y1="410.504" x2="382.249" y2="273.524" gradientUnits="userSpaceOnUse">
<stop stop-color="#FF1CF7"/>
<stop offset="1" stop-color="#00F0FF"/>
</linearGradient>
<linearGradient id="paint39_linear_6_48384" x1="305.147" y1="409.854" x2="383.456" y2="274.22" gradientUnits="userSpaceOnUse">
<stop stop-color="#FF1CF7"/>
<stop offset="1" stop-color="#00F0FF"/>
</linearGradient>
<linearGradient id="paint40_linear_6_48384" x1="303.986" y1="409.183" x2="384.65" y2="274.936" gradientUnits="userSpaceOnUse">
<stop stop-color="#FF1CF7"/>
<stop offset="1" stop-color="#00F0FF"/>
</linearGradient>
<linearGradient id="paint41_linear_6_48384" x1="302.837" y1="408.492" x2="385.831" y2="275.673" gradientUnits="userSpaceOnUse">
<stop stop-color="#FF1CF7"/>
<stop offset="1" stop-color="#00F0FF"/>
</linearGradient>
<linearGradient id="paint42_linear_6_48384" x1="301.7" y1="407.781" x2="386.999" y2="276.431" gradientUnits="userSpaceOnUse">
<stop stop-color="#FF1CF7"/>
<stop offset="1" stop-color="#00F0FF"/>
</linearGradient>
<linearGradient id="paint43_linear_6_48384" x1="300.575" y1="407.051" x2="388.154" y2="277.209" gradientUnits="userSpaceOnUse">
<stop stop-color="#FF1CF7"/>
<stop offset="1" stop-color="#00F0FF"/>
</linearGradient>
<linearGradient id="paint44_linear_6_48384" x1="299.464" y1="406.301" x2="389.296" y2="278.008" gradientUnits="userSpaceOnUse">
<stop stop-color="#FF1CF7"/>
<stop offset="1" stop-color="#00F0FF"/>
</linearGradient>
<linearGradient id="paint45_linear_6_48384" x1="298.366" y1="405.532" x2="390.423" y2="278.826" gradientUnits="userSpaceOnUse">
<stop stop-color="#FF1CF7"/>
<stop offset="1" stop-color="#00F0FF"/>
</linearGradient>
<linearGradient id="paint46_linear_6_48384" x1="297.281" y1="404.743" x2="391.535" y2="279.664" gradientUnits="userSpaceOnUse">
<stop stop-color="#FF1CF7"/>
<stop offset="1" stop-color="#00F0FF"/>
</linearGradient>
<linearGradient id="paint47_linear_6_48384" x1="296.21" y1="403.936" x2="392.633" y2="280.52" gradientUnits="userSpaceOnUse">
<stop stop-color="#FF1CF7"/>
<stop offset="1" stop-color="#00F0FF"/>
</linearGradient>
<linearGradient id="paint48_linear_6_48384" x1="295.154" y1="403.11" x2="393.716" y2="281.396" gradientUnits="userSpaceOnUse">
<stop stop-color="#FF1CF7"/>
<stop offset="1" stop-color="#00F0FF"/>
</linearGradient>
<linearGradient id="paint49_linear_6_48384" x1="294.112" y1="402.267" x2="394.783" y2="282.291" gradientUnits="userSpaceOnUse">
<stop stop-color="#FF1CF7"/>
<stop offset="1" stop-color="#00F0FF"/>
</linearGradient>
<linearGradient id="paint50_linear_6_48384" x1="293.085" y1="401.404" x2="395.835" y2="283.204" gradientUnits="userSpaceOnUse">
<stop stop-color="#FF1CF7"/>
<stop offset="1" stop-color="#00F0FF"/>
</linearGradient>
<linearGradient id="paint51_linear_6_48384" x1="292.073" y1="400.524" x2="396.87" y2="284.135" gradientUnits="userSpaceOnUse">
<stop stop-color="#FF1CF7"/>
<stop offset="1" stop-color="#00F0FF"/>
</linearGradient>
<linearGradient id="paint52_linear_6_48384" x1="291.077" y1="399.627" x2="397.889" y2="285.085" gradientUnits="userSpaceOnUse">
<stop stop-color="#FF1CF7"/>
<stop offset="1" stop-color="#00F0FF"/>
</linearGradient>
<linearGradient id="paint53_linear_6_48384" x1="290.096" y1="398.712" x2="398.891" y2="286.051" gradientUnits="userSpaceOnUse">
<stop stop-color="#FF1CF7"/>
<stop offset="1" stop-color="#00F0FF"/>
</linearGradient>
<linearGradient id="paint54_linear_6_48384" x1="289.132" y1="397.781" x2="399.877" y2="287.036" gradientUnits="userSpaceOnUse">
<stop stop-color="#FF1CF7"/>
<stop offset="1" stop-color="#00F0FF"/>
</linearGradient>
<linearGradient id="paint55_linear_6_48384" x1="288.184" y1="396.832" x2="400.844" y2="288.037" gradientUnits="userSpaceOnUse">
<stop stop-color="#FF1CF7"/>
<stop offset="1" stop-color="#00F0FF"/>
</linearGradient>
<linearGradient id="paint56_linear_6_48384" x1="287.253" y1="395.868" x2="401.795" y2="289.055" gradientUnits="userSpaceOnUse">
<stop stop-color="#FF1CF7"/>
<stop offset="1" stop-color="#00F0FF"/>
</linearGradient>
<linearGradient id="paint57_linear_6_48384" x1="286.338" y1="394.886" x2="402.727" y2="290.089" gradientUnits="userSpaceOnUse">
<stop stop-color="#FF1CF7"/>
<stop offset="1" stop-color="#00F0FF"/>
</linearGradient>
<linearGradient id="paint58_linear_6_48384" x1="285.441" y1="393.89" x2="403.641" y2="291.14" gradientUnits="userSpaceOnUse">
<stop stop-color="#FF1CF7"/>
<stop offset="1" stop-color="#00F0FF"/>
</linearGradient>
<linearGradient id="paint59_linear_6_48384" x1="284.562" y1="392.878" x2="404.537" y2="292.206" gradientUnits="userSpaceOnUse">
<stop stop-color="#FF1CF7"/>
<stop offset="1" stop-color="#00F0FF"/>
</linearGradient>
<linearGradient id="paint60_linear_6_48384" x1="283.7" y1="391.851" x2="405.414" y2="293.289" gradientUnits="userSpaceOnUse">
<stop stop-color="#FF1CF7"/>
<stop offset="1" stop-color="#00F0FF"/>
</linearGradient>
<linearGradient id="paint61_linear_6_48384" x1="282.856" y1="390.808" x2="406.272" y2="294.386" gradientUnits="userSpaceOnUse">
<stop stop-color="#FF1CF7"/>
<stop offset="1" stop-color="#00F0FF"/>
</linearGradient>
<linearGradient id="paint62_linear_6_48384" x1="282.031" y1="389.751" x2="407.111" y2="295.497" gradientUnits="userSpaceOnUse">
<stop stop-color="#FF1CF7"/>
<stop offset="1" stop-color="#00F0FF"/>
</linearGradient>
<linearGradient id="paint63_linear_6_48384" x1="281.224" y1="388.68" x2="407.93" y2="296.623" gradientUnits="userSpaceOnUse">
<stop stop-color="#FF1CF7"/>
<stop offset="1" stop-color="#00F0FF"/>
</linearGradient>
<linearGradient id="paint64_linear_6_48384" x1="280.436" y1="387.595" x2="408.729" y2="297.764" gradientUnits="userSpaceOnUse">
<stop stop-color="#FF1CF7"/>
<stop offset="1" stop-color="#00F0FF"/>
</linearGradient>
<linearGradient id="paint65_linear_6_48384" x1="279.667" y1="386.497" x2="409.508" y2="298.918" gradientUnits="userSpaceOnUse">
<stop stop-color="#FF1CF7"/>
<stop offset="1" stop-color="#00F0FF"/>
</linearGradient>
<linearGradient id="paint66_linear_6_48384" x1="278.918" y1="385.385" x2="410.268" y2="300.085" gradientUnits="userSpaceOnUse">
<stop stop-color="#FF1CF7"/>
<stop offset="1" stop-color="#00F0FF"/>
</linearGradient>
<linearGradient id="paint67_linear_6_48384" x1="278.188" y1="384.26" x2="411.006" y2="301.266" gradientUnits="userSpaceOnUse">
<stop stop-color="#FF1CF7"/>
<stop offset="1" stop-color="#00F0FF"/>
</linearGradient>
<linearGradient id="paint68_linear_6_48384" x1="277.477" y1="383.123" x2="411.724" y2="302.459" gradientUnits="userSpaceOnUse">
<stop stop-color="#FF1CF7"/>
<stop offset="1" stop-color="#00F0FF"/>
</linearGradient>
<linearGradient id="paint69_linear_6_48384" x1="276.787" y1="381.974" x2="412.421" y2="303.665" gradientUnits="userSpaceOnUse">
<stop stop-color="#FF1CF7"/>
<stop offset="1" stop-color="#00F0FF"/>
</linearGradient>
<linearGradient id="paint70_linear_6_48384" x1="276.117" y1="380.812" x2="413.097" y2="304.883" gradientUnits="userSpaceOnUse">
<stop stop-color="#FF1CF7"/>
<stop offset="1" stop-color="#00F0FF"/>
</linearGradient>
<linearGradient id="paint71_linear_6_48384" x1="275.467" y1="379.639" x2="413.751" y2="306.112" gradientUnits="userSpaceOnUse">
<stop stop-color="#FF1CF7"/>
<stop offset="1" stop-color="#00F0FF"/>
</linearGradient>
<linearGradient id="paint72_linear_6_48384" x1="274.838" y1="378.455" x2="414.384" y2="307.353" gradientUnits="userSpaceOnUse">
<stop stop-color="#FF1CF7"/>
<stop offset="1" stop-color="#00F0FF"/>
</linearGradient>
<linearGradient id="paint73_linear_6_48384" x1="274.229" y1="377.26" x2="414.995" y2="308.604" gradientUnits="userSpaceOnUse">
<stop stop-color="#FF1CF7"/>
<stop offset="1" stop-color="#00F0FF"/>
</linearGradient>
<linearGradient id="paint74_linear_6_48384" x1="273.641" y1="376.055" x2="415.584" y2="309.866" gradientUnits="userSpaceOnUse">
<stop stop-color="#FF1CF7"/>
<stop offset="1" stop-color="#00F0FF"/>
</linearGradient>
<linearGradient id="paint75_linear_6_48384" x1="273.075" y1="374.84" x2="416.151" y2="311.138" gradientUnits="userSpaceOnUse">
<stop stop-color="#FF1CF7"/>
<stop offset="1" stop-color="#00F0FF"/>
</linearGradient>
<linearGradient id="paint76_linear_6_48384" x1="272.53" y1="373.614" x2="416.696" y2="312.419" gradientUnits="userSpaceOnUse">
<stop stop-color="#FF1CF7"/>
<stop offset="1" stop-color="#00F0FF"/>
</linearGradient>
<linearGradient id="paint77_linear_6_48384" x1="272.006" y1="372.381" x2="417.219" y2="313.711" gradientUnits="userSpaceOnUse">
<stop stop-color="#FF1CF7"/>
<stop offset="1" stop-color="#00F0FF"/>
</linearGradient>
<linearGradient id="paint78_linear_6_48384" x1="271.504" y1="371.137" x2="417.718" y2="315.01" gradientUnits="userSpaceOnUse">
<stop stop-color="#FF1CF7"/>
<stop offset="1" stop-color="#00F0FF"/>
</linearGradient>
<linearGradient id="paint79_linear_6_48384" x1="271.024" y1="369.885" x2="418.195" y2="316.319" gradientUnits="userSpaceOnUse">
<stop stop-color="#FF1CF7"/>
<stop offset="1" stop-color="#00F0FF"/>
</linearGradient>
<linearGradient id="paint80_linear_6_48384" x1="270.565" y1="368.625" x2="418.649" y2="317.635" gradientUnits="userSpaceOnUse">
<stop stop-color="#FF1CF7"/>
<stop offset="1" stop-color="#00F0FF"/>
</linearGradient>
<linearGradient id="paint81_linear_6_48384" x1="270.129" y1="367.357" x2="419.08" y2="318.96" gradientUnits="userSpaceOnUse">
<stop stop-color="#FF1CF7"/>
<stop offset="1" stop-color="#00F0FF"/>
</linearGradient>
<linearGradient id="paint82_linear_6_48384" x1="269.715" y1="366.082" x2="419.488" y2="320.292" gradientUnits="userSpaceOnUse">
<stop stop-color="#FF1CF7"/>
<stop offset="1" stop-color="#00F0FF"/>
</linearGradient>
<linearGradient id="paint83_linear_6_48384" x1="269.323" y1="364.799" x2="419.873" y2="321.63" gradientUnits="userSpaceOnUse">
<stop stop-color="#FF1CF7"/>
<stop offset="1" stop-color="#00F0FF"/>
</linearGradient>
<linearGradient id="paint84_linear_6_48384" x1="268.954" y1="363.51" x2="420.234" y2="322.975" gradientUnits="userSpaceOnUse">
<stop stop-color="#FF1CF7"/>
<stop offset="1" stop-color="#00F0FF"/>
</linearGradient>
<linearGradient id="paint85_linear_6_48384" x1="268.607" y1="362.215" x2="420.571" y2="324.326" gradientUnits="userSpaceOnUse">
<stop stop-color="#FF1CF7"/>
<stop offset="1" stop-color="#00F0FF"/>
</linearGradient>
<linearGradient id="paint86_linear_6_48384" x1="268.283" y1="360.914" x2="420.885" y2="325.683" gradientUnits="userSpaceOnUse">
<stop stop-color="#FF1CF7"/>
<stop offset="1" stop-color="#00F0FF"/>
</linearGradient>
<linearGradient id="paint87_linear_6_48384" x1="267.981" y1="359.607" x2="421.176" y2="327.044" gradientUnits="userSpaceOnUse">
<stop stop-color="#FF1CF7"/>
<stop offset="1" stop-color="#00F0FF"/>
</linearGradient>
<linearGradient id="paint88_linear_6_48384" x1="267.703" y1="358.295" x2="421.442" y2="328.411" gradientUnits="userSpaceOnUse">
<stop stop-color="#FF1CF7"/>
<stop offset="1" stop-color="#00F0FF"/>
</linearGradient>
<linearGradient id="paint89_linear_6_48384" x1="267.447" y1="356.979" x2="421.685" y2="329.783" gradientUnits="userSpaceOnUse">
<stop stop-color="#FF1CF7"/>
<stop offset="1" stop-color="#00F0FF"/>
</linearGradient>
<linearGradient id="paint90_linear_6_48384" x1="267.215" y1="355.658" x2="421.903" y2="331.158" gradientUnits="userSpaceOnUse">
<stop stop-color="#FF1CF7"/>
<stop offset="1" stop-color="#00F0FF"/>
</linearGradient>
<linearGradient id="paint91_linear_6_48384" x1="267.005" y1="354.334" x2="422.098" y2="332.537" gradientUnits="userSpaceOnUse">
<stop stop-color="#FF1CF7"/>
<stop offset="1" stop-color="#00F0FF"/>
</linearGradient>
<linearGradient id="paint92_linear_6_48384" x1="266.819" y1="353.006" x2="422.268" y2="333.919" gradientUnits="userSpaceOnUse">
<stop stop-color="#FF1CF7"/>
<stop offset="1" stop-color="#00F0FF"/>
</linearGradient>
<linearGradient id="paint93_linear_6_48384" x1="266.656" y1="351.675" x2="422.414" y2="335.304" gradientUnits="userSpaceOnUse">
<stop stop-color="#FF1CF7"/>
<stop offset="1" stop-color="#00F0FF"/>
</linearGradient>
<linearGradient id="paint94_linear_6_48384" x1="266.516" y1="350.342" x2="422.537" y2="336.692" gradientUnits="userSpaceOnUse">
<stop stop-color="#FF1CF7"/>
<stop offset="1" stop-color="#00F0FF"/>
</linearGradient>
<linearGradient id="paint95_linear_6_48384" x1="266.399" y1="349.006" x2="422.634" y2="338.081" gradientUnits="userSpaceOnUse">
<stop stop-color="#FF1CF7"/>
<stop offset="1" stop-color="#00F0FF"/>
</linearGradient>
<linearGradient id="paint96_linear_6_48384" x1="266.306" y1="347.668" x2="422.708" y2="339.471" gradientUnits="userSpaceOnUse">
<stop stop-color="#FF1CF7"/>
<stop offset="1" stop-color="#00F0FF"/>
</linearGradient>
<linearGradient id="paint97_linear_6_48384" x1="266.236" y1="346.329" x2="422.757" y2="340.863" gradientUnits="userSpaceOnUse">
<stop stop-color="#FF1CF7"/>
<stop offset="1" stop-color="#00F0FF"/>
</linearGradient>
<linearGradient id="paint98_linear_6_48384" x1="266.189" y1="344.989" x2="422.782" y2="342.255" gradientUnits="userSpaceOnUse">
<stop stop-color="#FF1CF7"/>
<stop offset="1" stop-color="#00F0FF"/>
</linearGradient>
<linearGradient id="paint99_linear_6_48384" x1="266.166" y1="343.648" x2="422.783" y2="343.648" gradientUnits="userSpaceOnUse">
<stop stop-color="#FF1CF7"/>
<stop offset="1" stop-color="#00F0FF"/>
</linearGradient>
</defs>
</svg>
