<svg width="853" height="719" viewBox="0 0 853 719" fill="none" xmlns="http://www.w3.org/2000/svg">
<path opacity="0.010101" d="M275.094 362.606C269.526 356.841 268.304 348.146 272.067 341.07L409.643 82.3265C413.405 75.25 421.297 71.4008 429.19 72.7926L717.782 123.679C725.675 125.071 731.774 131.387 732.89 139.324L773.674 429.517C774.789 437.453 770.667 445.206 763.464 448.719L500.077 577.181C492.873 580.695 484.227 579.17 478.659 573.405L275.094 362.606Z" stroke="url(#paint0_linear_125_8)" stroke-width="3"/>
<path opacity="0.020202" d="M271.8 358.997C266.334 353.135 265.264 344.421 269.149 337.411L410.935 81.6224C414.82 74.6127 422.778 70.9019 430.645 72.4311L717.729 128.234C725.597 129.764 731.585 136.185 732.561 144.14L768.203 434.417C769.18 442.372 764.923 450.051 757.659 453.439L492.603 577.036C485.339 580.423 476.72 578.748 471.254 572.886L271.8 358.997Z" stroke="url(#paint1_linear_125_8)" stroke-width="3"/>
<path opacity="0.030303" d="M268.587 355.392C263.224 349.436 262.307 340.704 266.314 333.763L412.248 80.9976C416.255 74.0567 424.276 70.4855 432.116 72.1517L717.607 132.835C725.446 134.501 731.321 141.026 732.159 148.997L762.668 439.267C763.505 447.238 759.115 454.842 751.794 458.101L485.158 576.815C477.836 580.075 469.248 578.249 463.885 572.293L268.587 355.392Z" stroke="url(#paint2_linear_125_8)" stroke-width="3"/>
<path opacity="0.040404" d="M265.456 351.794C260.198 345.746 259.433 336.999 263.561 330.129L413.582 80.4523C417.71 73.5825 425.792 70.1516 433.601 71.9545L717.416 137.478C725.225 139.281 730.986 145.908 731.684 153.892L757.071 444.065C757.77 452.049 753.248 459.575 745.87 462.707L477.745 576.519C470.367 579.651 461.812 577.676 456.554 571.627L265.456 351.794Z" stroke="url(#paint3_linear_125_8)" stroke-width="3"/>
<path opacity="0.050505" d="M262.406 348.203C257.254 342.064 256.642 333.305 260.889 326.508L414.933 79.9862C419.18 73.1894 427.321 69.9002 435.097 71.8391L717.156 142.164C724.932 144.103 730.576 150.829 731.135 158.824L751.413 448.81C751.972 456.805 747.319 464.251 739.888 467.253L470.362 576.149C462.931 579.151 454.412 577.027 449.26 570.887L262.406 348.203Z" stroke="url(#paint4_linear_125_8)" stroke-width="3"/>
<path opacity="0.0606061" d="M259.436 344.62C254.393 338.391 253.933 329.623 258.298 322.901L416.301 79.5985C420.666 72.8768 428.863 69.7302 436.604 71.8045L716.825 146.889C724.567 148.964 730.092 155.787 730.512 163.791L745.695 453.499C746.114 461.502 741.332 468.866 733.85 471.738L463.013 575.703C455.53 578.575 447.049 576.302 442.006 570.074L259.436 344.62Z" stroke="url(#paint5_linear_125_8)" stroke-width="3"/>
<path opacity="0.0707071" d="M256.547 341.046C251.613 334.73 251.307 325.956 255.788 319.311L417.684 79.2903C422.166 72.6459 430.417 69.6428 438.121 71.8519L716.423 151.654C724.127 153.863 729.533 160.782 729.812 168.792L739.916 458.133C740.196 466.143 735.286 473.422 727.755 476.163L455.697 575.184C448.166 577.925 439.726 575.505 434.792 569.189L256.547 341.046Z" stroke="url(#paint6_linear_125_8)" stroke-width="3"/>
<path opacity="0.0808081" d="M253.738 337.485C248.915 331.084 248.762 322.306 253.359 315.74L419.081 79.0629C423.678 72.4978 431.98 69.6392 439.645 71.9823L715.95 156.457C723.614 158.8 728.898 165.813 729.038 173.826L734.081 462.712C734.221 470.725 729.185 477.918 721.607 480.527L448.418 574.593C440.84 577.202 432.443 574.635 427.62 568.235L253.738 337.485Z" stroke="url(#paint7_linear_125_8)" stroke-width="3"/>
<path opacity="0.0909091" d="M251.009 333.936C246.298 327.452 246.298 318.672 251.009 312.188L420.492 78.9146C425.203 72.4306 433.553 69.7172 441.176 72.1938L715.405 161.296C723.028 163.773 728.188 170.876 728.188 178.891V467.233C728.188 475.248 723.028 482.351 715.405 484.828L441.176 573.93C433.553 576.407 425.203 573.693 420.492 567.209L251.009 333.936Z" stroke="url(#paint8_linear_125_8)" stroke-width="3"/>
<path opacity="0.10101" d="M248.358 330.401C243.761 323.835 243.915 315.057 248.738 308.656L421.913 78.8453C426.736 72.4445 435.133 69.8772 442.711 72.4866L714.788 166.17C722.366 168.78 727.402 175.972 727.262 183.985L722.24 471.695C722.1 479.709 716.816 486.721 709.152 489.064L433.971 573.195C426.306 575.539 418.005 572.68 413.408 566.115L248.358 330.401Z" stroke="url(#paint9_linear_125_8)" stroke-width="3"/>
<path opacity="0.111111" d="M245.787 326.882C241.305 320.237 241.612 311.463 246.546 305.147L423.343 78.8562C428.278 72.5407 436.717 70.1213 444.249 72.8624L714.098 171.079C721.629 173.82 726.539 181.1 726.259 189.109L716.237 476.1C715.957 484.11 710.552 491.029 702.848 493.238L426.805 572.392C419.101 574.601 410.85 571.599 406.368 564.954L245.787 326.882Z" stroke="url(#paint10_linear_125_8)" stroke-width="3"/>
<path opacity="0.121212" d="M243.294 323.379C238.929 316.657 239.389 307.889 244.432 301.661L424.782 78.9464C429.826 72.718 438.306 70.4463 445.789 73.3184L713.333 176.019C720.816 178.891 725.597 186.255 725.178 194.259L710.18 480.444C709.76 488.448 704.235 495.271 696.493 497.346L419.679 571.517C411.938 573.592 403.741 570.446 399.376 563.724L243.294 323.379Z" stroke="url(#paint11_linear_125_8)" stroke-width="3"/>
<path opacity="0.131313" d="M240.879 319.895C236.632 313.098 237.245 304.34 242.396 298.2L426.227 79.1178C431.379 72.9782 439.899 70.8549 447.33 73.8573L712.496 180.991C719.927 183.994 724.58 191.44 724.021 199.435L704.071 484.728C703.512 492.724 697.868 499.45 690.091 501.389L412.596 570.576C404.819 572.515 396.678 569.227 392.431 562.43L240.879 319.895Z" stroke="url(#paint12_linear_125_8)" stroke-width="3"/>
<path opacity="0.141414" d="M238.542 316.431C234.414 309.561 235.179 300.814 240.437 294.765L427.679 79.3685C432.937 73.32 441.492 71.3455 448.869 74.477L711.584 185.993C718.962 189.124 723.484 196.65 722.785 204.634L697.911 488.952C697.212 496.936 691.452 503.562 683.643 505.365L405.554 569.567C397.745 571.37 389.663 567.939 385.535 561.069L238.542 316.431Z" stroke="url(#paint13_linear_125_8)" stroke-width="3"/>
<path opacity="0.151515" d="M236.281 312.987C232.274 306.046 233.192 297.314 238.555 291.358L429.133 79.6983C434.496 73.7424 443.084 71.9166 450.406 75.1764L710.598 191.022C717.92 194.282 722.31 201.885 721.472 209.856L691.701 493.112C690.863 501.082 684.988 507.607 677.149 509.273L398.557 568.49C390.717 570.157 382.696 566.585 378.689 559.644L236.281 312.987Z" stroke="url(#paint14_linear_125_8)" stroke-width="3"/>
<path opacity="0.161616" d="M234.097 309.565C230.212 302.556 231.282 293.841 236.748 287.979L430.59 80.1082C436.056 74.2467 444.675 72.5713 451.939 75.9583L709.537 196.079C716.8 199.466 721.057 207.145 720.081 215.099L685.442 497.209C684.465 505.164 678.477 511.585 670.61 513.114L391.603 567.348C383.736 568.877 375.779 565.166 371.893 558.157L234.097 309.565Z" stroke="url(#paint15_linear_125_8)" stroke-width="3"/>
<path opacity="0.171717" d="M231.989 306.168C228.226 299.092 229.448 290.397 235.016 284.632L432.048 80.5979C437.615 74.8328 446.262 73.3081 453.466 76.8212L708.4 201.161C715.603 204.674 719.725 212.427 718.61 220.363L679.135 501.244C678.019 509.18 671.92 515.496 664.027 516.888L384.696 566.141C376.803 567.533 368.912 563.684 365.149 556.607L231.989 306.168Z" stroke="url(#paint16_linear_125_8)" stroke-width="3"/>
<path opacity="0.181818" d="M229.956 302.795C226.318 295.654 227.691 286.982 233.358 281.315L433.507 81.1666C439.174 75.4996 447.846 74.1257 454.987 77.7643L707.188 206.267C714.329 209.906 718.315 217.729 717.061 225.645L672.782 505.213C671.528 513.129 665.32 519.337 657.404 520.591L377.837 564.87C369.921 566.124 362.098 562.138 358.459 554.997L229.956 302.795Z" stroke="url(#paint17_linear_125_8)" stroke-width="3"/>
<path opacity="0.191919" d="M227.998 299.449C224.485 292.245 226.009 283.599 231.775 278.031L434.962 81.8147C440.728 76.2473 449.422 75.0251 456.499 78.7878L705.9 211.397C712.977 215.159 716.826 223.051 715.434 230.944L666.384 509.117C664.993 517.01 658.677 523.11 650.74 524.225L371.025 563.536C363.088 564.652 355.336 560.53 351.822 553.326L227.998 299.449Z" stroke="url(#paint18_linear_125_8)" stroke-width="3"/>
<path opacity="0.20202" d="M226.114 296.128C222.727 288.864 224.402 280.246 230.264 274.78L436.415 82.5401C442.277 77.0741 450.991 76.004 458.001 79.8895L704.536 216.546C711.546 220.432 715.257 228.389 713.728 236.257L659.943 512.955C658.414 520.822 651.992 526.81 644.037 527.787L364.261 562.139C356.306 563.116 348.627 558.859 345.24 551.595L226.114 296.128Z" stroke="url(#paint19_linear_125_8)" stroke-width="3"/>
<path opacity="0.212121" d="M224.304 292.838C221.044 285.517 222.869 276.928 228.825 271.566L437.863 83.3465C443.819 77.9837 452.551 77.0659 459.492 81.0731L703.095 221.717C710.036 225.725 713.607 233.746 711.941 241.585L653.458 516.728C651.791 524.567 645.267 530.442 637.296 531.28L357.548 560.683C349.577 561.52 341.974 557.13 338.714 549.808L224.304 292.838Z" stroke="url(#paint20_linear_125_8)" stroke-width="3"/>
<path opacity="0.222222" d="M222.566 289.577C219.434 282.199 221.41 273.644 227.458 268.386L439.305 84.2297C445.354 78.9717 454.101 78.2065 460.971 82.3341L701.579 226.906C708.449 231.034 711.879 239.116 710.076 246.925L646.932 520.432C645.129 528.241 638.503 534.002 630.519 534.7L350.886 559.165C342.902 559.863 335.375 555.341 332.244 547.963L222.566 289.577Z" stroke="url(#paint21_linear_125_8)" stroke-width="3"/>
<path opacity="0.232323" d="M220.9 286.348C217.898 278.917 220.022 270.397 226.162 265.246L440.741 85.1925C446.881 80.0408 455.639 79.4281 462.436 83.6752L699.985 232.112C706.782 236.36 710.071 244.5 708.132 252.277L640.367 524.07C638.428 531.846 631.702 537.49 623.707 538.049L344.276 557.589C336.281 558.148 328.835 553.495 325.833 546.064L220.9 286.348Z" stroke="url(#paint22_linear_125_8)" stroke-width="3"/>
<path opacity="0.242424" d="M219.306 283.151C216.434 275.669 218.707 267.188 224.935 262.144L442.167 86.233C448.396 81.1892 457.164 80.7295 463.885 85.0946L698.315 237.335C705.037 241.7 708.184 249.897 706.109 257.639L633.763 527.64C631.688 535.381 624.865 540.907 616.861 541.326L337.719 555.955C329.715 556.375 322.351 551.593 319.479 544.11L219.306 283.151Z" stroke="url(#paint23_linear_125_8)" stroke-width="3"/>
<path opacity="0.252525" d="M217.783 279.987C215.042 272.455 217.462 264.016 223.778 259.081L443.583 87.3503C449.899 82.4159 458.673 82.1094 465.318 86.5911L696.568 242.571C703.213 247.053 706.216 255.304 704.007 263.008L627.121 531.14C624.912 538.844 617.993 544.249 609.983 544.529L331.215 554.264C323.205 554.543 315.926 549.633 313.185 542.102L217.783 279.987Z" stroke="url(#paint24_linear_125_8)" stroke-width="3"/>
<path opacity="0.262626" d="M216.329 276.857C213.72 269.279 216.287 260.883 222.688 256.06L444.987 88.5446C451.388 83.7213 460.167 83.568 466.732 88.1649L694.743 247.82C701.308 252.417 704.167 260.719 701.824 268.383L620.442 534.57C618.099 542.235 611.087 547.519 603.073 547.659L324.766 552.516C316.752 552.656 309.56 547.62 306.951 540.042L216.329 276.857Z" stroke="url(#paint25_linear_125_8)" stroke-width="3"/>
<path opacity="0.272727" d="M214.945 273.765C212.468 266.142 215.182 257.792 221.666 253.081L446.38 89.8162C452.864 85.1056 461.644 85.1061 468.128 89.8169L692.842 253.081C699.326 257.792 702.039 266.142 699.562 273.765L613.729 537.932C611.253 545.554 604.149 550.715 596.135 550.715L318.373 550.715C310.358 550.715 303.255 545.554 300.779 537.932L214.945 273.765Z" stroke="url(#paint26_linear_125_8)" stroke-width="3"/>
<path opacity="0.282828" d="M213.629 270.709C211.286 263.044 214.145 254.743 220.71 250.146L447.758 91.1646C454.323 86.5679 463.102 86.7217 469.502 91.5449L690.864 258.352C697.264 263.176 699.831 271.572 697.222 279.15L606.983 541.223C604.374 548.801 597.182 553.837 589.168 553.698L312.036 548.86C304.023 548.72 297.011 543.437 294.667 535.773L213.629 270.709Z" stroke="url(#paint27_linear_125_8)" stroke-width="3"/>
<path opacity="0.292929" d="M212.381 267.692C210.172 259.988 213.175 251.737 219.82 247.256L449.12 92.5898C455.765 88.1083 464.539 88.4153 470.855 93.3495L688.808 263.633C695.124 268.568 697.544 277.008 694.803 284.539L600.205 544.445C597.464 551.976 590.184 556.886 582.175 556.606L305.756 546.953C297.747 546.673 290.828 541.268 288.618 533.564L212.381 267.692Z" stroke="url(#paint28_linear_125_8)" stroke-width="3"/>
<path opacity="0.30303" d="M211.2 264.713C209.125 256.971 212.272 248.775 218.994 244.41L450.465 94.0893C457.187 89.7243 465.955 90.1845 472.183 95.2282L686.674 268.92C692.903 273.963 695.175 282.444 692.303 289.927L593.394 547.593C590.522 555.076 583.159 559.858 575.155 559.438L299.535 544.993C291.531 544.574 284.707 539.049 282.633 531.308L211.2 264.713Z" stroke="url(#paint29_linear_125_8)" stroke-width="3"/>
<path opacity="0.313131" d="M210.084 261.776C208.145 253.999 211.434 245.859 218.231 241.612L451.792 95.6654C458.589 91.4184 467.348 92.0309 473.488 97.1823L684.465 274.214C690.604 279.366 692.728 287.885 689.726 295.316L586.555 550.672C583.553 558.103 576.107 562.756 568.112 562.197L293.371 542.986C285.376 542.426 278.65 536.783 276.711 529.006L210.084 261.776Z" stroke="url(#paint30_linear_125_8)" stroke-width="3"/>
<path opacity="0.323232" d="M209.034 258.879C207.231 251.07 210.662 242.988 217.532 238.86L453.101 97.3151C459.971 93.1875 468.718 93.9524 474.767 99.2104L682.178 279.511C688.226 284.769 690.202 293.324 687.07 300.701L579.688 553.677C576.557 561.055 569.031 565.577 561.046 564.878L287.269 540.927C279.285 540.228 272.659 534.468 270.856 526.659L209.034 258.879Z" stroke="url(#paint31_linear_125_8)" stroke-width="3"/>
<path opacity="0.333333" d="M208.048 256.026C206.381 248.186 209.953 240.165 216.894 236.158L454.388 99.0399C461.329 95.0327 470.061 95.9502 476.017 101.313L679.814 284.813C685.77 290.176 687.595 298.764 684.336 306.085L572.794 556.612C569.534 563.934 561.93 568.323 553.96 567.486L281.226 538.821C273.255 537.983 266.731 532.108 265.064 524.269L208.048 256.026Z" stroke="url(#paint32_linear_125_8)" stroke-width="3"/>
<path opacity="0.343434" d="M207.125 253.215C205.596 245.348 209.306 237.391 216.316 233.505L455.653 100.838C462.663 96.9521 471.378 98.022 477.239 103.488L677.373 290.116C683.234 295.582 684.91 304.2 681.523 311.464L565.874 559.473C562.487 566.737 554.808 570.993 546.853 570.016L275.244 536.668C267.289 535.691 260.868 529.703 259.339 521.835L207.125 253.215Z" stroke="url(#paint33_linear_125_8)" stroke-width="3"/>
<path opacity="0.353535" d="M206.264 250.451C204.873 242.558 208.722 234.666 215.798 230.904L456.895 102.71C463.972 98.947 472.666 100.169 478.432 105.736L674.854 295.42C680.619 300.988 682.144 309.634 678.631 316.837L558.929 562.262C555.416 569.466 547.664 573.587 539.727 572.472L269.324 534.47C261.388 533.354 255.072 527.255 253.68 519.362L206.264 250.451Z" stroke="url(#paint34_linear_125_8)" stroke-width="3"/>
<path opacity="0.363636" d="M205.465 247.731C204.212 239.815 208.198 231.992 215.339 228.353L458.113 104.653C465.254 101.015 473.927 102.388 479.594 108.056L672.26 300.722C677.927 306.389 679.301 315.061 675.662 322.202L551.962 564.977C548.324 572.118 540.501 576.105 532.585 574.851L263.468 532.227C255.552 530.973 249.343 524.764 248.089 516.848L205.465 247.731Z" stroke="url(#paint35_linear_125_8)" stroke-width="3"/>
<path opacity="0.373737" d="M204.727 245.059C203.612 237.122 207.734 229.37 214.937 225.856L459.305 106.67C466.509 103.157 475.155 104.681 480.723 110.447L669.59 306.023C675.157 311.789 676.379 320.484 672.616 327.56L544.974 567.62C541.211 574.696 533.32 578.546 525.427 577.154L257.673 529.942C249.781 528.55 243.682 522.234 242.566 514.297L204.727 245.059Z" stroke="url(#paint36_linear_125_8)" stroke-width="3"/>
<path opacity="0.383838" d="M204.049 242.433C203.072 234.478 207.328 226.799 214.592 223.412L460.47 108.757C467.734 105.37 476.353 107.045 481.819 112.907L666.843 311.32C672.309 317.182 673.379 325.897 669.493 332.906L537.966 570.188C534.08 577.198 526.123 580.908 518.255 579.379L251.943 527.613C244.076 526.084 238.088 519.662 237.111 511.707L204.049 242.433Z" stroke="url(#paint37_linear_125_8)" stroke-width="3"/>
<path opacity="0.393939" d="M203.428 239.857C202.59 231.886 206.98 224.283 214.302 221.023L461.607 110.915C468.928 107.656 477.516 109.481 482.879 115.437L664.02 316.613C669.382 322.569 670.3 331.301 666.293 338.242L530.938 572.683C526.931 579.624 518.91 583.195 511.07 581.529L246.277 525.245C238.437 523.578 232.562 517.053 231.725 509.082L203.428 239.857Z" stroke="url(#paint38_linear_125_8)" stroke-width="3"/>
<path opacity="0.40404" d="M202.866 237.329C202.167 229.345 206.689 221.819 214.067 218.688L462.714 113.143C470.091 110.011 478.646 111.986 483.905 118.035L661.12 321.897C666.378 327.946 667.143 336.693 663.015 343.563L523.893 575.102C519.765 581.972 511.683 585.403 503.874 583.6L240.676 522.835C232.867 521.032 227.106 514.406 226.408 506.422L202.866 237.329Z" stroke="url(#paint39_linear_125_8)" stroke-width="3"/>
<path opacity="0.414141" d="M202.36 234.853C201.801 226.858 206.453 219.412 213.884 216.41L463.791 115.441C471.222 112.439 479.742 114.563 484.893 120.703L658.146 327.177C663.297 333.316 663.91 342.075 659.663 348.872L516.832 577.449C512.585 584.246 504.444 587.535 496.667 585.596L235.141 520.39C227.364 518.451 221.721 511.725 221.162 503.73L202.36 234.853Z" stroke="url(#paint40_linear_125_8)" stroke-width="3"/>
<path opacity="0.424242" d="M201.909 232.429C201.49 224.425 206.272 217.061 213.754 214.189L464.836 117.808C472.318 114.936 480.799 117.208 485.843 123.437L655.096 332.446C660.14 338.675 660.599 347.443 656.234 354.165L509.756 579.721C505.391 586.443 497.194 589.59 489.453 587.515L229.671 517.907C221.93 515.832 216.404 509.009 215.985 501.005L201.909 232.429Z" stroke="url(#paint41_linear_125_8)" stroke-width="3"/>
<path opacity="0.434343" d="M201.514 230.056C201.234 222.046 206.144 214.767 213.675 212.026L465.848 120.242C473.38 117.501 481.82 119.921 486.754 126.237L651.972 337.705C656.906 344.021 657.213 352.796 652.731 359.44L502.667 581.919C498.186 588.563 489.935 591.566 482.231 589.357L224.269 515.387C216.564 513.178 211.159 506.259 210.879 498.249L201.514 230.056Z" stroke="url(#paint42_linear_125_8)" stroke-width="3"/>
<path opacity="0.444444" d="M201.172 227.737C201.032 219.723 206.068 212.531 213.646 209.922L466.827 122.744C474.405 120.134 482.801 122.702 487.624 129.103L648.772 342.953C653.596 349.354 653.749 358.133 649.152 364.698L495.565 584.042C490.968 590.607 482.667 593.466 475.002 591.122L218.933 512.834C211.268 510.491 205.984 503.478 205.845 495.465L201.172 227.737Z" stroke="url(#paint43_linear_125_8)" stroke-width="3"/>
<path opacity="0.454545" d="M200.882 225.472C200.882 217.457 206.043 210.354 213.665 207.877L467.77 125.313C475.392 122.836 483.742 125.55 488.453 132.034L645.499 348.188C650.21 354.672 650.21 363.453 645.499 369.937L488.454 586.091C483.743 592.575 475.392 595.288 467.77 592.812L213.665 510.248C206.042 507.771 200.881 500.668 200.881 492.654L200.882 225.472Z" stroke="url(#paint44_linear_125_8)" stroke-width="3"/>
<path opacity="0.464646" d="M200.643 223.261C200.783 215.248 206.067 208.236 213.732 205.892L468.677 127.948C476.342 125.604 484.643 128.463 489.24 135.029L642.152 353.409C646.749 359.975 646.596 368.753 641.773 375.154L481.332 588.066C476.509 594.466 468.113 597.033 460.535 594.424L208.465 507.629C200.887 505.02 195.851 497.828 195.991 489.815L200.643 223.261Z" stroke="url(#paint45_linear_125_8)" stroke-width="3"/>
<path opacity="0.474747" d="M200.455 221.106C200.735 213.096 206.141 206.177 213.845 203.968L469.547 130.646C477.251 128.437 485.501 131.441 489.983 138.085L638.732 358.614C643.214 365.259 642.907 374.034 637.973 380.349L474.203 589.965C469.269 596.28 460.829 598.701 453.298 595.959L203.333 504.98C195.802 502.238 190.892 494.96 191.172 486.95L200.455 221.106Z" stroke="url(#paint46_linear_125_8)" stroke-width="3"/>
<path opacity="0.484848" d="M200.316 219.007C200.736 211.003 206.261 204.18 214.003 202.105L470.378 133.41C478.119 131.335 486.316 134.482 490.681 141.203L635.239 363.803C639.603 370.524 639.144 379.293 634.1 385.521L467.067 591.79C462.024 598.018 453.542 600.291 446.06 597.419L198.27 502.301C190.788 499.429 186.006 492.065 186.425 484.062L200.316 219.007Z" stroke="url(#paint47_linear_125_8)" stroke-width="3"/>
<path opacity="0.494949" d="M200.226 216.965C200.785 208.97 206.428 202.244 214.205 200.305L471.169 136.236C478.946 134.297 487.086 137.586 491.334 144.383L631.672 368.972C635.919 375.769 635.307 384.528 630.155 390.668L459.925 593.539C454.774 599.679 446.254 601.803 438.823 598.801L193.276 499.594C185.845 496.591 181.192 489.145 181.751 481.15L200.226 216.965Z" stroke="url(#paint48_linear_125_8)" stroke-width="3"/>
<path opacity="0.50505" d="M200.182 214.982C200.88 206.998 206.641 200.371 214.45 198.568L471.921 139.126C479.73 137.324 487.812 140.754 491.94 147.624L628.034 374.125C632.162 380.995 631.397 389.741 626.139 395.79L452.78 595.216C447.522 601.265 438.967 603.24 431.59 600.109L188.353 496.861C180.975 493.73 176.453 486.204 177.152 478.22L200.182 214.982Z" stroke="url(#paint49_linear_125_8)" stroke-width="3"/>
<path opacity="0.515152" d="M200.184 213.057C201.022 205.086 206.897 198.561 214.736 196.895L472.63 142.078C480.469 140.412 488.491 143.983 492.498 150.923L624.325 379.256C628.332 386.197 627.415 394.928 622.052 400.884L445.632 596.819C440.269 602.775 431.681 604.6 424.36 601.34L183.498 494.102C176.176 490.843 171.787 483.239 172.624 475.268L200.184 213.057Z" stroke="url(#paint50_linear_125_8)" stroke-width="3"/>
<path opacity="0.525253" d="M200.231 211.191C201.207 203.236 207.195 196.815 215.063 195.285L473.297 145.089C481.164 143.56 489.122 147.271 493.007 154.28L620.545 384.365C624.43 391.375 623.361 400.089 617.895 405.95L438.483 598.347C433.017 604.208 424.398 605.883 417.135 602.496L178.714 491.319C171.45 487.932 167.194 480.252 168.17 472.297L200.231 211.191Z" stroke="url(#paint51_linear_125_8)" stroke-width="3"/>
<path opacity="0.535354" d="M200.321 209.385C201.436 201.449 207.535 195.133 215.428 193.741L473.92 148.162C481.813 146.77 489.705 150.619 493.467 157.695L616.694 389.452C620.456 396.528 619.235 405.223 613.668 410.988L431.334 599.8C425.766 605.565 417.12 607.089 409.917 603.576L174 488.513C166.797 484.999 162.675 477.247 163.79 469.31L200.321 209.385Z" stroke="url(#paint52_linear_125_8)" stroke-width="3"/>
<path opacity="0.545455" d="M200.453 207.64C201.707 199.724 207.916 193.515 215.832 192.262L474.499 151.292C482.415 150.039 490.238 154.025 493.877 161.166L612.773 394.513C616.412 401.654 615.038 410.326 609.371 415.993L424.185 601.179C418.518 606.846 409.846 608.22 402.705 604.582L169.357 485.685C162.216 482.046 158.23 474.223 159.484 466.307L200.453 207.64Z" stroke="url(#paint53_linear_125_8)" stroke-width="3"/>
<path opacity="0.555556" d="M200.627 205.956C202.019 198.063 208.335 191.963 216.272 190.848L475.033 154.482C482.969 153.366 490.722 157.488 494.235 164.692L608.783 399.55C612.297 406.753 610.772 415.4 605.007 420.967L417.04 602.485C411.275 608.052 402.58 609.274 395.503 605.512L164.786 482.837C157.71 479.074 153.861 471.183 155.252 463.29L200.627 205.956Z" stroke="url(#paint54_linear_125_8)" stroke-width="3"/>
<path opacity="0.565657" d="M200.841 204.334C202.371 196.466 208.792 190.478 216.747 189.502L475.52 157.728C483.475 156.752 491.154 161.008 494.541 168.272L604.725 404.561C608.112 411.825 606.436 420.443 600.575 425.909L409.899 603.718C404.037 609.184 395.322 610.254 388.313 606.368L160.285 479.97C153.275 476.085 149.565 468.127 151.094 460.26L200.841 204.334Z" stroke="url(#paint55_linear_125_8)" stroke-width="3"/>
<path opacity="0.575758" d="M201.094 202.773C202.76 194.934 209.285 189.059 217.256 188.221L475.959 161.03C483.93 160.192 491.534 164.582 494.794 171.904L600.598 409.543C603.858 416.865 602.032 425.453 596.076 430.816L402.763 604.876C396.807 610.239 388.075 611.157 381.134 607.15L155.856 477.085C148.915 473.078 145.344 465.057 147.01 457.217L201.094 202.773Z" stroke="url(#paint56_linear_125_8)" stroke-width="3"/>
<path opacity="0.585859" d="M201.384 201.277C203.187 193.468 209.814 187.707 217.798 187.009L476.35 164.388C484.335 163.69 491.861 168.212 494.992 175.589L596.403 414.497C599.535 421.875 597.56 430.43 591.511 435.688L395.633 605.962C389.584 611.22 380.837 611.986 373.967 607.858L151.498 474.184C144.628 470.056 141.197 461.974 143 454.165L201.384 201.277Z" stroke="url(#paint57_linear_125_8)" stroke-width="3"/>
<path opacity="0.59596" d="M201.711 199.843C203.65 192.067 210.376 186.423 218.371 185.864L476.693 167.8C484.688 167.241 492.134 171.893 495.136 179.324L592.142 419.421C595.144 426.852 593.02 435.372 586.881 440.524L388.511 606.975C382.371 612.127 373.613 612.74 366.816 608.493L147.211 471.268C140.415 467.021 137.126 458.88 139.064 451.103L201.711 199.843Z" stroke="url(#paint58_linear_125_8)" stroke-width="3"/>
<path opacity="0.606061" d="M202.073 198.474C204.148 190.732 210.971 185.207 218.975 184.787L476.986 171.266C484.989 170.846 492.353 175.628 495.225 183.111L587.815 424.315C590.687 431.797 588.415 440.278 582.186 445.322L381.399 607.916C375.17 612.96 366.402 613.42 359.68 609.055L142.997 468.339C136.276 463.974 133.129 455.777 135.204 448.035L202.073 198.474Z" stroke="url(#paint59_linear_125_8)" stroke-width="3"/>
<path opacity="0.616162" d="M202.469 197.169C204.678 189.464 211.597 184.059 219.607 183.779L477.228 174.782C485.237 174.503 492.516 179.413 495.257 186.944L583.423 429.176C586.164 436.707 583.743 445.147 577.428 450.081L374.297 608.785C367.981 613.719 359.206 614.026 352.562 609.544L138.855 465.396C132.21 460.915 129.207 452.664 131.416 444.96L202.469 197.169Z" stroke="url(#paint60_linear_125_8)" stroke-width="3"/>
<path opacity="0.626263" d="M202.898 195.929C205.241 188.265 212.253 182.981 220.267 182.841L477.418 178.352C485.431 178.212 492.623 183.248 495.232 190.826L578.965 434.004C581.574 441.582 579.007 449.979 572.607 454.802L367.206 609.582C360.805 614.406 352.026 614.559 345.461 609.962L134.784 462.443C128.218 457.846 125.359 449.545 127.703 441.881L202.898 195.929Z" stroke="url(#paint61_linear_125_8)" stroke-width="3"/>
<path opacity="0.636364" d="M203.358 194.755C205.835 187.132 212.938 181.972 220.953 181.972L477.555 181.971C485.569 181.971 492.672 187.132 495.149 194.755L574.443 438.797C576.92 446.42 574.207 454.77 567.723 459.481L360.128 610.308C353.644 615.019 344.864 615.019 338.38 610.308L130.785 459.481C124.301 454.77 121.587 446.42 124.063 438.797L203.358 194.755Z" stroke="url(#paint62_linear_125_8)" stroke-width="3"/>
<path opacity="0.646465" d="M203.849 193.646C206.458 186.068 213.651 181.032 221.664 181.172L477.64 185.64C485.653 185.78 492.664 191.064 495.008 198.728L569.859 443.555C572.202 451.22 569.344 459.521 562.778 464.118L353.064 610.962C346.499 615.559 337.72 615.406 331.319 610.582L126.858 456.509C120.457 451.686 117.89 443.29 120.499 435.712L203.849 193.646Z" stroke="url(#paint63_linear_125_8)" stroke-width="3"/>
<path opacity="0.656566" d="M204.369 192.603C207.11 185.072 214.389 180.162 222.399 180.442L477.67 189.356C485.68 189.636 492.599 195.041 494.808 202.745L565.212 448.277C567.421 455.981 564.418 464.232 557.774 468.714L346.016 611.546C339.372 616.028 330.597 615.721 324.281 610.787L123.002 453.531C116.687 448.597 114.267 440.157 117.008 432.626L204.369 192.603Z" stroke="url(#paint64_linear_125_8)" stroke-width="3"/>
<path opacity="0.666667" d="M204.917 191.626C207.789 184.144 215.152 179.362 223.156 179.782L477.645 193.118C485.649 193.538 492.473 199.063 494.547 206.805L560.504 452.961C562.578 460.702 559.431 468.899 552.71 473.264L338.985 612.059C332.263 616.424 323.495 615.964 317.266 610.921L119.219 450.546C112.991 445.502 110.718 437.021 113.59 429.539L204.917 191.626Z" stroke="url(#paint65_linear_125_8)" stroke-width="3"/>
<path opacity="0.676768" d="M205.491 190.717C208.493 183.286 215.939 178.634 223.934 179.193L477.565 196.928C485.56 197.487 492.287 203.131 494.226 210.907L555.734 457.606C557.673 465.382 554.384 473.523 547.587 477.77L331.97 612.502C325.174 616.749 316.415 616.137 310.275 610.985L115.507 447.556C109.368 442.405 107.244 433.885 110.246 426.454L205.491 190.717Z" stroke="url(#paint66_linear_125_8)" stroke-width="3"/>
<path opacity="0.686869" d="M206.09 189.875C209.222 182.498 216.748 177.976 224.732 178.674L477.43 200.782C485.414 201.48 492.04 207.241 493.843 215.05L550.905 462.212C552.707 470.021 549.277 478.103 542.407 482.231L324.976 612.877C318.106 617.004 309.359 616.239 303.31 610.981L111.868 444.563C105.82 439.305 103.844 430.75 106.976 423.373L206.09 189.875Z" stroke="url(#paint67_linear_125_8)" stroke-width="3"/>
<path opacity="0.69697" d="M206.714 189.1C209.974 181.779 217.578 177.389 225.548 178.226L477.237 204.68C485.208 205.518 491.733 211.393 493.399 219.232L546.016 466.777C547.682 474.616 544.112 482.637 537.171 486.644L318.001 613.182C311.061 617.189 302.328 616.272 296.372 610.909L108.301 441.569C102.345 436.206 100.519 427.618 103.779 420.296L206.714 189.1Z" stroke="url(#paint68_linear_125_8)" stroke-width="3"/>
<path opacity="0.707071" d="M207.36 188.394C210.748 181.131 218.427 176.874 226.382 177.851L476.987 208.621C484.942 209.598 491.363 215.586 492.893 223.453L541.069 471.302C542.598 479.169 538.888 487.126 531.879 491.012L311.048 613.421C304.038 617.306 295.324 616.236 289.462 610.77L104.804 438.574C98.9426 433.108 97.2675 424.489 100.655 417.226L207.36 188.394Z" stroke="url(#paint69_linear_125_8)" stroke-width="3"/>
<path opacity="0.717172" d="M208.029 187.755C211.542 180.552 219.294 176.43 227.231 177.545L476.679 212.602C484.616 213.718 490.931 219.817 492.323 227.71L536.065 475.783C537.456 483.676 533.608 491.567 526.532 495.33L304.117 613.59C297.041 617.352 288.347 616.13 282.581 610.563L101.379 435.578C95.614 430.011 94.0895 421.364 97.6029 414.161L208.029 187.755Z" stroke="url(#paint70_linear_125_8)" stroke-width="3"/>
<path opacity="0.727273" d="M208.717 187.185C212.355 180.044 220.178 176.058 228.094 177.312L476.312 216.625C484.228 217.879 490.436 224.087 491.69 232.003L531.004 480.221C532.257 488.137 528.272 495.96 521.131 499.598L297.21 613.692C290.069 617.33 281.397 615.957 275.73 610.289L98.0254 432.585C92.3583 426.918 90.9849 418.246 94.6234 411.105L208.717 187.185Z" stroke="url(#paint71_linear_125_8)" stroke-width="3"/>
<path opacity="0.737374" d="M209.424 186.683C213.187 179.607 221.078 175.758 228.971 177.149L475.886 220.687C483.779 222.079 489.878 228.395 490.994 236.332L525.888 484.615C527.003 492.551 522.881 500.304 515.678 503.817L290.328 613.728C283.124 617.241 274.478 615.717 268.91 609.951L94.7433 429.596C89.1758 423.831 87.9536 415.135 91.7163 408.059L209.424 186.683Z" stroke="url(#paint72_linear_125_8)" stroke-width="3"/>
<path opacity="0.747475" d="M210.149 186.251C214.035 179.241 221.992 175.53 229.86 177.06L475.4 224.788C483.267 226.317 489.256 232.738 490.232 240.693L520.717 488.965C521.693 496.92 517.436 504.599 510.173 507.986L283.472 613.698C276.208 617.085 267.589 615.41 262.123 609.549L91.5312 426.611C86.0652 420.749 84.9954 412.034 88.881 405.025L210.149 186.251Z" stroke="url(#paint73_linear_125_8)" stroke-width="3"/>
<path opacity="0.757576" d="M210.891 185.886C214.898 178.945 222.919 175.373 230.759 177.04L474.854 228.924C482.693 230.59 488.568 237.115 489.406 245.086L515.492 493.267C516.329 501.238 511.939 508.842 504.617 512.102L276.643 613.602C269.321 616.862 260.733 615.037 255.37 609.081L88.39 423.629C83.0271 417.673 82.1095 408.941 86.1169 402.001L210.891 185.886Z" stroke="url(#paint74_linear_125_8)" stroke-width="3"/>
<path opacity="0.767677" d="M211.648 185.59C215.776 178.72 223.858 175.29 231.667 177.093L474.246 233.096C482.056 234.899 487.816 241.526 488.515 249.51L510.214 497.524C510.912 505.508 506.39 513.034 499.012 516.165L269.843 613.442C262.465 616.574 253.91 614.598 248.652 608.55L85.319 420.656C80.061 414.607 79.2959 405.861 83.4237 398.991L211.648 185.59Z" stroke="url(#paint75_linear_125_8)" stroke-width="3"/>
<path opacity="0.777778" d="M212.419 185.365C216.666 178.568 224.806 175.279 232.583 177.218L473.578 237.304C481.354 239.243 486.998 245.969 487.557 253.964L504.883 501.732C505.442 509.727 500.789 517.173 493.358 520.175L263.071 613.217C255.64 616.22 247.12 614.096 241.969 607.956L82.3181 417.691C77.1665 411.552 76.5541 402.793 80.8012 395.996L212.419 185.365Z" stroke="url(#paint76_linear_125_8)" stroke-width="3"/>
<path opacity="0.787879" d="M213.202 185.208C217.567 178.487 225.764 175.34 233.506 177.415L472.848 241.546C480.59 243.62 486.115 250.444 486.534 258.448L499.502 505.893C499.922 513.896 495.14 521.26 487.657 524.132L256.33 612.93C248.848 615.803 240.367 613.53 235.323 607.302L79.3873 414.737C74.3436 408.508 73.8836 399.74 78.2484 393.019L213.202 185.208Z" stroke="url(#paint77_linear_125_8)" stroke-width="3"/>
<path opacity="0.79798" d="M213.997 185.12C218.479 178.475 226.729 175.472 234.434 177.682L472.055 245.818C479.759 248.027 485.164 254.946 485.444 262.956L494.072 510.003C494.351 518.012 489.441 525.292 481.91 528.033L249.621 612.579C242.089 615.32 233.649 612.9 228.715 606.585L76.5254 411.79C71.5912 405.475 71.2842 396.7 75.7657 390.056L213.997 185.12Z" stroke="url(#paint78_linear_125_8)" stroke-width="3"/>
<path opacity="0.808081" d="M214.802 185.102C219.399 178.537 227.701 175.678 235.366 178.022L471.2 250.123C478.864 252.466 484.147 259.478 484.287 267.492L488.592 514.064C488.731 522.077 483.695 529.27 476.117 531.879L242.944 612.167C235.366 614.776 226.969 612.209 222.146 605.809L73.7327 408.857C68.9094 402.456 68.7556 393.678 73.3524 387.113L214.802 185.102Z" stroke="url(#paint79_linear_125_8)" stroke-width="3"/>
<path opacity="0.818182" d="M215.616 185.152C220.327 178.668 228.678 175.955 236.3 178.432L470.281 254.456C477.903 256.933 483.063 264.036 483.063 272.051L483.064 518.072C483.064 526.087 477.903 533.19 470.28 535.667L236.3 611.692C228.677 614.169 220.327 611.455 215.616 604.971L71.0086 405.936C66.2978 399.452 66.297 390.672 71.0079 384.188L215.616 185.152Z" stroke="url(#paint80_linear_125_8)" stroke-width="3"/>
<path opacity="0.828283" d="M216.438 185.273C221.261 178.872 229.658 176.305 237.236 178.914L469.298 258.819C476.876 261.428 481.912 268.621 481.773 276.634L477.489 522.031C477.349 530.044 472.065 537.056 464.4 539.4L229.691 611.158C222.027 613.501 213.725 610.642 209.128 604.077L68.352 403.029C63.7553 396.464 63.9085 387.685 68.7317 381.284L216.438 185.273Z" stroke="url(#paint81_linear_125_8)" stroke-width="3"/>
<path opacity="0.838384" d="M217.266 185.462C222.201 179.146 230.641 176.726 238.172 179.467L468.252 263.21C475.784 265.951 480.694 273.23 480.414 281.239L471.868 525.936C471.589 533.946 466.183 540.865 458.479 543.074L223.118 610.563C215.414 612.772 207.163 609.769 202.681 603.124L65.7646 400.138C61.2829 393.494 61.5897 384.719 66.5238 378.403L217.266 185.462Z" stroke="url(#paint82_linear_125_8)" stroke-width="3"/>
<path opacity="0.848485" d="M218.1 185.721C223.143 179.493 231.624 177.22 239.107 180.092L467.142 267.626C474.624 270.499 479.406 277.862 478.987 285.866L466.203 529.79C465.783 537.793 460.258 544.617 452.516 546.691L216.581 609.91C208.84 611.984 200.643 608.838 196.277 602.116L63.2442 397.264C58.8791 390.542 59.3389 381.774 64.3826 375.545L218.1 185.721Z" stroke="url(#paint83_linear_125_8)" stroke-width="3"/>
<path opacity="0.858586" d="M218.937 186.049C224.089 179.909 232.608 177.785 240.039 180.787L465.966 272.067C473.397 275.07 478.05 282.516 477.491 290.511L460.493 533.588C459.934 541.583 454.29 548.31 446.514 550.248L210.082 609.198C202.305 611.136 194.164 607.847 189.917 601.051L60.7909 394.406C56.5439 387.609 57.1564 378.85 62.3081 372.711L218.937 186.049Z" stroke="url(#paint84_linear_125_8)" stroke-width="3"/>
<path opacity="0.868687" d="M219.777 186.446C225.035 180.397 233.59 178.422 240.967 181.553L464.726 276.533C472.104 279.664 476.626 287.19 475.927 295.174L454.741 537.332C454.042 545.317 448.282 551.943 440.473 553.746L203.621 608.427C195.812 610.23 187.729 606.8 183.602 599.93L58.4041 391.567C54.2765 384.697 55.0418 375.951 60.2998 369.902L219.777 186.446Z" stroke="url(#paint85_linear_125_8)" stroke-width="3"/>
<path opacity="0.878788" d="M220.618 186.912C225.981 180.956 234.569 179.131 241.891 182.39L463.421 281.022C470.743 284.282 475.133 291.886 474.295 299.857L448.947 541.023C448.109 548.994 442.234 555.518 434.395 557.185L197.2 607.602C189.36 609.268 181.339 605.697 177.332 598.756L56.0837 388.75C52.0764 381.809 52.9945 373.077 58.3572 367.121L220.618 186.912Z" stroke="url(#paint86_linear_125_8)" stroke-width="3"/>
<path opacity="0.888889" d="M221.459 187.447C226.925 181.585 235.544 179.91 242.808 183.297L462.05 285.532C469.314 288.919 473.571 296.598 472.594 304.553L443.113 544.657C442.136 552.612 436.148 559.033 428.281 560.562L190.817 606.721C182.95 608.25 174.993 604.539 171.108 597.529L53.8284 385.953C49.9428 378.943 51.0131 370.228 56.479 364.367L221.459 187.447Z" stroke="url(#paint87_linear_125_8)" stroke-width="3"/>
<path opacity="0.89899" d="M222.3 188.05C227.867 182.285 236.514 180.761 243.717 184.274L460.614 290.061C467.817 293.575 471.939 301.327 470.824 309.264L437.238 548.235C436.123 556.171 430.024 562.487 422.132 563.879L184.478 605.784C176.585 607.175 168.694 603.326 164.931 596.25L51.6383 383.177C47.8756 376.101 49.0977 367.406 54.6652 361.641L222.3 188.05Z" stroke="url(#paint88_linear_125_8)" stroke-width="3"/>
<path opacity="0.909091" d="M223.138 188.724C228.805 183.056 237.477 181.683 244.618 185.322L459.112 294.611C466.253 298.25 470.239 306.073 468.985 313.989L431.326 551.756C430.072 559.672 423.864 565.881 415.948 567.134L178.18 604.793C170.264 606.047 162.442 602.061 158.803 594.92L49.5127 380.426C45.8742 373.285 47.2478 364.613 52.915 358.946L223.138 188.724Z" stroke="url(#paint89_linear_125_8)" stroke-width="3"/>
<path opacity="0.919192" d="M223.973 189.463C229.738 183.896 238.432 182.674 245.509 186.437L457.543 299.177C464.62 302.939 468.469 310.831 467.077 318.724L425.377 555.219C423.985 563.112 417.669 569.211 409.733 570.327L171.925 603.749C163.989 604.864 156.236 600.742 152.723 593.538L47.451 377.698C43.9378 370.495 45.4625 361.848 51.2277 356.281L223.973 189.463Z" stroke="url(#paint90_linear_125_8)" stroke-width="3"/>
<path opacity="0.929293" d="M224.803 190.272C230.664 184.806 239.379 183.736 246.388 187.622L455.909 303.761C462.918 307.646 466.629 315.604 465.1 323.471L419.391 558.626C417.862 566.493 411.44 572.481 403.485 573.458L165.714 602.652C157.759 603.629 150.08 599.372 146.693 592.109L45.4526 374.997C42.0655 367.734 43.741 359.115 49.6025 353.649L224.803 190.272Z" stroke="url(#paint91_linear_125_8)" stroke-width="3"/>
<path opacity="0.939394" d="M225.626 191.149C231.583 185.786 240.314 184.868 247.255 188.875L454.208 308.359C461.149 312.367 464.72 320.388 463.054 328.227L413.37 561.974C411.703 569.813 405.178 575.688 397.208 576.526L159.548 601.505C151.577 602.343 143.973 597.953 140.714 590.631L43.5169 372.322C40.257 365.001 42.0827 356.412 48.0387 351.05L225.626 191.149Z" stroke="url(#paint92_linear_125_8)" stroke-width="3"/>
<path opacity="0.949495" d="M226.443 192.094C232.492 186.836 241.239 186.071 248.109 190.198L452.44 312.973C459.31 317.101 462.741 325.183 460.938 332.992L407.315 565.264C405.512 573.073 398.885 578.833 390.901 579.532L153.427 600.308C145.443 601.006 137.917 596.484 134.785 589.107L41.6432 369.676C38.5116 362.298 40.4869 353.743 46.5356 348.485L226.443 192.094Z" stroke="url(#paint93_linear_125_8)" stroke-width="3"/>
<path opacity="0.959596" d="M227.252 193.105C233.392 187.953 242.15 187.34 248.947 191.588L450.607 317.598C457.404 321.845 460.692 329.986 458.753 337.762L401.227 568.492C399.288 576.268 392.562 581.912 384.567 582.471L147.353 599.059C139.358 599.618 131.912 594.965 128.909 587.534L39.8311 367.056C36.8289 359.625 38.9522 351.106 45.0916 345.954L227.252 193.105Z" stroke="url(#paint94_linear_125_8)" stroke-width="3"/>
<path opacity="0.969697" d="M228.051 194.184C234.28 189.14 243.048 188.68 249.769 193.045L448.707 322.236C455.428 326.601 458.574 334.799 456.5 342.54L395.107 571.662C393.033 579.404 386.209 584.929 378.205 585.348L141.325 597.763C133.322 598.182 125.958 593.4 123.086 585.918L38.0797 364.469C35.2075 356.986 37.4791 348.505 43.7077 343.461L228.051 194.184Z" stroke="url(#paint95_linear_125_8)" stroke-width="3"/>
<path opacity="0.979798" d="M228.84 195.328C235.155 190.393 243.93 190.087 250.574 194.569L446.739 326.883C453.383 331.365 456.386 339.616 454.177 347.32L388.957 574.771C386.748 582.475 379.829 587.88 371.819 588.16L135.346 596.418C127.336 596.698 120.057 591.788 117.316 584.256L36.3884 361.909C33.6473 354.378 36.0668 345.938 42.3822 341.004L228.84 195.328Z" stroke="url(#paint96_linear_125_8)" stroke-width="3"/>
<path opacity="0.989899" d="M229.616 196.539C236.017 191.716 244.796 191.563 251.361 196.16L444.705 331.541C451.27 336.138 454.129 344.439 451.786 352.104L382.777 577.82C380.434 585.484 373.422 590.768 365.408 590.908L129.415 595.028C121.401 595.167 114.209 590.131 111.6 582.553L34.7565 359.383C32.1472 351.805 34.7136 343.409 41.1143 338.585L229.616 196.539Z" stroke="url(#paint97_linear_125_8)" stroke-width="3"/>
<path d="M230.38 197.817C236.864 193.106 245.644 193.106 252.128 197.817L442.604 336.206C449.088 340.916 451.802 349.267 449.325 356.889L376.569 580.807C374.093 588.43 366.989 593.591 358.974 593.591H123.533C115.519 593.591 108.415 588.43 105.938 580.808L33.1825 356.889C30.706 349.267 33.4193 340.916 39.9032 336.206L230.38 197.817Z" stroke="url(#paint98_linear_125_8)" stroke-width="3"/>
<defs>
<linearGradient id="paint0_linear_125_8" x1="558.066" y1="473.303" x2="512.706" y2="150.554" gradientUnits="userSpaceOnUse">
<stop stop-color="#FF1CF7"/>
<stop offset="1" stop-color="#00F0FF"/>
</linearGradient>
<linearGradient id="paint1_linear_125_8" x1="552.264" y1="474.387" x2="512.617" y2="151.486" gradientUnits="userSpaceOnUse">
<stop stop-color="#FF1CF7"/>
<stop offset="1" stop-color="#00F0FF"/>
</linearGradient>
<linearGradient id="paint2_linear_125_8" x1="546.466" y1="475.422" x2="512.523" y2="152.469" gradientUnits="userSpaceOnUse">
<stop stop-color="#FF1CF7"/>
<stop offset="1" stop-color="#00F0FF"/>
</linearGradient>
<linearGradient id="paint3_linear_125_8" x1="540.674" y1="476.409" x2="512.423" y2="153.505" gradientUnits="userSpaceOnUse">
<stop stop-color="#FF1CF7"/>
<stop offset="1" stop-color="#00F0FF"/>
</linearGradient>
<linearGradient id="paint4_linear_125_8" x1="534.887" y1="477.346" x2="512.317" y2="154.592" gradientUnits="userSpaceOnUse">
<stop stop-color="#FF1CF7"/>
<stop offset="1" stop-color="#00F0FF"/>
</linearGradient>
<linearGradient id="paint5_linear_125_8" x1="529.106" y1="478.233" x2="512.204" y2="155.728" gradientUnits="userSpaceOnUse">
<stop stop-color="#FF1CF7"/>
<stop offset="1" stop-color="#00F0FF"/>
</linearGradient>
<linearGradient id="paint6_linear_125_8" x1="523.333" y1="479.071" x2="512.083" y2="156.915" gradientUnits="userSpaceOnUse">
<stop stop-color="#FF1CF7"/>
<stop offset="1" stop-color="#00F0FF"/>
</linearGradient>
<linearGradient id="paint7_linear_125_8" x1="517.568" y1="479.862" x2="511.953" y2="158.153" gradientUnits="userSpaceOnUse">
<stop stop-color="#FF1CF7"/>
<stop offset="1" stop-color="#00F0FF"/>
</linearGradient>
<linearGradient id="paint8_linear_125_8" x1="511.813" y1="480.604" x2="511.813" y2="159.441" gradientUnits="userSpaceOnUse">
<stop stop-color="#FF1CF7"/>
<stop offset="1" stop-color="#00F0FF"/>
</linearGradient>
<linearGradient id="paint9_linear_125_8" x1="506.067" y1="481.298" x2="511.662" y2="160.778" gradientUnits="userSpaceOnUse">
<stop stop-color="#FF1CF7"/>
<stop offset="1" stop-color="#00F0FF"/>
</linearGradient>
<linearGradient id="paint10_linear_125_8" x1="500.333" y1="481.945" x2="511.499" y2="162.166" gradientUnits="userSpaceOnUse">
<stop stop-color="#FF1CF7"/>
<stop offset="1" stop-color="#00F0FF"/>
</linearGradient>
<linearGradient id="paint11_linear_125_8" x1="494.61" y1="482.543" x2="511.325" y2="163.601" gradientUnits="userSpaceOnUse">
<stop stop-color="#FF1CF7"/>
<stop offset="1" stop-color="#00F0FF"/>
</linearGradient>
<linearGradient id="paint12_linear_125_8" x1="488.899" y1="483.095" x2="511.136" y2="165.087" gradientUnits="userSpaceOnUse">
<stop stop-color="#FF1CF7"/>
<stop offset="1" stop-color="#00F0FF"/>
</linearGradient>
<linearGradient id="paint13_linear_125_8" x1="483.202" y1="483.6" x2="510.934" y2="166.621" gradientUnits="userSpaceOnUse">
<stop stop-color="#FF1CF7"/>
<stop offset="1" stop-color="#00F0FF"/>
</linearGradient>
<linearGradient id="paint14_linear_125_8" x1="477.519" y1="484.058" x2="510.717" y2="168.203" gradientUnits="userSpaceOnUse">
<stop stop-color="#FF1CF7"/>
<stop offset="1" stop-color="#00F0FF"/>
</linearGradient>
<linearGradient id="paint15_linear_125_8" x1="471.851" y1="484.47" x2="510.483" y2="169.833" gradientUnits="userSpaceOnUse">
<stop stop-color="#FF1CF7"/>
<stop offset="1" stop-color="#00F0FF"/>
</linearGradient>
<linearGradient id="paint16_linear_125_8" x1="466.198" y1="484.837" x2="510.233" y2="171.511" gradientUnits="userSpaceOnUse">
<stop stop-color="#FF1CF7"/>
<stop offset="1" stop-color="#00F0FF"/>
</linearGradient>
<linearGradient id="paint17_linear_125_8" x1="460.562" y1="485.158" x2="509.966" y2="173.235" gradientUnits="userSpaceOnUse">
<stop stop-color="#FF1CF7"/>
<stop offset="1" stop-color="#00F0FF"/>
</linearGradient>
<linearGradient id="paint18_linear_125_8" x1="454.944" y1="485.434" x2="509.68" y2="175.007" gradientUnits="userSpaceOnUse">
<stop stop-color="#FF1CF7"/>
<stop offset="1" stop-color="#00F0FF"/>
</linearGradient>
<linearGradient id="paint19_linear_125_8" x1="449.343" y1="485.663" x2="509.376" y2="176.823" gradientUnits="userSpaceOnUse">
<stop stop-color="#FF1CF7"/>
<stop offset="1" stop-color="#00F0FF"/>
</linearGradient>
<linearGradient id="paint20_linear_125_8" x1="443.761" y1="485.851" x2="509.051" y2="178.687" gradientUnits="userSpaceOnUse">
<stop stop-color="#FF1CF7"/>
<stop offset="1" stop-color="#00F0FF"/>
</linearGradient>
<linearGradient id="paint21_linear_125_8" x1="438.199" y1="485.993" x2="508.706" y2="180.595" gradientUnits="userSpaceOnUse">
<stop stop-color="#FF1CF7"/>
<stop offset="1" stop-color="#00F0FF"/>
</linearGradient>
<linearGradient id="paint22_linear_125_8" x1="432.657" y1="486.093" x2="508.339" y2="182.549" gradientUnits="userSpaceOnUse">
<stop stop-color="#FF1CF7"/>
<stop offset="1" stop-color="#00F0FF"/>
</linearGradient>
<linearGradient id="paint23_linear_125_8" x1="427.137" y1="486.15" x2="507.951" y2="184.548" gradientUnits="userSpaceOnUse">
<stop stop-color="#FF1CF7"/>
<stop offset="1" stop-color="#00F0FF"/>
</linearGradient>
<linearGradient id="paint24_linear_125_8" x1="421.637" y1="486.164" x2="507.539" y2="186.589" gradientUnits="userSpaceOnUse">
<stop stop-color="#FF1CF7"/>
<stop offset="1" stop-color="#00F0FF"/>
</linearGradient>
<linearGradient id="paint25_linear_125_8" x1="416.161" y1="486.135" x2="507.104" y2="188.674" gradientUnits="userSpaceOnUse">
<stop stop-color="#FF1CF7"/>
<stop offset="1" stop-color="#00F0FF"/>
</linearGradient>
<linearGradient id="paint26_linear_125_8" x1="410.707" y1="486.066" x2="506.644" y2="190.803" gradientUnits="userSpaceOnUse">
<stop stop-color="#FF1CF7"/>
<stop offset="1" stop-color="#00F0FF"/>
</linearGradient>
<linearGradient id="paint27_linear_125_8" x1="405.278" y1="485.956" x2="506.159" y2="192.974" gradientUnits="userSpaceOnUse">
<stop stop-color="#FF1CF7"/>
<stop offset="1" stop-color="#00F0FF"/>
</linearGradient>
<linearGradient id="paint28_linear_125_8" x1="399.873" y1="485.805" x2="505.649" y2="195.188" gradientUnits="userSpaceOnUse">
<stop stop-color="#FF1CF7"/>
<stop offset="1" stop-color="#00F0FF"/>
</linearGradient>
<linearGradient id="paint29_linear_125_8" x1="394.493" y1="485.613" x2="505.112" y2="197.442" gradientUnits="userSpaceOnUse">
<stop stop-color="#FF1CF7"/>
<stop offset="1" stop-color="#00F0FF"/>
</linearGradient>
<linearGradient id="paint30_linear_125_8" x1="389.139" y1="485.383" x2="504.547" y2="199.737" gradientUnits="userSpaceOnUse">
<stop stop-color="#FF1CF7"/>
<stop offset="1" stop-color="#00F0FF"/>
</linearGradient>
<linearGradient id="paint31_linear_125_8" x1="383.812" y1="485.113" x2="503.955" y2="202.072" gradientUnits="userSpaceOnUse">
<stop stop-color="#FF1CF7"/>
<stop offset="1" stop-color="#00F0FF"/>
</linearGradient>
<linearGradient id="paint32_linear_125_8" x1="378.512" y1="484.805" x2="503.335" y2="204.448" gradientUnits="userSpaceOnUse">
<stop stop-color="#FF1CF7"/>
<stop offset="1" stop-color="#00F0FF"/>
</linearGradient>
<linearGradient id="paint33_linear_125_8" x1="373.239" y1="484.459" x2="502.685" y2="206.861" gradientUnits="userSpaceOnUse">
<stop stop-color="#FF1CF7"/>
<stop offset="1" stop-color="#00F0FF"/>
</linearGradient>
<linearGradient id="paint34_linear_125_8" x1="367.995" y1="484.076" x2="502.005" y2="209.315" gradientUnits="userSpaceOnUse">
<stop stop-color="#FF1CF7"/>
<stop offset="1" stop-color="#00F0FF"/>
</linearGradient>
<linearGradient id="paint35_linear_125_8" x1="362.78" y1="483.656" x2="501.295" y2="211.805" gradientUnits="userSpaceOnUse">
<stop stop-color="#FF1CF7"/>
<stop offset="1" stop-color="#00F0FF"/>
</linearGradient>
<linearGradient id="paint36_linear_125_8" x1="357.595" y1="483.2" x2="500.554" y2="214.334" gradientUnits="userSpaceOnUse">
<stop stop-color="#FF1CF7"/>
<stop offset="1" stop-color="#00F0FF"/>
</linearGradient>
<linearGradient id="paint37_linear_125_8" x1="352.44" y1="482.708" x2="499.782" y2="216.898" gradientUnits="userSpaceOnUse">
<stop stop-color="#FF1CF7"/>
<stop offset="1" stop-color="#00F0FF"/>
</linearGradient>
<linearGradient id="paint38_linear_125_8" x1="347.316" y1="482.182" x2="498.976" y2="219.499" gradientUnits="userSpaceOnUse">
<stop stop-color="#FF1CF7"/>
<stop offset="1" stop-color="#00F0FF"/>
</linearGradient>
<linearGradient id="paint39_linear_125_8" x1="342.223" y1="481.621" x2="498.139" y2="222.134" gradientUnits="userSpaceOnUse">
<stop stop-color="#FF1CF7"/>
<stop offset="1" stop-color="#00F0FF"/>
</linearGradient>
<linearGradient id="paint40_linear_125_8" x1="337.162" y1="481.027" x2="497.267" y2="224.805" gradientUnits="userSpaceOnUse">
<stop stop-color="#FF1CF7"/>
<stop offset="1" stop-color="#00F0FF"/>
</linearGradient>
<linearGradient id="paint41_linear_125_8" x1="332.134" y1="480.4" x2="496.362" y2="227.51" gradientUnits="userSpaceOnUse">
<stop stop-color="#FF1CF7"/>
<stop offset="1" stop-color="#00F0FF"/>
</linearGradient>
<linearGradient id="paint42_linear_125_8" x1="327.138" y1="479.74" x2="495.423" y2="230.248" gradientUnits="userSpaceOnUse">
<stop stop-color="#FF1CF7"/>
<stop offset="1" stop-color="#00F0FF"/>
</linearGradient>
<linearGradient id="paint43_linear_125_8" x1="322.176" y1="479.048" x2="494.448" y2="233.018" gradientUnits="userSpaceOnUse">
<stop stop-color="#FF1CF7"/>
<stop offset="1" stop-color="#00F0FF"/>
</linearGradient>
<linearGradient id="paint44_linear_125_8" x1="317.248" y1="478.327" x2="493.438" y2="235.822" gradientUnits="userSpaceOnUse">
<stop stop-color="#FF1CF7"/>
<stop offset="1" stop-color="#00F0FF"/>
</linearGradient>
<linearGradient id="paint45_linear_125_8" x1="312.355" y1="477.574" x2="492.392" y2="238.656" gradientUnits="userSpaceOnUse">
<stop stop-color="#FF1CF7"/>
<stop offset="1" stop-color="#00F0FF"/>
</linearGradient>
<linearGradient id="paint46_linear_125_8" x1="307.496" y1="476.791" x2="491.31" y2="241.52" gradientUnits="userSpaceOnUse">
<stop stop-color="#FF1CF7"/>
<stop offset="1" stop-color="#00F0FF"/>
</linearGradient>
<linearGradient id="paint47_linear_125_8" x1="302.673" y1="475.979" x2="490.19" y2="244.415" gradientUnits="userSpaceOnUse">
<stop stop-color="#FF1CF7"/>
<stop offset="1" stop-color="#00F0FF"/>
</linearGradient>
<linearGradient id="paint48_linear_125_8" x1="297.885" y1="475.139" x2="489.033" y2="247.338" gradientUnits="userSpaceOnUse">
<stop stop-color="#FF1CF7"/>
<stop offset="1" stop-color="#00F0FF"/>
</linearGradient>
<linearGradient id="paint49_linear_125_8" x1="293.134" y1="474.272" x2="487.838" y2="250.29" gradientUnits="userSpaceOnUse">
<stop stop-color="#FF1CF7"/>
<stop offset="1" stop-color="#00F0FF"/>
</linearGradient>
<linearGradient id="paint50_linear_125_8" x1="288.42" y1="473.378" x2="486.605" y2="253.27" gradientUnits="userSpaceOnUse">
<stop stop-color="#FF1CF7"/>
<stop offset="1" stop-color="#00F0FF"/>
</linearGradient>
<linearGradient id="paint51_linear_125_8" x1="283.742" y1="472.457" x2="485.333" y2="256.277" gradientUnits="userSpaceOnUse">
<stop stop-color="#FF1CF7"/>
<stop offset="1" stop-color="#00F0FF"/>
</linearGradient>
<linearGradient id="paint52_linear_125_8" x1="279.102" y1="471.511" x2="484.023" y2="259.31" gradientUnits="userSpaceOnUse">
<stop stop-color="#FF1CF7"/>
<stop offset="1" stop-color="#00F0FF"/>
</linearGradient>
<linearGradient id="paint53_linear_125_8" x1="274.5" y1="470.54" x2="482.672" y2="262.368" gradientUnits="userSpaceOnUse">
<stop stop-color="#FF1CF7"/>
<stop offset="1" stop-color="#00F0FF"/>
</linearGradient>
<linearGradient id="paint54_linear_125_8" x1="269.936" y1="469.545" x2="481.282" y2="265.451" gradientUnits="userSpaceOnUse">
<stop stop-color="#FF1CF7"/>
<stop offset="1" stop-color="#00F0FF"/>
</linearGradient>
<linearGradient id="paint55_linear_125_8" x1="265.411" y1="468.527" x2="479.851" y2="268.558" gradientUnits="userSpaceOnUse">
<stop stop-color="#FF1CF7"/>
<stop offset="1" stop-color="#00F0FF"/>
</linearGradient>
<linearGradient id="paint56_linear_125_8" x1="260.925" y1="467.486" x2="478.38" y2="271.688" gradientUnits="userSpaceOnUse">
<stop stop-color="#FF1CF7"/>
<stop offset="1" stop-color="#00F0FF"/>
</linearGradient>
<linearGradient id="paint57_linear_125_8" x1="256.478" y1="466.424" x2="476.868" y2="274.841" gradientUnits="userSpaceOnUse">
<stop stop-color="#FF1CF7"/>
<stop offset="1" stop-color="#00F0FF"/>
</linearGradient>
<linearGradient id="paint58_linear_125_8" x1="252.07" y1="465.34" x2="475.315" y2="278.015" gradientUnits="userSpaceOnUse">
<stop stop-color="#FF1CF7"/>
<stop offset="1" stop-color="#00F0FF"/>
</linearGradient>
<linearGradient id="paint59_linear_125_8" x1="247.702" y1="464.236" x2="473.72" y2="281.21" gradientUnits="userSpaceOnUse">
<stop stop-color="#FF1CF7"/>
<stop offset="1" stop-color="#00F0FF"/>
</linearGradient>
<linearGradient id="paint60_linear_125_8" x1="243.375" y1="463.112" x2="472.084" y2="284.425" gradientUnits="userSpaceOnUse">
<stop stop-color="#FF1CF7"/>
<stop offset="1" stop-color="#00F0FF"/>
</linearGradient>
<linearGradient id="paint61_linear_125_8" x1="239.087" y1="461.97" x2="470.405" y2="287.66" gradientUnits="userSpaceOnUse">
<stop stop-color="#FF1CF7"/>
<stop offset="1" stop-color="#00F0FF"/>
</linearGradient>
<linearGradient id="paint62_linear_125_8" x1="234.841" y1="460.81" x2="468.684" y2="290.913" gradientUnits="userSpaceOnUse">
<stop stop-color="#FF1CF7"/>
<stop offset="1" stop-color="#00F0FF"/>
</linearGradient>
<linearGradient id="paint63_linear_125_8" x1="230.635" y1="459.633" x2="466.921" y2="294.183" gradientUnits="userSpaceOnUse">
<stop stop-color="#FF1CF7"/>
<stop offset="1" stop-color="#00F0FF"/>
</linearGradient>
<linearGradient id="paint64_linear_125_8" x1="226.47" y1="458.439" x2="465.115" y2="297.471" gradientUnits="userSpaceOnUse">
<stop stop-color="#FF1CF7"/>
<stop offset="1" stop-color="#00F0FF"/>
</linearGradient>
<linearGradient id="paint65_linear_125_8" x1="222.347" y1="457.228" x2="463.266" y2="300.773" gradientUnits="userSpaceOnUse">
<stop stop-color="#FF1CF7"/>
<stop offset="1" stop-color="#00F0FF"/>
</linearGradient>
<linearGradient id="paint66_linear_125_8" x1="218.265" y1="456.003" x2="461.373" y2="304.092" gradientUnits="userSpaceOnUse">
<stop stop-color="#FF1CF7"/>
<stop offset="1" stop-color="#00F0FF"/>
</linearGradient>
<linearGradient id="paint67_linear_125_8" x1="214.225" y1="454.764" x2="459.437" y2="307.425" gradientUnits="userSpaceOnUse">
<stop stop-color="#FF1CF7"/>
<stop offset="1" stop-color="#00F0FF"/>
</linearGradient>
<linearGradient id="paint68_linear_125_8" x1="210.226" y1="453.511" x2="457.458" y2="310.771" gradientUnits="userSpaceOnUse">
<stop stop-color="#FF1CF7"/>
<stop offset="1" stop-color="#00F0FF"/>
</linearGradient>
<linearGradient id="paint69_linear_125_8" x1="206.27" y1="452.246" x2="455.435" y2="314.132" gradientUnits="userSpaceOnUse">
<stop stop-color="#FF1CF7"/>
<stop offset="1" stop-color="#00F0FF"/>
</linearGradient>
<linearGradient id="paint70_linear_125_8" x1="202.356" y1="450.968" x2="453.368" y2="317.503" gradientUnits="userSpaceOnUse">
<stop stop-color="#FF1CF7"/>
<stop offset="1" stop-color="#00F0FF"/>
</linearGradient>
<linearGradient id="paint71_linear_125_8" x1="198.483" y1="449.68" x2="451.257" y2="320.886" gradientUnits="userSpaceOnUse">
<stop stop-color="#FF1CF7"/>
<stop offset="1" stop-color="#00F0FF"/>
</linearGradient>
<linearGradient id="paint72_linear_125_8" x1="194.654" y1="448.381" x2="449.102" y2="324.279" gradientUnits="userSpaceOnUse">
<stop stop-color="#FF1CF7"/>
<stop offset="1" stop-color="#00F0FF"/>
</linearGradient>
<linearGradient id="paint73_linear_125_8" x1="190.866" y1="447.074" x2="446.903" y2="327.682" gradientUnits="userSpaceOnUse">
<stop stop-color="#FF1CF7"/>
<stop offset="1" stop-color="#00F0FF"/>
</linearGradient>
<linearGradient id="paint74_linear_125_8" x1="187.122" y1="445.756" x2="444.659" y2="331.093" gradientUnits="userSpaceOnUse">
<stop stop-color="#FF1CF7"/>
<stop offset="1" stop-color="#00F0FF"/>
</linearGradient>
<linearGradient id="paint75_linear_125_8" x1="183.42" y1="444.431" x2="442.372" y2="334.513" gradientUnits="userSpaceOnUse">
<stop stop-color="#FF1CF7"/>
<stop offset="1" stop-color="#00F0FF"/>
</linearGradient>
<linearGradient id="paint76_linear_125_8" x1="179.76" y1="443.1" x2="440.04" y2="337.94" gradientUnits="userSpaceOnUse">
<stop stop-color="#FF1CF7"/>
<stop offset="1" stop-color="#00F0FF"/>
</linearGradient>
<linearGradient id="paint77_linear_125_8" x1="176.144" y1="441.762" x2="437.663" y2="341.374" gradientUnits="userSpaceOnUse">
<stop stop-color="#FF1CF7"/>
<stop offset="1" stop-color="#00F0FF"/>
</linearGradient>
<linearGradient id="paint78_linear_125_8" x1="172.569" y1="440.417" x2="435.243" y2="344.812" gradientUnits="userSpaceOnUse">
<stop stop-color="#FF1CF7"/>
<stop offset="1" stop-color="#00F0FF"/>
</linearGradient>
<linearGradient id="paint79_linear_125_8" x1="169.038" y1="439.068" x2="432.777" y2="348.256" gradientUnits="userSpaceOnUse">
<stop stop-color="#FF1CF7"/>
<stop offset="1" stop-color="#00F0FF"/>
</linearGradient>
<linearGradient id="paint80_linear_125_8" x1="165.549" y1="437.715" x2="430.268" y2="351.703" gradientUnits="userSpaceOnUse">
<stop stop-color="#FF1CF7"/>
<stop offset="1" stop-color="#00F0FF"/>
</linearGradient>
<linearGradient id="paint81_linear_125_8" x1="162.103" y1="436.359" x2="427.714" y2="355.153" gradientUnits="userSpaceOnUse">
<stop stop-color="#FF1CF7"/>
<stop offset="1" stop-color="#00F0FF"/>
</linearGradient>
<linearGradient id="paint82_linear_125_8" x1="158.7" y1="434.999" x2="425.116" y2="358.606" gradientUnits="userSpaceOnUse">
<stop stop-color="#FF1CF7"/>
<stop offset="1" stop-color="#00F0FF"/>
</linearGradient>
<linearGradient id="paint83_linear_125_8" x1="155.34" y1="433.639" x2="422.473" y2="362.06" gradientUnits="userSpaceOnUse">
<stop stop-color="#FF1CF7"/>
<stop offset="1" stop-color="#00F0FF"/>
</linearGradient>
<linearGradient id="paint84_linear_125_8" x1="152.021" y1="432.276" x2="419.787" y2="365.515" gradientUnits="userSpaceOnUse">
<stop stop-color="#FF1CF7"/>
<stop offset="1" stop-color="#00F0FF"/>
</linearGradient>
<linearGradient id="paint85_linear_125_8" x1="148.746" y1="430.914" x2="417.056" y2="368.97" gradientUnits="userSpaceOnUse">
<stop stop-color="#FF1CF7"/>
<stop offset="1" stop-color="#00F0FF"/>
</linearGradient>
<linearGradient id="paint86_linear_125_8" x1="145.513" y1="429.553" x2="414.281" y2="372.425" gradientUnits="userSpaceOnUse">
<stop stop-color="#FF1CF7"/>
<stop offset="1" stop-color="#00F0FF"/>
</linearGradient>
<linearGradient id="paint87_linear_125_8" x1="142.321" y1="428.193" x2="411.462" y2="375.877" gradientUnits="userSpaceOnUse">
<stop stop-color="#FF1CF7"/>
<stop offset="1" stop-color="#00F0FF"/>
</linearGradient>
<linearGradient id="paint88_linear_125_8" x1="139.173" y1="426.834" x2="408.6" y2="379.327" gradientUnits="userSpaceOnUse">
<stop stop-color="#FF1CF7"/>
<stop offset="1" stop-color="#00F0FF"/>
</linearGradient>
<linearGradient id="paint89_linear_125_8" x1="136.066" y1="425.48" x2="405.694" y2="382.775" gradientUnits="userSpaceOnUse">
<stop stop-color="#FF1CF7"/>
<stop offset="1" stop-color="#00F0FF"/>
</linearGradient>
<linearGradient id="paint90_linear_125_8" x1="133.001" y1="424.127" x2="402.744" y2="386.217" gradientUnits="userSpaceOnUse">
<stop stop-color="#FF1CF7"/>
<stop offset="1" stop-color="#00F0FF"/>
</linearGradient>
<linearGradient id="paint91_linear_125_8" x1="129.978" y1="422.78" x2="399.751" y2="389.656" gradientUnits="userSpaceOnUse">
<stop stop-color="#FF1CF7"/>
<stop offset="1" stop-color="#00F0FF"/>
</linearGradient>
<linearGradient id="paint92_linear_125_8" x1="126.996" y1="421.437" x2="396.715" y2="393.088" gradientUnits="userSpaceOnUse">
<stop stop-color="#FF1CF7"/>
<stop offset="1" stop-color="#00F0FF"/>
</linearGradient>
<linearGradient id="paint93_linear_125_8" x1="124.056" y1="420.101" x2="393.636" y2="396.516" gradientUnits="userSpaceOnUse">
<stop stop-color="#FF1CF7"/>
<stop offset="1" stop-color="#00F0FF"/>
</linearGradient>
<linearGradient id="paint94_linear_125_8" x1="121.157" y1="418.77" x2="390.514" y2="399.935" gradientUnits="userSpaceOnUse">
<stop stop-color="#FF1CF7"/>
<stop offset="1" stop-color="#00F0FF"/>
</linearGradient>
<linearGradient id="paint95_linear_125_8" x1="118.299" y1="417.448" x2="387.35" y2="403.347" gradientUnits="userSpaceOnUse">
<stop stop-color="#FF1CF7"/>
<stop offset="1" stop-color="#00F0FF"/>
</linearGradient>
<linearGradient id="paint96_linear_125_8" x1="115.482" y1="416.131" x2="384.144" y2="406.749" gradientUnits="userSpaceOnUse">
<stop stop-color="#FF1CF7"/>
<stop offset="1" stop-color="#00F0FF"/>
</linearGradient>
<linearGradient id="paint97_linear_125_8" x1="112.705" y1="414.825" x2="380.895" y2="410.144" gradientUnits="userSpaceOnUse">
<stop stop-color="#FF1CF7"/>
<stop offset="1" stop-color="#00F0FF"/>
</linearGradient>
<linearGradient id="paint98_linear_125_8" x1="109.969" y1="413.528" x2="377.605" y2="413.528" gradientUnits="userSpaceOnUse">
<stop stop-color="#FF1CF7"/>
<stop offset="1" stop-color="#00F0FF"/>
</linearGradient>
</defs>
</svg>
