<svg width="780" height="780" viewBox="0 0 780 780" fill="none" xmlns="http://www.w3.org/2000/svg">
<g opacity="0.0526316">
<rect x="315.573" y="666.233" width="404.908" height="404.908" transform="rotate(-120 315.573 666.233)" fill="black" stroke="url(#paint0_linear_10_159500)" stroke-width="2.5"/>
<rect x="209.495" y="612.182" width="404.908" height="404.908" transform="rotate(-96 209.495 612.182)" fill="black" stroke="url(#paint1_linear_10_159500)" stroke-width="2.5"/>
<rect x="134.571" y="519.659" width="404.908" height="404.908" transform="rotate(-72 134.571 519.659)" fill="black" stroke="url(#paint2_linear_10_159500)" stroke-width="2.5"/>
</g>
<g opacity="0.105263">
<rect x="215.795" y="604.401" width="390.746" height="390.746" transform="rotate(-96 215.795 604.401)" fill="black" stroke="url(#paint3_linear_10_159500)" stroke-width="2.5"/>
<rect x="143.492" y="515.113" width="390.746" height="390.746" transform="rotate(-72 143.492 515.113)" fill="black" stroke="url(#paint4_linear_10_159500)" stroke-width="2.5"/>
<rect x="113.756" y="404.136" width="390.746" height="390.746" transform="rotate(-48 113.756 404.136)" fill="black" stroke="url(#paint5_linear_10_159500)" stroke-width="2.5"/>
</g>
<g opacity="0.157895">
<rect x="152.414" y="510.567" width="376.585" height="376.585" transform="rotate(-72 152.414 510.567)" fill="black" stroke="url(#paint6_linear_10_159500)" stroke-width="2.5"/>
<rect x="123.757" y="403.613" width="376.585" height="376.585" transform="rotate(-48 123.757 403.613)" fill="black" stroke="url(#paint7_linear_10_159500)" stroke-width="2.5"/>
<rect x="141.078" y="294.249" width="376.585" height="376.585" transform="rotate(-24 141.078 294.249)" fill="black" stroke="url(#paint8_linear_10_159500)" stroke-width="2.5"/>
</g>
<g opacity="0.210526">
<rect x="133.755" y="403.088" width="362.423" height="362.423" transform="rotate(-48 133.755 403.088)" fill="black" stroke="url(#paint9_linear_10_159500)" stroke-width="2.5"/>
<rect x="150.427" y="297.837" width="362.423" height="362.423" transform="rotate(-24 150.427 297.837)" fill="black" stroke="url(#paint10_linear_10_159500)" stroke-width="2.5"/>
<rect x="208.465" y="208.465" width="362.423" height="362.423" fill="black" stroke="url(#paint11_linear_10_159500)" stroke-width="2.5"/>
</g>
<g opacity="0.263158">
<rect x="159.775" y="301.425" width="348.262" height="348.262" transform="rotate(-24 159.775 301.425)" fill="black" stroke="url(#paint12_linear_10_159500)" stroke-width="2.5"/>
<rect x="215.546" y="215.547" width="348.262" height="348.262" fill="black" stroke="url(#paint13_linear_10_159500)" stroke-width="2.5"/>
<rect x="301.425" y="159.776" width="348.262" height="348.262" transform="rotate(24 301.425 159.776)" fill="black" stroke="url(#paint14_linear_10_159500)" stroke-width="2.5"/>
</g>
<g opacity="0.315789">
<rect x="222.626" y="222.625" width="334.1" height="334.1" fill="black" stroke="url(#paint15_linear_10_159500)" stroke-width="2.5"/>
<rect x="305.014" y="169.124" width="334.1" height="334.1" transform="rotate(24 305.014 169.124)" fill="black" stroke="url(#paint16_linear_10_159500)" stroke-width="2.5"/>
<rect x="402.04" y="153.756" width="334.1" height="334.1" transform="rotate(48 402.04 153.756)" fill="black" stroke="url(#paint17_linear_10_159500)" stroke-width="2.5"/>
</g>
<g opacity="0.368421">
<rect x="308.602" y="178.472" width="319.939" height="319.939" transform="rotate(24 308.602 178.472)" fill="black" stroke="url(#paint18_linear_10_159500)" stroke-width="2.5"/>
<rect x="401.516" y="163.756" width="319.939" height="319.939" transform="rotate(48 401.516 163.756)" fill="black" stroke="url(#paint19_linear_10_159500)" stroke-width="2.5"/>
<rect x="492.382" y="188.104" width="319.939" height="319.939" transform="rotate(72 492.382 188.104)" fill="black" stroke="url(#paint20_linear_10_159500)" stroke-width="2.5"/>
</g>
<g opacity="0.421053">
<rect x="400.992" y="173.756" width="305.777" height="305.777" transform="rotate(48 400.992 173.756)" fill="black" stroke="url(#paint21_linear_10_159500)" stroke-width="2.5"/>
<rect x="487.836" y="197.026" width="305.777" height="305.777" transform="rotate(72 487.836 197.026)" fill="black" stroke="url(#paint22_linear_10_159500)" stroke-width="2.5"/>
<rect x="557.708" y="253.607" width="305.777" height="305.777" transform="rotate(96 557.708 253.607)" fill="black" stroke="url(#paint23_linear_10_159500)" stroke-width="2.5"/>
</g>
<g opacity="0.473684">
<rect x="483.291" y="205.948" width="291.615" height="291.615" transform="rotate(72 483.291 205.948)" fill="black" stroke="url(#paint24_linear_10_159500)" stroke-width="2.5"/>
<rect x="549.926" y="259.909" width="291.615" height="291.615" transform="rotate(96 549.926 259.909)" fill="black" stroke="url(#paint25_linear_10_159500)" stroke-width="2.5"/>
<rect x="588.853" y="336.307" width="291.615" height="291.615" transform="rotate(120 588.853 336.307)" fill="black" stroke="url(#paint26_linear_10_159500)" stroke-width="2.5"/>
</g>
<g opacity="0.526316">
<rect x="542.145" y="266.21" width="277.454" height="277.454" transform="rotate(96 542.145 266.21)" fill="black" stroke="url(#paint27_linear_10_159500)" stroke-width="2.5"/>
<rect x="579.181" y="338.898" width="277.454" height="277.454" transform="rotate(120 579.181 338.898)" fill="black" stroke="url(#paint28_linear_10_159500)" stroke-width="2.5"/>
<rect x="583.45" y="420.367" width="277.454" height="277.454" transform="rotate(144 583.45 420.367)" fill="black" stroke="url(#paint29_linear_10_159500)" stroke-width="2.5"/>
</g>
<g opacity="0.578947">
<rect x="569.508" y="341.491" width="263.292" height="263.292" transform="rotate(120 569.508 341.491)" fill="black" stroke="url(#paint30_linear_10_159500)" stroke-width="2.5"/>
<rect x="573.559" y="418.801" width="263.292" height="263.292" transform="rotate(144 573.559 418.801)" fill="black" stroke="url(#paint31_linear_10_159500)" stroke-width="2.5"/>
<rect x="545.816" y="491.075" width="263.292" height="263.292" transform="rotate(168 545.816 491.075)" fill="black" stroke="url(#paint32_linear_10_159500)" stroke-width="2.5"/>
</g>
<g opacity="0.631579">
<rect x="563.67" y="417.234" width="249.131" height="249.131" transform="rotate(144 563.67 417.234)" fill="black" stroke="url(#paint33_linear_10_159500)" stroke-width="2.5"/>
<rect x="537.418" y="485.621" width="249.131" height="249.131" transform="rotate(168 537.418 485.621)" fill="black" stroke="url(#paint34_linear_10_159500)" stroke-width="2.5"/>
<rect x="485.621" y="537.418" width="249.131" height="249.131" transform="rotate(-168 485.621 537.418)" fill="black" stroke="url(#paint35_linear_10_159500)" stroke-width="2.5"/>
</g>
<g opacity="0.684211">
<rect x="529.02" y="480.167" width="234.969" height="234.969" transform="rotate(168 529.02 480.167)" fill="black" stroke="url(#paint36_linear_10_159500)" stroke-width="2.5"/>
<rect x="480.167" y="529.019" width="234.969" height="234.969" transform="rotate(-168 480.167 529.019)" fill="black" stroke="url(#paint37_linear_10_159500)" stroke-width="2.5"/>
<rect x="415.668" y="553.778" width="234.969" height="234.969" transform="rotate(-144 415.668 553.778)" fill="black" stroke="url(#paint38_linear_10_159500)" stroke-width="2.5"/>
</g>
<g opacity="0.736842">
<rect x="474.714" y="520.622" width="220.808" height="220.808" transform="rotate(-168 474.714 520.622)" fill="black" stroke="url(#paint39_linear_10_159500)" stroke-width="2.5"/>
<rect x="414.102" y="543.889" width="220.808" height="220.808" transform="rotate(-144 414.102 543.889)" fill="black" stroke="url(#paint40_linear_10_159500)" stroke-width="2.5"/>
<rect x="349.266" y="540.491" width="220.808" height="220.808" transform="rotate(-120 349.266 540.491)" fill="black" stroke="url(#paint41_linear_10_159500)" stroke-width="2.5"/>
</g>
<g opacity="0.789474">
<rect x="412.534" y="533.998" width="206.646" height="206.646" transform="rotate(-144 412.534 533.998)" fill="black" stroke="url(#paint42_linear_10_159500)" stroke-width="2.5"/>
<rect x="351.857" y="530.818" width="206.646" height="206.646" transform="rotate(-120 351.857 530.818)" fill="black" stroke="url(#paint43_linear_10_159500)" stroke-width="2.5"/>
<rect x="297.719" y="503.233" width="206.646" height="206.646" transform="rotate(-96 297.719 503.233)" fill="black" stroke="url(#paint44_linear_10_159500)" stroke-width="2.5"/>
</g>
<g opacity="0.842105">
<rect x="354.449" y="521.146" width="192.485" height="192.485" transform="rotate(-120 354.449 521.146)" fill="black" stroke="url(#paint45_linear_10_159500)" stroke-width="2.5"/>
<rect x="304.022" y="495.451" width="192.485" height="192.485" transform="rotate(-96 304.022 495.451)" fill="black" stroke="url(#paint46_linear_10_159500)" stroke-width="2.5"/>
<rect x="268.404" y="451.467" width="192.485" height="192.485" transform="rotate(-72 268.404 451.467)" fill="black" stroke="url(#paint47_linear_10_159500)" stroke-width="2.5"/>
</g>
<g opacity="0.894737">
<rect x="310.323" y="487.669" width="178.323" height="178.323" transform="rotate(-96 310.323 487.669)" fill="black" stroke="url(#paint48_linear_10_159500)" stroke-width="2.5"/>
<rect x="277.327" y="446.921" width="178.323" height="178.323" transform="rotate(-72 277.327 446.921)" fill="black" stroke="url(#paint49_linear_10_159500)" stroke-width="2.5"/>
<rect x="263.756" y="396.276" width="178.323" height="178.323" transform="rotate(-48 263.756 396.276)" fill="black" stroke="url(#paint50_linear_10_159500)" stroke-width="2.5"/>
</g>
<g opacity="0.947368">
<rect x="286.249" y="442.375" width="164.162" height="164.162" transform="rotate(-72 286.249 442.375)" fill="black" stroke="url(#paint51_linear_10_159500)" stroke-width="2.5"/>
<rect x="273.756" y="395.751" width="164.162" height="164.162" transform="rotate(-48 273.756 395.751)" fill="black" stroke="url(#paint52_linear_10_159500)" stroke-width="2.5"/>
<rect x="281.307" y="348.076" width="164.162" height="164.162" transform="rotate(-24 281.307 348.076)" fill="black" stroke="url(#paint53_linear_10_159500)" stroke-width="2.5"/>
</g>
<rect x="283.755" y="395.227" width="150" height="150" transform="rotate(-48 283.755 395.227)" fill="black" stroke="url(#paint54_linear_10_159500)" stroke-width="2.5"/>
<rect x="290.655" y="351.665" width="150" height="150" transform="rotate(-24 290.655 351.665)" fill="black" stroke="url(#paint55_linear_10_159500)" stroke-width="2.5"/>
<rect x="314.676" y="314.676" width="150" height="150" fill="black" stroke="url(#paint56_linear_10_159500)" stroke-width="2.5"/>
<defs>
<linearGradient id="paint0_linear_10_159500" x1="315.573" y1="868.687" x2="720.481" y2="868.687" gradientUnits="userSpaceOnUse">
<stop stop-color="#00F0FF"/>
<stop offset="1" stop-color="#FF1CF7"/>
</linearGradient>
<linearGradient id="paint1_linear_10_159500" x1="209.495" y1="814.636" x2="614.403" y2="814.636" gradientUnits="userSpaceOnUse">
<stop stop-color="#00F0FF"/>
<stop offset="1" stop-color="#FF1CF7"/>
</linearGradient>
<linearGradient id="paint2_linear_10_159500" x1="134.571" y1="722.113" x2="539.478" y2="722.113" gradientUnits="userSpaceOnUse">
<stop stop-color="#00F0FF"/>
<stop offset="1" stop-color="#FF1CF7"/>
</linearGradient>
<linearGradient id="paint3_linear_10_159500" x1="215.795" y1="799.774" x2="606.541" y2="799.774" gradientUnits="userSpaceOnUse">
<stop stop-color="#00F0FF"/>
<stop offset="1" stop-color="#FF1CF7"/>
</linearGradient>
<linearGradient id="paint4_linear_10_159500" x1="143.492" y1="710.486" x2="534.239" y2="710.486" gradientUnits="userSpaceOnUse">
<stop stop-color="#00F0FF"/>
<stop offset="1" stop-color="#FF1CF7"/>
</linearGradient>
<linearGradient id="paint5_linear_10_159500" x1="113.756" y1="599.509" x2="504.502" y2="599.509" gradientUnits="userSpaceOnUse">
<stop stop-color="#00F0FF"/>
<stop offset="1" stop-color="#FF1CF7"/>
</linearGradient>
<linearGradient id="paint6_linear_10_159500" x1="152.414" y1="698.859" x2="528.999" y2="698.859" gradientUnits="userSpaceOnUse">
<stop stop-color="#00F0FF"/>
<stop offset="1" stop-color="#FF1CF7"/>
</linearGradient>
<linearGradient id="paint7_linear_10_159500" x1="123.757" y1="591.905" x2="500.342" y2="591.905" gradientUnits="userSpaceOnUse">
<stop stop-color="#00F0FF"/>
<stop offset="1" stop-color="#FF1CF7"/>
</linearGradient>
<linearGradient id="paint8_linear_10_159500" x1="141.078" y1="482.541" x2="517.663" y2="482.541" gradientUnits="userSpaceOnUse">
<stop stop-color="#00F0FF"/>
<stop offset="1" stop-color="#FF1CF7"/>
</linearGradient>
<linearGradient id="paint9_linear_10_159500" x1="133.755" y1="584.3" x2="496.179" y2="584.3" gradientUnits="userSpaceOnUse">
<stop stop-color="#00F0FF"/>
<stop offset="1" stop-color="#FF1CF7"/>
</linearGradient>
<linearGradient id="paint10_linear_10_159500" x1="150.427" y1="479.048" x2="512.85" y2="479.048" gradientUnits="userSpaceOnUse">
<stop stop-color="#00F0FF"/>
<stop offset="1" stop-color="#FF1CF7"/>
</linearGradient>
<linearGradient id="paint11_linear_10_159500" x1="208.465" y1="389.677" x2="570.888" y2="389.677" gradientUnits="userSpaceOnUse">
<stop stop-color="#00F0FF"/>
<stop offset="1" stop-color="#FF1CF7"/>
</linearGradient>
<linearGradient id="paint12_linear_10_159500" x1="159.775" y1="475.556" x2="508.036" y2="475.556" gradientUnits="userSpaceOnUse">
<stop stop-color="#00F0FF"/>
<stop offset="1" stop-color="#FF1CF7"/>
</linearGradient>
<linearGradient id="paint13_linear_10_159500" x1="215.546" y1="389.678" x2="563.807" y2="389.678" gradientUnits="userSpaceOnUse">
<stop stop-color="#00F0FF"/>
<stop offset="1" stop-color="#FF1CF7"/>
</linearGradient>
<linearGradient id="paint14_linear_10_159500" x1="301.425" y1="333.907" x2="649.687" y2="333.907" gradientUnits="userSpaceOnUse">
<stop stop-color="#00F0FF"/>
<stop offset="1" stop-color="#FF1CF7"/>
</linearGradient>
<linearGradient id="paint15_linear_10_159500" x1="222.626" y1="389.676" x2="556.726" y2="389.676" gradientUnits="userSpaceOnUse">
<stop stop-color="#00F0FF"/>
<stop offset="1" stop-color="#FF1CF7"/>
</linearGradient>
<linearGradient id="paint16_linear_10_159500" x1="305.014" y1="336.174" x2="639.114" y2="336.174" gradientUnits="userSpaceOnUse">
<stop stop-color="#00F0FF"/>
<stop offset="1" stop-color="#FF1CF7"/>
</linearGradient>
<linearGradient id="paint17_linear_10_159500" x1="402.04" y1="320.806" x2="736.14" y2="320.806" gradientUnits="userSpaceOnUse">
<stop stop-color="#00F0FF"/>
<stop offset="1" stop-color="#FF1CF7"/>
</linearGradient>
<linearGradient id="paint18_linear_10_159500" x1="308.602" y1="338.441" x2="628.541" y2="338.441" gradientUnits="userSpaceOnUse">
<stop stop-color="#00F0FF"/>
<stop offset="1" stop-color="#FF1CF7"/>
</linearGradient>
<linearGradient id="paint19_linear_10_159500" x1="401.516" y1="323.726" x2="721.455" y2="323.726" gradientUnits="userSpaceOnUse">
<stop stop-color="#00F0FF"/>
<stop offset="1" stop-color="#FF1CF7"/>
</linearGradient>
<linearGradient id="paint20_linear_10_159500" x1="492.382" y1="348.073" x2="812.321" y2="348.073" gradientUnits="userSpaceOnUse">
<stop stop-color="#00F0FF"/>
<stop offset="1" stop-color="#FF1CF7"/>
</linearGradient>
<linearGradient id="paint21_linear_10_159500" x1="400.992" y1="326.644" x2="706.769" y2="326.644" gradientUnits="userSpaceOnUse">
<stop stop-color="#00F0FF"/>
<stop offset="1" stop-color="#FF1CF7"/>
</linearGradient>
<linearGradient id="paint22_linear_10_159500" x1="487.836" y1="349.915" x2="793.613" y2="349.915" gradientUnits="userSpaceOnUse">
<stop stop-color="#00F0FF"/>
<stop offset="1" stop-color="#FF1CF7"/>
</linearGradient>
<linearGradient id="paint23_linear_10_159500" x1="557.708" y1="406.495" x2="863.485" y2="406.495" gradientUnits="userSpaceOnUse">
<stop stop-color="#00F0FF"/>
<stop offset="1" stop-color="#FF1CF7"/>
</linearGradient>
<linearGradient id="paint24_linear_10_159500" x1="483.291" y1="351.755" x2="774.906" y2="351.755" gradientUnits="userSpaceOnUse">
<stop stop-color="#00F0FF"/>
<stop offset="1" stop-color="#FF1CF7"/>
</linearGradient>
<linearGradient id="paint25_linear_10_159500" x1="549.926" y1="405.716" x2="841.541" y2="405.716" gradientUnits="userSpaceOnUse">
<stop stop-color="#00F0FF"/>
<stop offset="1" stop-color="#FF1CF7"/>
</linearGradient>
<linearGradient id="paint26_linear_10_159500" x1="588.853" y1="482.115" x2="880.468" y2="482.115" gradientUnits="userSpaceOnUse">
<stop stop-color="#00F0FF"/>
<stop offset="1" stop-color="#FF1CF7"/>
</linearGradient>
<linearGradient id="paint27_linear_10_159500" x1="542.145" y1="404.937" x2="819.599" y2="404.937" gradientUnits="userSpaceOnUse">
<stop stop-color="#00F0FF"/>
<stop offset="1" stop-color="#FF1CF7"/>
</linearGradient>
<linearGradient id="paint28_linear_10_159500" x1="579.181" y1="477.625" x2="856.635" y2="477.625" gradientUnits="userSpaceOnUse">
<stop stop-color="#00F0FF"/>
<stop offset="1" stop-color="#FF1CF7"/>
</linearGradient>
<linearGradient id="paint29_linear_10_159500" x1="583.45" y1="559.094" x2="860.904" y2="559.094" gradientUnits="userSpaceOnUse">
<stop stop-color="#00F0FF"/>
<stop offset="1" stop-color="#FF1CF7"/>
</linearGradient>
<linearGradient id="paint30_linear_10_159500" x1="569.508" y1="473.137" x2="832.8" y2="473.137" gradientUnits="userSpaceOnUse">
<stop stop-color="#00F0FF"/>
<stop offset="1" stop-color="#FF1CF7"/>
</linearGradient>
<linearGradient id="paint31_linear_10_159500" x1="573.559" y1="550.447" x2="836.851" y2="550.447" gradientUnits="userSpaceOnUse">
<stop stop-color="#00F0FF"/>
<stop offset="1" stop-color="#FF1CF7"/>
</linearGradient>
<linearGradient id="paint32_linear_10_159500" x1="545.816" y1="622.721" x2="809.108" y2="622.721" gradientUnits="userSpaceOnUse">
<stop stop-color="#00F0FF"/>
<stop offset="1" stop-color="#FF1CF7"/>
</linearGradient>
<linearGradient id="paint33_linear_10_159500" x1="563.67" y1="541.8" x2="812.801" y2="541.8" gradientUnits="userSpaceOnUse">
<stop stop-color="#00F0FF"/>
<stop offset="1" stop-color="#FF1CF7"/>
</linearGradient>
<linearGradient id="paint34_linear_10_159500" x1="537.418" y1="610.186" x2="786.549" y2="610.186" gradientUnits="userSpaceOnUse">
<stop stop-color="#00F0FF"/>
<stop offset="1" stop-color="#FF1CF7"/>
</linearGradient>
<linearGradient id="paint35_linear_10_159500" x1="485.621" y1="661.983" x2="734.752" y2="661.983" gradientUnits="userSpaceOnUse">
<stop stop-color="#00F0FF"/>
<stop offset="1" stop-color="#FF1CF7"/>
</linearGradient>
<linearGradient id="paint36_linear_10_159500" x1="529.02" y1="597.651" x2="763.989" y2="597.651" gradientUnits="userSpaceOnUse">
<stop stop-color="#00F0FF"/>
<stop offset="1" stop-color="#FF1CF7"/>
</linearGradient>
<linearGradient id="paint37_linear_10_159500" x1="480.167" y1="646.503" x2="715.136" y2="646.503" gradientUnits="userSpaceOnUse">
<stop stop-color="#00F0FF"/>
<stop offset="1" stop-color="#FF1CF7"/>
</linearGradient>
<linearGradient id="paint38_linear_10_159500" x1="415.668" y1="671.263" x2="650.637" y2="671.263" gradientUnits="userSpaceOnUse">
<stop stop-color="#00F0FF"/>
<stop offset="1" stop-color="#FF1CF7"/>
</linearGradient>
<linearGradient id="paint39_linear_10_159500" x1="474.714" y1="631.026" x2="695.522" y2="631.026" gradientUnits="userSpaceOnUse">
<stop stop-color="#00F0FF"/>
<stop offset="1" stop-color="#FF1CF7"/>
</linearGradient>
<linearGradient id="paint40_linear_10_159500" x1="414.102" y1="654.293" x2="634.909" y2="654.293" gradientUnits="userSpaceOnUse">
<stop stop-color="#00F0FF"/>
<stop offset="1" stop-color="#FF1CF7"/>
</linearGradient>
<linearGradient id="paint41_linear_10_159500" x1="349.266" y1="650.895" x2="570.074" y2="650.895" gradientUnits="userSpaceOnUse">
<stop stop-color="#00F0FF"/>
<stop offset="1" stop-color="#FF1CF7"/>
</linearGradient>
<linearGradient id="paint42_linear_10_159500" x1="412.534" y1="637.321" x2="619.181" y2="637.321" gradientUnits="userSpaceOnUse">
<stop stop-color="#00F0FF"/>
<stop offset="1" stop-color="#FF1CF7"/>
</linearGradient>
<linearGradient id="paint43_linear_10_159500" x1="351.857" y1="634.141" x2="558.504" y2="634.141" gradientUnits="userSpaceOnUse">
<stop stop-color="#00F0FF"/>
<stop offset="1" stop-color="#FF1CF7"/>
</linearGradient>
<linearGradient id="paint44_linear_10_159500" x1="297.719" y1="606.556" x2="504.366" y2="606.556" gradientUnits="userSpaceOnUse">
<stop stop-color="#00F0FF"/>
<stop offset="1" stop-color="#FF1CF7"/>
</linearGradient>
<linearGradient id="paint45_linear_10_159500" x1="354.449" y1="617.388" x2="546.934" y2="617.388" gradientUnits="userSpaceOnUse">
<stop stop-color="#00F0FF"/>
<stop offset="1" stop-color="#FF1CF7"/>
</linearGradient>
<linearGradient id="paint46_linear_10_159500" x1="304.022" y1="591.693" x2="496.506" y2="591.693" gradientUnits="userSpaceOnUse">
<stop stop-color="#00F0FF"/>
<stop offset="1" stop-color="#FF1CF7"/>
</linearGradient>
<linearGradient id="paint47_linear_10_159500" x1="268.404" y1="547.71" x2="460.889" y2="547.71" gradientUnits="userSpaceOnUse">
<stop stop-color="#00F0FF"/>
<stop offset="1" stop-color="#FF1CF7"/>
</linearGradient>
<linearGradient id="paint48_linear_10_159500" x1="310.323" y1="576.831" x2="488.646" y2="576.831" gradientUnits="userSpaceOnUse">
<stop stop-color="#00F0FF"/>
<stop offset="1" stop-color="#FF1CF7"/>
</linearGradient>
<linearGradient id="paint49_linear_10_159500" x1="277.327" y1="536.083" x2="455.65" y2="536.083" gradientUnits="userSpaceOnUse">
<stop stop-color="#00F0FF"/>
<stop offset="1" stop-color="#FF1CF7"/>
</linearGradient>
<linearGradient id="paint50_linear_10_159500" x1="263.756" y1="485.437" x2="442.079" y2="485.437" gradientUnits="userSpaceOnUse">
<stop stop-color="#00F0FF"/>
<stop offset="1" stop-color="#FF1CF7"/>
</linearGradient>
<linearGradient id="paint51_linear_10_159500" x1="286.249" y1="524.456" x2="450.41" y2="524.456" gradientUnits="userSpaceOnUse">
<stop stop-color="#00F0FF"/>
<stop offset="1" stop-color="#FF1CF7"/>
</linearGradient>
<linearGradient id="paint52_linear_10_159500" x1="273.756" y1="477.832" x2="437.918" y2="477.832" gradientUnits="userSpaceOnUse">
<stop stop-color="#00F0FF"/>
<stop offset="1" stop-color="#FF1CF7"/>
</linearGradient>
<linearGradient id="paint53_linear_10_159500" x1="281.307" y1="430.157" x2="445.469" y2="430.157" gradientUnits="userSpaceOnUse">
<stop stop-color="#00F0FF"/>
<stop offset="1" stop-color="#FF1CF7"/>
</linearGradient>
<linearGradient id="paint54_linear_10_159500" x1="283.755" y1="470.227" x2="433.755" y2="470.227" gradientUnits="userSpaceOnUse">
<stop stop-color="#00F0FF"/>
<stop offset="1" stop-color="#FF1CF7"/>
</linearGradient>
<linearGradient id="paint55_linear_10_159500" x1="290.655" y1="426.665" x2="440.655" y2="426.665" gradientUnits="userSpaceOnUse">
<stop stop-color="#00F0FF"/>
<stop offset="1" stop-color="#FF1CF7"/>
</linearGradient>
<linearGradient id="paint56_linear_10_159500" x1="314.676" y1="389.676" x2="464.676" y2="389.676" gradientUnits="userSpaceOnUse">
<stop stop-color="#00F0FF"/>
<stop offset="1" stop-color="#FF1CF7"/>
</linearGradient>
</defs>
</svg>
