<svg width="689" height="689" viewBox="0 0 689 689" fill="none" xmlns="http://www.w3.org/2000/svg">
<g opacity="0.0416667">
<rect x="30.8043" y="477.109" width="481.357" height="481.357" transform="rotate(-68 30.8043 477.109)" fill="#FF1CF7" stroke="black" stroke-width="0.5"/>
<rect x="10" y="279.171" width="481.357" height="481.357" transform="rotate(-34 10 279.171)" fill="#FF1CF7" stroke="black" stroke-width="0.5"/>
<rect x="103.439" y="103.438" width="481.357" height="481.357" fill="#FF1CF7" stroke="black" stroke-width="0.5"/>
</g>
<g opacity="0.0833333">
<rect x="40.1816" y="473.129" width="466.95" height="466.95" transform="rotate(-68 40.1816 473.129)" fill="#FF1CF7" stroke="black" stroke-width="0.5"/>
<rect x="20" y="281.115" width="466.95" height="466.95" transform="rotate(-34 20 281.115)" fill="#FF1CF7" stroke="black" stroke-width="0.5"/>
<rect x="110.642" y="110.642" width="466.95" height="466.95" fill="#FF1CF7" stroke="black" stroke-width="0.5"/>
</g>
<g opacity="0.125">
<rect x="49.5591" y="469.148" width="452.543" height="452.543" transform="rotate(-68 49.5591 469.148)" fill="#FF1CF7" stroke="black" stroke-width="0.5"/>
<rect x="30" y="283.059" width="452.543" height="452.543" transform="rotate(-34 30 283.059)" fill="#FF1CF7" stroke="black" stroke-width="0.5"/>
<rect x="117.846" y="117.845" width="452.543" height="452.543" fill="#FF1CF7" stroke="black" stroke-width="0.5"/>
</g>
<g opacity="0.166667">
<rect x="58.9364" y="465.168" width="438.137" height="438.137" transform="rotate(-68 58.9364 465.168)" fill="#FF1CF7" stroke="black" stroke-width="0.5"/>
<rect x="40" y="285.003" width="438.137" height="438.137" transform="rotate(-34 40 285.003)" fill="#FF1CF7" stroke="black" stroke-width="0.5"/>
<rect x="125.049" y="125.049" width="438.137" height="438.137" fill="#FF1CF7" stroke="black" stroke-width="0.5"/>
</g>
<g opacity="0.208333">
<rect x="68.3137" y="461.188" width="423.73" height="423.73" transform="rotate(-68 68.3137 461.188)" fill="#FF1CF7" stroke="black" stroke-width="0.5"/>
<rect x="50" y="286.947" width="423.73" height="423.73" transform="rotate(-34 50 286.947)" fill="#FF1CF7" stroke="black" stroke-width="0.5"/>
<rect x="132.252" y="132.252" width="423.73" height="423.73" fill="#FF1CF7" stroke="black" stroke-width="0.5"/>
</g>
<g opacity="0.25">
<rect x="77.691" y="457.207" width="409.323" height="409.323" transform="rotate(-68 77.691 457.207)" fill="#FF1CF7" stroke="black" stroke-width="0.5"/>
<rect x="60" y="288.891" width="409.323" height="409.323" transform="rotate(-34 60 288.891)" fill="#FF1CF7" stroke="black" stroke-width="0.5"/>
<rect x="139.456" y="139.456" width="409.323" height="409.323" fill="#FF1CF7" stroke="black" stroke-width="0.5"/>
</g>
<g opacity="0.291667">
<rect x="87.0684" y="453.227" width="394.916" height="394.916" transform="rotate(-68 87.0684 453.227)" fill="#FF5AFA" stroke="black" stroke-width="0.5"/>
<rect x="70" y="290.834" width="394.916" height="394.916" transform="rotate(-34 70 290.834)" fill="#FF5AFA" stroke="black" stroke-width="0.5"/>
<rect x="146.659" y="146.659" width="394.916" height="394.916" fill="#FF5AFA" stroke="black" stroke-width="0.5"/>
</g>
<g opacity="0.333333">
<rect x="96.4457" y="449.246" width="380.509" height="380.509" transform="rotate(-68 96.4457 449.246)" fill="#FF5AFA" stroke="black" stroke-width="0.5"/>
<rect x="80" y="292.778" width="380.509" height="380.509" transform="rotate(-34 80 292.778)" fill="#FF5AFA" stroke="black" stroke-width="0.5"/>
<rect x="153.863" y="153.862" width="380.509" height="380.509" fill="#FF5AFA" stroke="black" stroke-width="0.5"/>
</g>
<g opacity="0.375">
<rect x="105.823" y="445.266" width="366.102" height="366.102" transform="rotate(-68 105.823 445.266)" fill="#FF5AFA" stroke="black" stroke-width="0.5"/>
<rect x="90" y="294.722" width="366.102" height="366.102" transform="rotate(-34 90 294.722)" fill="#FF5AFA" stroke="black" stroke-width="0.5"/>
<rect x="161.066" y="161.066" width="366.102" height="366.102" fill="#FF5AFA" stroke="black" stroke-width="0.5"/>
</g>
<g opacity="0.416667">
<rect x="115.2" y="441.286" width="351.696" height="351.696" transform="rotate(-68 115.2 441.286)" fill="#CE42FF" stroke="black" stroke-width="0.5"/>
<rect x="100" y="296.666" width="351.696" height="351.696" transform="rotate(-34 100 296.666)" fill="#CE42FF" stroke="black" stroke-width="0.5"/>
<rect x="168.27" y="168.269" width="351.696" height="351.696" fill="#CE42FF" stroke="black" stroke-width="0.5"/>
</g>
<g opacity="0.458333">
<rect x="124.578" y="437.305" width="337.289" height="337.289" transform="rotate(-68 124.578 437.305)" fill="#CE42FF" stroke="black" stroke-width="0.5"/>
<rect x="110" y="298.609" width="337.289" height="337.289" transform="rotate(-34 110 298.609)" fill="#CE42FF" stroke="black" stroke-width="0.5"/>
<rect x="175.473" y="175.473" width="337.289" height="337.289" fill="#CE42FF" stroke="black" stroke-width="0.5"/>
</g>
<g opacity="0.5">
<rect x="133.955" y="433.325" width="322.882" height="322.882" transform="rotate(-68 133.955 433.325)" fill="#CE42FF" stroke="black" stroke-width="0.5"/>
<rect x="120" y="300.553" width="322.882" height="322.882" transform="rotate(-34 120 300.553)" fill="#CE42FF" stroke="black" stroke-width="0.5"/>
<rect x="182.676" y="182.676" width="322.882" height="322.882" fill="#CE42FF" stroke="black" stroke-width="0.5"/>
</g>
<g opacity="0.541667">
<rect x="143.332" y="429.344" width="308.475" height="308.475" transform="rotate(-68 143.332 429.344)" fill="#CE42FF" stroke="black" stroke-width="0.5"/>
<rect x="130" y="302.497" width="308.475" height="308.475" transform="rotate(-34 130 302.497)" fill="#CE42FF" stroke="black" stroke-width="0.5"/>
<rect x="189.88" y="189.879" width="308.475" height="308.475" fill="#CE42FF" stroke="black" stroke-width="0.5"/>
</g>
<g opacity="0.583333">
<rect x="152.71" y="425.364" width="294.068" height="294.068" transform="rotate(-68 152.71 425.364)" fill="#CE42FF" stroke="black" stroke-width="0.5"/>
<rect x="140" y="304.441" width="294.068" height="294.068" transform="rotate(-34 140 304.441)" fill="#CE42FF" stroke="black" stroke-width="0.5"/>
<rect x="197.083" y="197.083" width="294.068" height="294.068" fill="#CE42FF" stroke="black" stroke-width="0.5"/>
</g>
<g opacity="0.625">
<rect x="162.087" y="421.384" width="279.661" height="279.661" transform="rotate(-68 162.087 421.384)" fill="#CE42FF" stroke="black" stroke-width="0.5"/>
<rect x="150" y="306.385" width="279.661" height="279.661" transform="rotate(-34 150 306.385)" fill="#CE42FF" stroke="black" stroke-width="0.5"/>
<rect x="204.287" y="204.286" width="279.661" height="279.661" fill="#CE42FF" stroke="black" stroke-width="0.5"/>
</g>
<g opacity="0.666667">
<rect x="171.464" y="417.403" width="265.255" height="265.255" transform="rotate(-68 171.464 417.403)" fill="#B61CFF" stroke="black" stroke-width="0.5"/>
<rect x="160" y="308.328" width="265.255" height="265.255" transform="rotate(-34 160 308.328)" fill="#B61CFF" stroke="black" stroke-width="0.5"/>
<rect x="211.49" y="211.49" width="265.255" height="265.255" fill="#B61CFF" stroke="black" stroke-width="0.5"/>
</g>
<g opacity="0.708333">
<rect x="180.842" y="413.423" width="250.848" height="250.848" transform="rotate(-68 180.842 413.423)" fill="#B61CFF" stroke="black" stroke-width="0.5"/>
<rect x="170" y="310.272" width="250.848" height="250.848" transform="rotate(-34 170 310.272)" fill="#B61CFF" stroke="black" stroke-width="0.5"/>
<rect x="218.693" y="218.693" width="250.848" height="250.848" fill="#B61CFF" stroke="black" stroke-width="0.5"/>
</g>
<g opacity="0.75">
<rect x="190.219" y="409.442" width="236.441" height="236.441" transform="rotate(-68 190.219 409.442)" fill="#B61CFF" stroke="black" stroke-width="0.5"/>
<rect x="180" y="312.216" width="236.441" height="236.441" transform="rotate(-34 180 312.216)" fill="#B61CFF" stroke="black" stroke-width="0.5"/>
<rect x="225.897" y="225.897" width="236.441" height="236.441" fill="#B61CFF" stroke="black" stroke-width="0.5"/>
</g>
<g opacity="0.791667">
<rect x="199.596" y="405.462" width="222.034" height="222.034" transform="rotate(-68 199.596 405.462)" fill="#B61CFF" stroke="black" stroke-width="0.5"/>
<rect x="190" y="314.16" width="222.034" height="222.034" transform="rotate(-34 190 314.16)" fill="#B61CFF" stroke="black" stroke-width="0.5"/>
<rect x="233.1" y="233.1" width="222.034" height="222.034" fill="#B61CFF" stroke="black" stroke-width="0.5"/>
</g>
<g opacity="0.833333">
<rect x="208.974" y="401.482" width="207.627" height="207.627" transform="rotate(-68 208.974 401.482)" fill="#B61CFF" stroke="black" stroke-width="0.5"/>
<rect x="200" y="316.104" width="207.627" height="207.627" transform="rotate(-34 200 316.104)" fill="#B61CFF" stroke="black" stroke-width="0.5"/>
<rect x="240.304" y="240.303" width="207.627" height="207.627" fill="#B61CFF" stroke="black" stroke-width="0.5"/>
</g>
<g opacity="0.875">
<rect x="218.351" y="397.501" width="193.22" height="193.22" transform="rotate(-68 218.351 397.501)" fill="#B61CFF" stroke="black" stroke-width="0.5"/>
<rect x="210" y="318.047" width="193.221" height="193.221" transform="rotate(-34 210 318.047)" fill="#B61CFF" stroke="black" stroke-width="0.5"/>
<rect x="247.507" y="247.507" width="193.22" height="193.22" fill="#B61CFF" stroke="black" stroke-width="0.5"/>
</g>
<g opacity="0.916667">
<rect x="227.728" y="393.521" width="178.814" height="178.814" transform="rotate(-68 227.728 393.521)" fill="#B61CFF" stroke="black" stroke-width="0.5"/>
<rect x="220" y="319.991" width="178.814" height="178.814" transform="rotate(-34 220 319.991)" fill="#B61CFF" stroke="black" stroke-width="0.5"/>
<rect x="254.71" y="254.71" width="178.814" height="178.814" fill="#B61CFF" stroke="black" stroke-width="0.5"/>
</g>
<g opacity="0.958333">
<rect x="237.106" y="389.541" width="164.407" height="164.407" transform="rotate(-68 237.106 389.541)" fill="#801CFF" stroke="black" stroke-width="0.5"/>
<rect x="230" y="321.935" width="164.407" height="164.407" transform="rotate(-34 230 321.935)" fill="#801CFF" stroke="black" stroke-width="0.5"/>
<rect x="261.914" y="261.914" width="164.407" height="164.407" fill="#801CFF" stroke="black" stroke-width="0.5"/>
</g>
<rect x="246.483" y="385.56" width="150" height="150" transform="rotate(-68 246.483 385.56)" fill="#64C7FF" stroke="black" stroke-width="0.5"/>
<rect x="240" y="323.878" width="150" height="150" transform="rotate(-34 240 323.878)" fill="#64C7FF" stroke="black" stroke-width="0.5"/>
<rect x="269.117" y="269.117" width="150" height="150" fill="#00F0FF" stroke="black" stroke-width="0.5"/>
</svg>
